<?xml version="1.0" encoding="UTF-8" standalone="no"?>
<svg
   xmlns:dc="http://purl.org/dc/elements/1.1/"
   xmlns:cc="http://creativecommons.org/ns#"
   xmlns:rdf="http://www.w3.org/1999/02/22-rdf-syntax-ns#"
   xmlns:svg="http://www.w3.org/2000/svg"
   xmlns="http://www.w3.org/2000/svg"
   xmlns:sodipodi="http://sodipodi.sourceforge.net/DTD/sodipodi-0.dtd"
   xmlns:inkscape="http://www.inkscape.org/namespaces/inkscape"
   inkscape:version="1.0 (4035a4fb49, 2020-05-01)"
   sodipodi:docname="Basketball_pictogram.svg"
   id="svg2243"
   viewBox="0 0 300 300"
   height="300"
   width="300"
   version="1.0">
  <metadata
     id="metadata15">
    <rdf:RDF>
      <cc:Work
         rdf:about="">
        <dc:format>image/svg+xml</dc:format>
        <dc:type
           rdf:resource="http://purl.org/dc/dcmitype/StillImage" />
      </cc:Work>
    </rdf:RDF>
  </metadata>
  <sodipodi:namedview
     inkscape:current-layer="svg2243"
     inkscape:window-maximized="1"
     inkscape:window-y="-8"
     inkscape:window-x="-8"
     inkscape:cy="233.65898"
     inkscape:cx="-216.02365"
     inkscape:zoom="0.58454161"
     inkscape:guide-bbox="true"
     showguides="true"
     showgrid="false"
     id="namedview13"
     inkscape:window-height="705"
     inkscape:window-width="1366"
     inkscape:pageshadow="2"
     inkscape:pageopacity="0"
     guidetolerance="10"
     gridtolerance="10"
     objecttolerance="10"
     borderopacity="1"
     bordercolor="#666666"
     pagecolor="#ffffff" />
  <defs
     id="defs2245">
    <clipPath
       id="clip0">
      <rect
         id="rect2248"
         y="0"
         x="0"
         height="300"
         width="300" />
    </clipPath>
  </defs>
  <path
     id="path2226"
     style="fill:#000000;fill-opacity:1;stroke:none;stroke-width:1.20000005;stroke-linejoin:round;stroke-miterlimit:4;stroke-dasharray:none;stroke-opacity:1"
     d="M 246.53125,8.46875 C 234.68956,8.46875 225.0625,18.064556 225.0625,29.90625 C 225.0625,41.747944 234.68955,51.375 246.53125,51.375 C 258.37294,51.375 267.96876,41.747945 267.96875,29.90625 C 267.96875,18.064556 258.37294,8.46875 246.53125,8.46875 z M 246.6875,14.09375 C 255.32611,14.09375 262.34375,21.111387 262.34375,29.75 C 262.34374,38.388613 255.32611,45.375 246.6875,45.375 C 238.04889,45.375001 231.0625,38.388613 231.0625,29.75 C 231.0625,21.111387 238.04889,14.09375 246.6875,14.09375 z " />
  <path
     id="path2224"
     style="fill:#000000;fill-opacity:1;stroke:none;stroke-width:1.20000005;stroke-linejoin:round;stroke-miterlimit:4;stroke-dasharray:none;stroke-opacity:1"
     transform="matrix(1.2926928,0,0,1.2926928,34.197113,-27.463538)"
     d="M 83.554379 60.079575 A 17.108753 17.108753 0 1 1  49.336872,60.079575 A 17.108753 17.108753 0 1 1  83.554379 60.079575 z" />
  <path
     id="path2257"
     style="fill:#050505;fill-rule:nonzero;stroke:none"
     d="M 165.26756,54.30809 C 189.62415,40.848068 209.85075,21.530441 230.19347,2.851776 C 224.76625,14.922882 218.6165,26.839874 210.01576,36.996185 C 196.7057,53.170258 182.75302,69.941605 163.94026,79.874985 C 157.92078,83.648254 148.31886,78.503738 149.93716,70.946533 C 150.55814,62.581146 159.09747,58.369919 165.26756,54.30809 z " />
  <path
     id="path2285"
     style="fill:#050505;fill-rule:nonzero;stroke:none"
     d="M 116.40909,162.49899 C 123.44685,160.41692 129.16621,168.59872 127.91214,175.02338 C 127.63443,194.39491 117.00241,211.60431 108.16597,228.19663 C 94.661697,249.51035 82.947876,272.03134 67.761795,292.23225 C 72.242874,274.88841 78.185547,257.95291 82.488937,240.55928 C 88.326202,218.00739 93.406891,194.90089 103.97215,173.96518 C 106.54245,168.95946 110.21826,163.05377 116.40909,162.49899 z " />
  <path
     id="path2281"
     style="fill:#050505;fill-rule:nonzero;stroke:none"
     d="M 163.66777,124.62373 C 168.08896,122.8549 173.62883,123.30412 176.6324,127.3331 C 181.08211,133.29919 181.69095,141.26585 181.53966,148.44861 C 177.5537,180.31715 157.21561,206.67677 136.93068,230.27333 C 142.06792,214.98157 150.63887,200.91615 153.96352,185.00688 C 155.46668,178.74298 156.15897,172.3335 157.09909,165.97288 C 154.34215,168.61662 151.9475,171.78857 148.59352,173.70149 C 143.80312,175.56262 138.67844,172.54327 137.0984,167.98341 C 133.95029,161.6826 135.54387,154.31117 138.15483,148.11917 C 143.38853,137.61162 152.1657,128.08156 163.66777,124.62373 z " />
  <path
     id="path2277"
     style="fill:#050505;fill-rule:nonzero;stroke:none"
     d="M 68.354935,100.37206 C 76.009567,93.849396 84.254822,85.809601 95.057983,86.02803 C 100.61311,85.634354 105.2758,91.956604 103.30287,97.158798 C 102.09891,101.84953 97.305771,104.0401 93.857925,106.87906 C 77.635956,117.75069 60.786667,128.01556 46.763412,141.7623 C 37.46553,150.70389 30.111984,161.65335 19.494888,169.19572 C 29.727158,142.69484 47.589218,119.54225 68.354935,100.37206 z " />
  <path
     id="path2273"
     style="fill:#050505;fill-rule:nonzero;stroke:none"
     d="M 221.28677,54.863342 C 241.61266,53.476227 262.03925,53.553741 282.37651,54.726944 C 280.93036,61.864868 278.56723,68.771103 276.99875,75.877777 C 275.5544,83.576462 275.00357,91.414215 273.51836,99.105698 C 271.83635,99.061981 270.15778,99.017456 268.48264,98.972107 C 267.87398,85.735275 270.62187,72.704254 274.3443,60.083939 C 259.29893,59.957031 244.25615,59.986404 229.21419,59.967468 C 232.58049,71.684128 235.23033,83.732071 234.96773,95.996078 C 235.19035,98.590271 231.79719,98.739868 230.17856,99.916412 C 228.82251,90.640228 228.3719,81.185913 225.84854,72.116653 C 224.33148,66.369827 222.03848,60.793671 221.28677,54.863342 z " />
  <path
     style="fill-rule:evenodd;stroke:none;stroke-width:2.00639"
     fill="#000000"
     id="3x3-logo"
     d="m 184.03506,224.01741 -3.75452,15.96113 h 6.30502 l 33.70198,52.25371 h 20.50791 l 3.75529,-15.97113 h -6.30383 l -33.70434,-52.24371 z m 77.83204,0.10001 -3.70688,15.78112 h 8.08408 l -2.2374,9.20065 h -10.48547 l -3.8806,16.80119 h 10.59282 l -2.41386,10.27073 h -8.20707 l -3.75452,15.97113 h 22.30962 l 12.94267,-9.8507 3.87592,-16.32115 -6.89062,-8.28059 10.52332,-8.4606 3.61242,-15.15108 -8.28475,-9.9607 z m -104.25536,0 -12.94342,9.8607 -3.71354,15.39109 6.89064,8.28059 -10.52412,8.4506 -3.7713,16.08114 8.28475,9.9607 h 22.0785 l 3.70611,-15.77112 h -8.08486 l 2.40371,-10.13071 h 10.4839 l 3.88022,-16.8012 h -10.59517 l 2.25302,-9.35066 h 7.18109 l 3.75216,-15.97113 z m 78.66675,0.1 -16.45513,14.62104 10.25277,15.90113 16.59489,-14.75105 h 6.41121 l 3.70495,-15.77112 z m -58.11863,52.0537 h -5.51445 l -3.70649,15.78112 h 19.61349 L 204.92829,277.3912 194.6716,261.49007 Z" />
</svg>
