<?xml version="1.0" encoding="UTF-8" standalone="no"?>
<!-- Created with Inkscape (http://www.inkscape.org/) -->

<svg
   xmlns:dc="http://purl.org/dc/elements/1.1/"
   xmlns:cc="http://creativecommons.org/ns#"
   xmlns:rdf="http://www.w3.org/1999/02/22-rdf-syntax-ns#"
   xmlns:svg="http://www.w3.org/2000/svg"
   xmlns="http://www.w3.org/2000/svg"
   xmlns:sodipodi="http://sodipodi.sourceforge.net/DTD/sodipodi-0.dtd"
   xmlns:inkscape="http://www.inkscape.org/namespaces/inkscape"
   width="250"
   height="250"
   viewBox="0 0 66.145832 66.145835"
   version="1.1"
   id="svg1422"
   inkscape:version="0.92.4 (5da689c313, 2019-01-14)"
   sodipodi:docname="artistic swim.svg">
  <defs
     id="defs1416" />
  <sodipodi:namedview
     id="base"
     pagecolor="#ffffff"
     bordercolor="#666666"
     borderopacity="1.0"
     inkscape:pageopacity="0.0"
     inkscape:pageshadow="2"
     inkscape:zoom="1.3876087"
     inkscape:cx="168.69703"
     inkscape:cy="90.215309"
     inkscape:document-units="mm"
     inkscape:current-layer="layer1"
     showgrid="false"
     units="px"
     inkscape:pagecheckerboard="true"
     inkscape:window-width="1366"
     inkscape:window-height="705"
     inkscape:window-x="-8"
     inkscape:window-y="-8"
     inkscape:window-maximized="1"
     showguides="false" />
  <metadata
     id="metadata1419">
    <rdf:RDF>
      <cc:Work
         rdf:about="">
        <dc:format>image/svg+xml</dc:format>
        <dc:type
           rdf:resource="http://purl.org/dc/dcmitype/StillImage" />
        <dc:title></dc:title>
      </cc:Work>
    </rdf:RDF>
  </metadata>
  <g
     inkscape:label="Layer 1"
     inkscape:groupmode="layer"
     id="layer1"
     transform="translate(0,-230.85415)">
    <g
       id="g833"
       transform="matrix(2.9168688,0,0,-2.9168688,66.145834,263.92561)"
       style="fill:#2c4c98;fill-opacity:1;stroke-width:0.120944">
      <path
         d="m 0,0 c 0,-6.263 -5.077,-11.339 -11.339,-11.339 -6.262,0 -11.338,5.076 -11.338,11.339 0,6.262 5.076,11.338 11.338,11.338 C -5.077,11.338 0,6.262 0,0"
         style="fill:#2c4c98;fill-opacity:1;fill-rule:nonzero;stroke:none;stroke-width:0.120944"
         id="path835"
         inkscape:connector-curvature="0" />
    </g>
    <g
       id="g837"
       transform="matrix(2.9168688,0,0,-2.9168688,23.550834,263.08555)"
       style="stroke-width:0.120944">
      <path
         d="M 0,0 C -0.589,1.056 -1.274,2.267 -1.48,2.632 -1.61,3.046 -3.118,6.227 -3.312,6.602 -3.391,6.775 -3.584,6.871 -3.775,6.821 -3.988,6.765 -4.114,6.547 -4.061,6.333 -3.952,5.892 -1.355,-1.57 -1.32,-1.501 -1.014,-0.901 -0.58,-0.344 0,0"
         style="fill:#ffffff;fill-opacity:1;fill-rule:nonzero;stroke:none;stroke-width:0.120944"
         id="path839"
         inkscape:connector-curvature="0" />
    </g>
    <g
       id="g841"
       transform="matrix(2.9168688,0,0,-2.9168688,27.625694,263.15559)"
       style="stroke-width:0.120944">
      <path
         d="M 0,0 C 0.742,0 1.343,0.6 1.343,1.342 1.343,2.084 0.742,2.684 0,2.684 -0.741,2.684 -1.342,2.084 -1.342,1.342 -1.342,0.6 -0.741,0 0,0"
         style="fill:#ffffff;fill-opacity:1;fill-rule:nonzero;stroke:none;stroke-width:0.120944"
         id="path843"
         inkscape:connector-curvature="0" />
    </g>
    <g
       id="g845"
       transform="matrix(2.9168688,0,0,-2.9168688,27.969904,265.38406)"
       style="stroke-width:0.120944">
      <path
         d="m 0,0 c -0.591,0.066 -1.125,-0.359 -1.191,-0.949 -0.007,-0.055 -0.008,-0.107 -0.005,-0.159 0.005,-0.329 0.386,-1.916 0.597,-2.779 -1.31,-0.163 -3.251,-0.568 -4.43,-0.828 0.286,-0.293 0.684,-0.476 1.126,-0.476 0.406,0 0.775,0.155 1.054,0.407 0.279,-0.252 0.648,-0.407 1.054,-0.407 0.406,0 0.775,0.155 1.054,0.407 0.245,-0.22 0.584,-0.401 0.933,-0.401 0.388,0 0.755,0.225 0.801,0.605 0.108,0.864 0.104,3.271 -0.106,3.869 C 0.753,-0.332 0.424,-0.048 0,0"
         style="fill:#ffffff;fill-opacity:1;fill-rule:nonzero;stroke:none;stroke-width:0.120944"
         id="path847"
         inkscape:connector-curvature="0" />
    </g>
    <g
       id="g849"
       transform="matrix(2.9168688,0,0,-2.9168688,45.395244,263.08555)"
       style="stroke-width:0.120944">
      <path
         d="M 0,0 C -0.589,1.056 -1.273,2.267 -1.48,2.632 -1.609,3.046 -3.117,6.227 -3.311,6.602 -3.39,6.775 -3.584,6.871 -3.774,6.821 -3.988,6.765 -4.113,6.547 -4.061,6.333 -3.951,5.892 -1.354,-1.57 -1.319,-1.501 -1.013,-0.901 -0.58,-0.344 0,0"
         style="fill:#ffffff;fill-opacity:1;fill-rule:nonzero;stroke:none;stroke-width:0.120944"
         id="path851"
         inkscape:connector-curvature="0" />
    </g>
    <g
       id="g853"
       transform="matrix(2.9168688,0,0,-2.9168688,49.473074,263.15559)"
       style="stroke-width:0.120944">
      <path
         d="M 0,0 C 0.741,0 1.342,0.6 1.342,1.342 1.342,2.084 0.741,2.684 0,2.684 -0.742,2.684 -1.343,2.084 -1.343,1.342 -1.343,0.6 -0.742,0 0,0"
         style="fill:#ffffff;fill-opacity:1;fill-rule:nonzero;stroke:none;stroke-width:0.120944"
         id="path855"
         inkscape:connector-curvature="0" />
    </g>
    <g
       id="g857"
       transform="matrix(2.9168688,0,0,-2.9168688,49.814314,265.38406)"
       style="stroke-width:0.120944">
      <path
         d="m 0,0 c -0.591,0.066 -1.125,-0.359 -1.191,-0.949 -0.006,-0.055 -0.007,-0.107 -0.005,-0.159 0.005,-0.329 0.387,-1.916 0.598,-2.779 -1.311,-0.163 -3.251,-0.568 -4.431,-0.828 0.286,-0.293 0.684,-0.476 1.127,-0.476 0.405,0 0.774,0.155 1.053,0.407 0.28,-0.252 0.648,-0.407 1.055,-0.407 0.405,0 0.774,0.155 1.053,0.407 0.245,-0.22 0.584,-0.401 0.933,-0.401 0.388,0 0.755,0.225 0.802,0.605 0.107,0.864 0.104,3.271 -0.107,3.869 C 0.754,-0.332 0.424,-0.048 0,0"
         style="fill:#ffffff;fill-opacity:1;fill-rule:nonzero;stroke:none;stroke-width:0.120944"
         id="path859"
         inkscape:connector-curvature="0" />
    </g>
  </g>
</svg>
