<?xml version="1.0" encoding="UTF-8" standalone="no"?>
<!-- Created with Inkscape (http://www.inkscape.org/) -->

<svg
   xmlns:dc="http://purl.org/dc/elements/1.1/"
   xmlns:cc="http://creativecommons.org/ns#"
   xmlns:rdf="http://www.w3.org/1999/02/22-rdf-syntax-ns#"
   xmlns:svg="http://www.w3.org/2000/svg"
   xmlns="http://www.w3.org/2000/svg"
   xmlns:sodipodi="http://sodipodi.sourceforge.net/DTD/sodipodi-0.dtd"
   xmlns:inkscape="http://www.inkscape.org/namespaces/inkscape"
   width="250"
   height="250"
   viewBox="0 0 66.145832 66.145835"
   version="1.1"
   id="svg1422"
   inkscape:version="0.92.4 (5da689c313, 2019-01-14)"
   sodipodi:docname="athle.svg">
  <defs
     id="defs1416" />
  <sodipodi:namedview
     id="base"
     pagecolor="#ffffff"
     bordercolor="#666666"
     borderopacity="1.0"
     inkscape:pageopacity="0.0"
     inkscape:pageshadow="2"
     inkscape:zoom="0.61445677"
     inkscape:cx="158.32899"
     inkscape:cy="18.583288"
     inkscape:document-units="mm"
     inkscape:current-layer="layer1"
     showgrid="false"
     units="px"
     inkscape:pagecheckerboard="true"
     inkscape:window-width="1366"
     inkscape:window-height="705"
     inkscape:window-x="-8"
     inkscape:window-y="-8"
     inkscape:window-maximized="1"
     showguides="false" />
  <metadata
     id="metadata1419">
    <rdf:RDF>
      <cc:Work
         rdf:about="">
        <dc:format>image/svg+xml</dc:format>
        <dc:type
           rdf:resource="http://purl.org/dc/dcmitype/StillImage" />
        <dc:title></dc:title>
      </cc:Work>
    </rdf:RDF>
  </metadata>
  <g
     inkscape:label="Layer 1"
     inkscape:groupmode="layer"
     id="layer1"
     transform="translate(0,-230.85415)">
    <g
       id="g933"
       transform="matrix(2.9169974,0,0,-2.9168688,66.145833,263.92561)"
       style="fill:#842435;fill-opacity:1;stroke-width:0.12094133">
      <path
         d="m 0,0 c 0,-6.263 -5.076,-11.339 -11.338,-11.339 -6.262,0 -11.338,5.076 -11.338,11.339 0,6.262 5.076,11.338 11.338,11.338 C -5.076,11.338 0,6.262 0,0"
         style="fill:#842435;fill-opacity:1;fill-rule:nonzero;stroke:none;stroke-width:0.12094133"
         id="path935"
         inkscape:connector-curvature="0" />
    </g>
    <g
       id="g937"
       transform="matrix(2.9168688,0,0,-2.9168688,27.517767,252.71902)"
       style="stroke-width:0.120944">
      <path
         d="M 0,0 C 0.628,0.176 2.201,0.724 3.078,1.064 3.302,0.816 3.601,0.507 3.916,0.189 4.403,0.599 4.892,0.993 5.339,1.084 5.403,1.096 5.465,1.103 5.527,1.107 4.827,1.484 3.586,2.149 3.466,2.2 3.362,2.25 3.242,2.267 3.12,2.241 3.085,2.234 3.015,2.208 3.015,2.207 2.603,2.025 -0.104,0.603 -0.201,0.552 -0.319,0.492 -0.388,0.361 -0.358,0.228 -0.324,0.068 -0.163,-0.035 0,0"
         style="fill:#ffffff;fill-opacity:1;fill-rule:nonzero;stroke:none;stroke-width:0.120944"
         id="path939"
         inkscape:connector-curvature="0" />
    </g>
    <g
       id="g941"
       transform="matrix(2.9168688,0,0,-2.9168688,49.093787,250.95143)"
       style="stroke-width:0.120944">
      <path
         d="M 0,0 C 0.542,-0.382 1.29,-0.253 1.671,0.288 2.054,0.829 1.924,1.577 1.383,1.959 0.842,2.341 0.094,2.212 -0.288,1.67 -0.67,1.13 -0.541,0.381 0,0"
         style="fill:#ffffff;fill-opacity:1;fill-rule:nonzero;stroke:none;stroke-width:0.120944"
         id="path943"
         inkscape:connector-curvature="0" />
    </g>
    <g
       id="g945"
       transform="matrix(2.9168688,0,0,-2.9168688,48.769997,263.59604)"
       style="stroke-width:0.120944">
      <path
         d="M 0,0 C 0.058,0.028 2.943,1.758 3.01,1.821 3.102,1.898 3.151,2.019 3.124,2.143 3.085,2.323 2.904,2.437 2.721,2.4 2.702,2.396 2.684,2.389 2.666,2.382 2.589,2.356 1.041,1.704 0.134,1.319 -0.076,2.178 -0.393,3.274 -0.566,3.723 -0.58,3.763 -0.596,3.8 -0.614,3.838 -0.623,3.856 -0.631,3.872 -0.637,3.884 -0.849,4.268 -1.292,4.484 -1.743,4.389 -2.293,4.272 -2.645,3.73 -2.527,3.18 -2.514,3.117 -2.495,3.057 -2.471,3 -2.334,2.631 -1.002,0.476 -0.755,0.174 -0.625,-0.01 -0.394,-0.109 -0.16,-0.06 -0.102,-0.047 -0.049,-0.027 0,0"
         style="fill:#ffffff;fill-opacity:1;fill-rule:nonzero;stroke:none;stroke-width:0.120944"
         id="path947"
         inkscape:connector-curvature="0" />
    </g>
    <g
       id="g949"
       transform="matrix(2.9168688,0,0,-2.9168688,32.552247,266.39626)"
       style="stroke-width:0.120944">
      <path
         d="M 0,0 C 0.276,-0.272 0.549,-0.541 0.673,-0.655 0.75,-0.726 0.834,-0.804 0.921,-0.885 0.097,-0.952 -0.865,-1.036 -1.679,-1.108 -1.026,-0.677 -0.439,-0.291 0,0 M 3.243,-1.168 C 3.009,-0.741 1.533,1.56 1.072,2.211 1.02,2.277 0.961,2.337 0.896,2.389 0.661,2.588 0.349,2.696 0.02,2.661 -0.254,2.632 -0.495,2.512 -0.678,2.332 -0.915,2.126 -8.035,-4.284 -8.086,-4.333 c -0.095,-0.084 -0.151,-0.208 -0.138,-0.343 0.021,-0.226 0.226,-0.394 0.457,-0.374 0.068,0.006 0.129,0.029 0.183,0.062 0.038,0.021 2.209,1.446 4.333,2.844 0.975,-0.012 5.689,-0.072 5.874,-0.057 0.054,10e-4 0.109,0.009 0.163,0.025 0.383,0.102 0.609,0.495 0.507,0.877 -0.013,0.047 -0.03,0.09 -0.05,0.131"
         style="fill:#ffffff;fill-opacity:1;fill-rule:nonzero;stroke:none;stroke-width:0.120944"
         id="path951"
         inkscape:connector-curvature="0" />
    </g>
  </g>
</svg>
