<?xml version="1.0" encoding="UTF-8" standalone="no"?>
<!-- Created with Inkscape (http://www.inkscape.org/) -->

<svg
   xmlns:dc="http://purl.org/dc/elements/1.1/"
   xmlns:cc="http://creativecommons.org/ns#"
   xmlns:rdf="http://www.w3.org/1999/02/22-rdf-syntax-ns#"
   xmlns:svg="http://www.w3.org/2000/svg"
   xmlns="http://www.w3.org/2000/svg"
   xmlns:sodipodi="http://sodipodi.sourceforge.net/DTD/sodipodi-0.dtd"
   xmlns:inkscape="http://www.inkscape.org/namespaces/inkscape"
   width="250"
   height="250"
   viewBox="0 0 66.145832 66.145835"
   version="1.1"
   id="svg1422"
   inkscape:version="0.92.4 (5da689c313, 2019-01-14)"
   sodipodi:docname="badmin.svg">
  <defs
     id="defs1416" />
  <sodipodi:namedview
     id="base"
     pagecolor="#ffffff"
     bordercolor="#666666"
     borderopacity="1.0"
     inkscape:pageopacity="0.0"
     inkscape:pageshadow="2"
     inkscape:zoom="1.7379462"
     inkscape:cx="114.84652"
     inkscape:cy="109.76928"
     inkscape:document-units="mm"
     inkscape:current-layer="layer1"
     showgrid="false"
     units="px"
     inkscape:pagecheckerboard="true"
     inkscape:window-width="1366"
     inkscape:window-height="705"
     inkscape:window-x="-8"
     inkscape:window-y="-8"
     inkscape:window-maximized="1"
     showguides="false" />
  <metadata
     id="metadata1419">
    <rdf:RDF>
      <cc:Work
         rdf:about="">
        <dc:format>image/svg+xml</dc:format>
        <dc:type
           rdf:resource="http://purl.org/dc/dcmitype/StillImage" />
        <dc:title></dc:title>
      </cc:Work>
    </rdf:RDF>
  </metadata>
  <g
     inkscape:label="Layer 1"
     inkscape:groupmode="layer"
     id="layer1"
     transform="translate(0,-230.85415)">
    <g
       id="g1093"
       transform="matrix(2.9168688,0,0,-2.9168688,66.145834,263.92561)"
       style="fill:#842435;fill-opacity:1;stroke-width:0.120944">
      <path
         d="m 0,0 c 0,-6.263 -5.077,-11.339 -11.338,-11.339 -6.263,0 -11.339,5.076 -11.339,11.339 0,6.262 5.076,11.338 11.339,11.338 C -5.077,11.338 0,6.262 0,0"
         style="fill:#842435;fill-opacity:1;fill-rule:nonzero;stroke:none;stroke-width:0.120944"
         id="path1095"
         inkscape:connector-curvature="0" />
    </g>
    <g
       id="g1097"
       transform="matrix(2.9168688,0,0,-2.9168688,51.199794,247.17116)"
       style="stroke-width:0.120944">
      <path
         d="M 0,0 C -0.064,0.106 -0.186,0.15 -0.308,0.121 -0.42,0.094 -2.86,-0.642 -3.326,-0.795 c -0.03,-0.011 -0.064,-0.023 -0.076,-0.027 -0.014,-0.006 -0.046,-0.019 -0.076,-0.031 -0.33,-0.14 -1.501,-0.707 -2.17,-1.071 0.456,-0.158 0.75,-0.478 1.146,-1.117 0.57,0.462 1.343,1.102 1.565,1.307 0.586,0.257 2.719,1.284 2.847,1.357 C 0.037,-0.305 0.08,-0.129 0,0"
         style="fill:#ffffff;fill-opacity:1;fill-rule:nonzero;stroke:none;stroke-width:0.120944"
         id="path1099"
         inkscape:connector-curvature="0" />
    </g>
    <g
       id="g1101"
       transform="matrix(2.9168688,0,0,-2.9168688,39.132704,238.21925)"
       style="stroke-width:0.120944">
      <path
         d="M 0,0 0.138,0.021 1.359,-0.159 1.174,1.031 0.065,0.486 -0.073,0.465 C -0.201,0.445 -0.289,0.325 -0.269,0.196 -0.248,0.068 -0.128,-0.019 0,0"
         style="fill:#ffffff;fill-opacity:1;fill-rule:nonzero;stroke:none;stroke-width:0.120944"
         id="path1103"
         inkscape:connector-curvature="0" />
    </g>
    <g
       id="g1105"
       transform="matrix(2.9168688,0,0,-2.9168688,22.882831,240.54983)"
       style="stroke-width:0.120944">
      <path
         d="M 0,0 C 0.017,0.506 0.312,0.832 0.486,0.982 0.691,1.158 0.906,1.214 1.127,1.148 1.348,1.082 1.498,0.918 1.572,0.658 1.636,0.438 1.704,0.003 1.443,-0.43 1.178,-0.866 0.776,-0.823 0.559,-0.759 0.343,-0.694 -0.018,-0.51 0,0 m 0.115,-8.65 c 0.117,0 0.227,0.037 0.317,0.099 0.154,0.077 1.399,1.041 2.122,1.57 0.192,0.14 0.318,0.249 0.47,0.399 0.156,0.152 0.28,0.392 0.277,0.65 -0.003,0.506 -0.417,0.914 -0.923,0.91 C 2.205,-5.023 2.044,-5.074 1.907,-5.158 1.872,-5.179 1.784,-5.243 1.709,-5.321 1.453,-5.586 0.867,-6.282 0.389,-6.857 c -0.242,0.937 -0.562,2.143 -0.627,2.351 0,0 -0.014,0.046 -0.028,0.071 l 0.226,0.76 -0.014,0.236 0.686,2.301 C 0.92,-1.181 1.416,-1.159 1.747,-0.614 2.079,-0.065 1.994,0.481 1.914,0.757 1.805,1.134 1.568,1.388 1.228,1.489 0.889,1.59 0.552,1.508 0.254,1.251 0.036,1.064 -0.333,0.654 -0.356,0.012 -0.378,-0.625 0.026,-0.914 0.291,-1.036 l -0.686,-2.302 -0.141,-0.19 -0.291,-0.978 c -0.009,-0.035 -0.009,-0.08 -0.009,-0.08 -0.01,-0.373 0.28,-3.196 0.402,-3.641 0.07,-0.254 0.286,-0.423 0.549,-0.423"
         style="fill:#ffffff;fill-opacity:1;fill-rule:nonzero;stroke:none;stroke-width:0.120944"
         id="path1107"
         inkscape:connector-curvature="0" />
    </g>
    <g
       id="g1109"
       transform="matrix(2.9168688,0,0,-2.9168688,27.552728,250.07639)"
       style="stroke-width:0.120944">
      <path
         d="m 0,0 c 0,-0.611 0.495,-1.106 1.106,-1.106 0.611,0 1.107,0.495 1.107,1.106 0,0.612 -0.496,1.107 -1.107,1.107 C 0.495,1.107 0,0.612 0,0"
         style="fill:#ffffff;fill-opacity:1;fill-rule:nonzero;stroke:none;stroke-width:0.120944"
         id="path1111"
         inkscape:connector-curvature="0" />
    </g>
    <g
       id="g1113"
       transform="matrix(2.9168688,0,0,-2.9168688,36.985879,277.66114)"
       style="stroke-width:0.120944">
      <path
         d="M 0,0 C 0.096,0.444 0.194,0.92 0.279,1.357 0.579,1.161 0.891,0.961 1.176,0.781 0.816,0.545 0.401,0.269 0,0 m 0.065,3.79 c -0.066,0.047 -0.178,0.117 -0.313,0.16 -0.106,0.035 -0.219,0.053 -0.336,0.053 -0.554,0 -1.011,-0.406 -1.093,-0.936 -0.091,-0.527 -0.169,-2.982 -0.175,-4.03 -1.011,-0.775 -3.296,-2.667 -3.662,-3.02 -0.074,-0.07 -0.122,-0.168 -0.124,-0.279 -0.004,-0.218 0.17,-0.398 0.387,-0.402 0.063,-0.001 0.123,0.013 0.176,0.038 0.38,0.194 4.269,2.532 4.471,2.727 0.104,0.096 0.18,0.208 0.223,0.341 0.015,0.046 0.031,0.101 0.049,0.164 1.201,0.578 3.064,1.503 3.219,1.635 C 3.03,0.349 3.138,0.506 3.166,0.697 3.199,0.919 3.121,1.131 2.976,1.279 2.549,1.724 0.654,3.379 0.065,3.79"
         style="fill:#ffffff;fill-opacity:1;fill-rule:nonzero;stroke:none;stroke-width:0.120944"
         id="path1115"
         inkscape:connector-curvature="0" />
    </g>
  </g>
</svg>
