<?xml version="1.0" encoding="UTF-8" standalone="no"?>
<!-- Created with Inkscape (http://www.inkscape.org/) -->

<svg
   xmlns:dc="http://purl.org/dc/elements/1.1/"
   xmlns:cc="http://creativecommons.org/ns#"
   xmlns:rdf="http://www.w3.org/1999/02/22-rdf-syntax-ns#"
   xmlns:svg="http://www.w3.org/2000/svg"
   xmlns="http://www.w3.org/2000/svg"
   xmlns:sodipodi="http://sodipodi.sourceforge.net/DTD/sodipodi-0.dtd"
   xmlns:inkscape="http://www.inkscape.org/namespaces/inkscape"
   width="250"
   height="250"
   viewBox="0 0 66.145832 66.145835"
   version="1.1"
   id="svg1422"
   inkscape:version="0.92.4 (5da689c313, 2019-01-14)"
   sodipodi:docname="baseball.svg">
  <defs
     id="defs1416" />
  <sodipodi:namedview
     id="base"
     pagecolor="#ffffff"
     bordercolor="#666666"
     borderopacity="1.0"
     inkscape:pageopacity="0.0"
     inkscape:pageshadow="2"
     inkscape:zoom="1.3753271"
     inkscape:cx="210.74547"
     inkscape:cy="90.319116"
     inkscape:document-units="mm"
     inkscape:current-layer="layer1"
     showgrid="false"
     units="px"
     inkscape:pagecheckerboard="true"
     inkscape:window-width="1366"
     inkscape:window-height="705"
     inkscape:window-x="-8"
     inkscape:window-y="-8"
     inkscape:window-maximized="1"
     showguides="false" />
  <metadata
     id="metadata1419">
    <rdf:RDF>
      <cc:Work
         rdf:about="">
        <dc:format>image/svg+xml</dc:format>
        <dc:type
           rdf:resource="http://purl.org/dc/dcmitype/StillImage" />
        <dc:title></dc:title>
      </cc:Work>
    </rdf:RDF>
  </metadata>
  <g
     inkscape:label="Layer 1"
     inkscape:groupmode="layer"
     id="layer1"
     transform="translate(0,-230.85415)">
    <g
       id="g1081"
       transform="matrix(2.9168688,0,0,-2.9168688,66.145834,263.92561)"
       style="fill:#2c4c98;fill-opacity:1;stroke-width:0.120944">
      <path
         d="m 0,0 c 0,-6.263 -5.077,-11.339 -11.338,-11.339 -6.263,0 -11.339,5.076 -11.339,11.339 0,6.262 5.076,11.338 11.339,11.338 C -5.077,11.338 0,6.262 0,0"
         style="fill:#2c4c98;fill-opacity:1;fill-rule:nonzero;stroke:none;stroke-width:0.120944"
         id="path1083"
         inkscape:connector-curvature="0" />
    </g>
    <g
       id="g1085"
       transform="matrix(2.9168688,0,0,-2.9168688,33.243554,269.24022)"
       style="stroke-width:0.120944">
      <path
         d="m 0,0 c 0.208,-0.187 0.483,-0.302 0.784,-0.302 0.65,0 1.172,0.398 1.172,1.234 L 4.556,0.955 4.541,1.299 3.644,1.566 C 3.643,1.615 3.642,1.666 3.638,1.714 3.545,2.961 2.505,3.942 1.235,3.942 c -1.331,0 -2.41,-1.079 -2.41,-2.409 0,-0.21 0.027,-0.413 0.077,-0.607"
         style="fill:#ffffff;fill-opacity:1;fill-rule:nonzero;stroke:none;stroke-width:0.120944"
         id="path1087"
         inkscape:connector-curvature="0" />
    </g>
    <g
       id="g1089"
       transform="matrix(2.9168688,0,0,-2.9168688,45.226064,282.79195)"
       style="stroke-width:0.120944">
      <path
         d="M 0,0 C 0.711,0 1.326,0.535 1.409,1.26 1.498,2.039 0.938,2.743 0.159,2.832 0.086,2.84 0.027,2.844 -0.057,2.84 -0.477,2.823 -2.661,2.576 -3.899,2.332 c -1.156,1.023 -3.867,3.216 -4.57,3.73 l 7.352,7.121 c 0.367,0.361 0.372,0.951 0.011,1.317 -0.383,0.344 -0.972,0.31 -1.315,-0.073 L -9.153,6.739 C -9.442,6.846 -9.771,6.724 -9.917,6.445 -9.95,6.38 -9.971,6.311 -9.98,6.242 l -0.607,-4.587 c -0.075,-0.532 0.331,-1.007 0.969,-1.007 0.007,0 3.65,0 3.65,0 L -8.047,2.965 C -8.233,2.929 -8.418,2.893 -8.6,2.857 -8.605,3.339 -8.621,3.849 -8.646,4.38 l 3.6,-4.011 C -4.853,0.156 -4.434,0.007 -4.066,0.007 -3.725,0.007 0,0 0,0"
         style="fill:#ffffff;fill-opacity:1;fill-rule:nonzero;stroke:none;stroke-width:0.120944"
         id="path1091"
         inkscape:connector-curvature="0" />
    </g>
  </g>
</svg>
