<?xml version="1.0" encoding="UTF-8" standalone="no"?>
<!-- Created with Inkscape (http://www.inkscape.org/) -->

<svg
   xmlns:dc="http://purl.org/dc/elements/1.1/"
   xmlns:cc="http://creativecommons.org/ns#"
   xmlns:rdf="http://www.w3.org/1999/02/22-rdf-syntax-ns#"
   xmlns:svg="http://www.w3.org/2000/svg"
   xmlns="http://www.w3.org/2000/svg"
   xmlns:sodipodi="http://sodipodi.sourceforge.net/DTD/sodipodi-0.dtd"
   xmlns:inkscape="http://www.inkscape.org/namespaces/inkscape"
   width="250"
   height="250"
   viewBox="0 0 66.145832 66.145835"
   version="1.1"
   id="svg1422"
   inkscape:version="0.92.4 (5da689c313, 2019-01-14)"
   sodipodi:docname="bask.svg">
  <defs
     id="defs1416" />
  <sodipodi:namedview
     id="base"
     pagecolor="#ffffff"
     bordercolor="#666666"
     borderopacity="1.0"
     inkscape:pageopacity="0.0"
     inkscape:pageshadow="2"
     inkscape:zoom="1.1078927"
     inkscape:cx="157.3805"
     inkscape:cy="134.48388"
     inkscape:document-units="mm"
     inkscape:current-layer="layer1"
     showgrid="false"
     units="px"
     inkscape:pagecheckerboard="true"
     inkscape:window-width="1366"
     inkscape:window-height="705"
     inkscape:window-x="-8"
     inkscape:window-y="-8"
     inkscape:window-maximized="1" />
  <metadata
     id="metadata1419">
    <rdf:RDF>
      <cc:Work
         rdf:about="">
        <dc:format>image/svg+xml</dc:format>
        <dc:type
           rdf:resource="http://purl.org/dc/dcmitype/StillImage" />
        <dc:title></dc:title>
      </cc:Work>
    </rdf:RDF>
  </metadata>
  <g
     inkscape:label="Layer 1"
     inkscape:groupmode="layer"
     id="layer1"
     transform="translate(0,-230.85415)">
    <g
       id="g1825"
       transform="matrix(2.9168688,0,0,-2.9168688,66.145834,263.92561)"
       style="fill:#842435;fill-opacity:1;stroke-width:0.120944">
      <path
         d="m 0,0 c 0,-6.263 -5.077,-11.339 -11.339,-11.339 -6.262,0 -11.338,5.076 -11.338,11.339 0,6.262 5.076,11.338 11.338,11.338 C -5.077,11.338 0,6.262 0,0"
         style="fill:#842435;fill-opacity:1;fill-rule:nonzero;stroke:none;stroke-width:0.120944"
         id="path1827"
         inkscape:connector-curvature="0" />
    </g>
    <g
       id="g1829"
       transform="matrix(2.9168688,0,0,-2.9168688,36.586284,265.22952)"
       style="stroke-width:0.120944">
      <path
         d="m 0,0 c -0.187,0.282 -0.507,0.467 -0.871,0.468 -0.546,10e-4 -0.994,-0.415 -1.044,-0.948 -0.003,-0.032 -0.006,-0.065 -0.006,-0.098 -0.005,-0.272 0.296,-4.156 0.317,-4.317 0.009,-0.077 0.03,-0.154 0.064,-0.228 0.084,-0.179 0.23,-0.309 0.402,-0.375 0.731,-0.289 4.4,-1.655 4.919,-1.825 0.022,-0.007 0.063,-0.018 0.063,-0.018 0.08,-0.016 0.165,-0.009 0.244,0.028 0.198,0.093 0.283,0.327 0.191,0.526 -0.031,0.067 -0.08,0.121 -0.138,0.159 -0.087,0.061 -3.065,1.632 -4.257,2.253 0.018,0.393 0.041,0.945 0.062,1.509 C 0.378,-3.497 0.757,-4.04 0.792,-4.08 0.8,-4.09 0.807,-4.1 0.816,-4.109 c 0.116,-0.125 0.27,-0.195 0.427,-0.207 0.397,-0.041 4.2,-0.164 4.376,-0.154 0.079,0.004 0.156,0.034 0.219,0.092 0.143,0.131 0.152,0.353 0.02,0.496 C 5.812,-3.833 5.755,-3.8 5.694,-3.783 5.611,-3.757 2.758,-3.249 1.719,-3.076 1.261,-2.208 0.146,-0.205 0,0"
         style="fill:#ffffff;fill-opacity:1;fill-rule:nonzero;stroke:none;stroke-width:0.120944"
         id="path1831"
         inkscape:connector-curvature="0" />
    </g>
    <g
       id="g1833"
       transform="matrix(2.9168688,0,0,-2.9168688,44.167224,251.80025)"
       style="stroke-width:0.120944">
      <path
         d="M 0,0 C 0.266,0.486 1.045,2.682 1.098,2.934 1.103,2.955 1.106,2.977 1.106,3 1.106,3.151 0.991,3.274 0.844,3.29 0.84,3.955 0.299,4.494 -0.368,4.494 c -0.67,0 -1.213,-0.543 -1.213,-1.213 0,-0.67 0.543,-1.213 1.213,-1.213 0.121,0 0.238,0.018 0.349,0.052 C -0.046,2.073 -0.071,2.025 -0.098,1.977 -0.242,1.711 -0.583,1.063 -0.778,0.67 -1.059,0.606 -2.436,0.254 -2.738,0.17 c 0.153,-0.32 0.279,-0.873 0.184,-1.583 0.708,0.301 2.127,1.064 2.388,1.233 C -0.098,-0.135 -0.039,-0.072 0,0"
         style="fill:#ffffff;fill-opacity:1;fill-rule:nonzero;stroke:none;stroke-width:0.120944"
         id="path1835"
         inkscape:connector-curvature="0" />
    </g>
    <g
       id="g1837"
       transform="matrix(2.9168688,0,0,-2.9168688,32.951874,250.65393)"
       style="stroke-width:0.120944">
      <path
         d="M 0,0 C 0.614,0 1.111,0.498 1.111,1.111 1.111,1.725 0.614,2.223 0,2.223 -0.613,2.223 -1.111,1.725 -1.111,1.111 -1.111,0.498 -0.613,0 0,0"
         style="fill:#ffffff;fill-opacity:1;fill-rule:nonzero;stroke:none;stroke-width:0.120944"
         id="path1839"
         inkscape:connector-curvature="0" />
    </g>
    <g
       id="g1841"
       transform="matrix(2.9168688,0,0,-2.9168688,18.492946,268.86972)"
       style="stroke-width:0.120944">
      <path
         d="m 0,0 c 0.366,0.151 3.005,1.442 3.239,1.581 0.067,0.037 0.126,0.087 0.173,0.147 0.182,0.213 1.581,2.41 1.681,2.662 0.04,0.102 0.063,0.212 0.063,0.329 0,0.487 -0.395,0.882 -0.883,0.882 C 3.936,5.601 3.643,5.413 3.494,5.135 3.375,4.941 2.726,3.145 2.501,2.446 1.767,2.009 -0.215,0.744 -0.364,0.577 -0.425,0.513 -0.463,0.427 -0.463,0.332 c 0,-0.195 0.157,-0.352 0.352,-0.352 0.039,0 0.075,0.008 0.111,0.02"
         style="fill:#ffffff;fill-opacity:1;fill-rule:nonzero;stroke:none;stroke-width:0.120944"
         id="path1843"
         inkscape:connector-curvature="0" />
    </g>
    <g
       id="g1845"
       transform="matrix(2.9168688,0,0,-2.9168688,11.288281,249.38797)"
       style="stroke-width:0.120944">
      <path
         d="M 0,0 C 0.016,0 0.033,0.002 0.05,0.008 0.135,0.035 0.181,0.126 0.154,0.211 L -0.601,2.57 C -0.12,2.371 0.601,2.306 1.108,2.306 c 0.505,0 1.227,0.065 1.708,0.264 L 2.06,0.211 C 2.033,0.126 2.08,0.035 2.165,0.008 2.181,0.002 2.198,0 2.214,0 c 0.069,0 0.132,0.044 0.154,0.113 0,0 0.956,2.589 0.956,3.007 0,0.642 -1.393,0.814 -2.216,0.814 C 0.904,3.934 0.664,3.923 0.421,3.898 0.264,3.773 0.109,3.643 -0.041,3.51 c 0.315,0.067 0.715,0.104 1.149,0.104 0.995,0 1.82,-0.196 1.82,-0.494 0,-0.297 -0.825,-0.494 -1.82,-0.494 -0.801,0 -1.491,0.128 -1.731,0.332 C -0.748,2.831 -0.869,2.701 -0.988,2.568 -0.731,1.674 -0.153,0.113 -0.153,0.113 -0.132,0.044 -0.068,0 0,0"
         style="fill:#ffffff;fill-opacity:1;fill-rule:nonzero;stroke:none;stroke-width:0.120944"
         id="path1847"
         inkscape:connector-curvature="0" />
    </g>
  </g>
</svg>
