<?xml version="1.0" encoding="UTF-8" standalone="no"?>
<svg
   xmlns:dc="http://purl.org/dc/elements/1.1/"
   xmlns:cc="http://creativecommons.org/ns#"
   xmlns:rdf="http://www.w3.org/1999/02/22-rdf-syntax-ns#"
   xmlns:svg="http://www.w3.org/2000/svg"
   xmlns="http://www.w3.org/2000/svg"
   id="svg1422"
   version="1.1"
   viewBox="0 0 66.145832 66.145835"
   height="250"
   width="250">
  <defs
     id="defs1416" />
  <metadata
     id="metadata1419">
    <rdf:RDF>
      <cc:Work
         rdf:about="">
        <dc:format>image/svg+xml</dc:format>
        <dc:type
           rdf:resource="http://purl.org/dc/dcmitype/StillImage" />
        <dc:title></dc:title>
      </cc:Work>
    </rdf:RDF>
  </metadata>
  <g
     transform="translate(0,-230.85415)"
     id="layer1">
    <g
       style="fill:#883381;fill-opacity:1;stroke-width:0.120944"
       transform="matrix(2.9168688,0,0,-2.9168688,66.145834,263.92561)"
       id="g993">
      <path
         id="path995"
         style="fill:#883381;fill-opacity:1;fill-rule:nonzero;stroke:none;stroke-width:0.120944"
         d="m 0,0 c 0,-6.263 -5.077,-11.339 -11.339,-11.339 -6.262,0 -11.338,5.076 -11.338,11.339 0,6.262 5.076,11.338 11.338,11.338 C -5.077,11.338 0,6.262 0,0" />
    </g>
    <g
       style="stroke-width:0.120944"
       transform="matrix(2.9168688,0,0,-2.9168688,36.329554,266.50705)"
       id="g997">
      <path
         id="path999"
         style="fill:#ffffff;fill-opacity:1;fill-rule:nonzero;stroke:none;stroke-width:0.120944"
         d="m 0,0 c -0.171,0.258 -0.464,0.428 -0.797,0.429 -0.499,0 -0.909,-0.381 -0.955,-0.868 -0.004,-0.03 -0.005,-0.059 -0.005,-0.09 -0.005,-0.248 0.27,-3.804 0.289,-3.951 0.008,-0.07 0.028,-0.141 0.059,-0.209 0.077,-0.164 0.211,-0.282 0.367,-0.343 0.67,-0.265 4.028,-1.514 4.502,-1.67 0.021,-0.007 0.058,-0.016 0.058,-0.016 0.074,-0.015 0.151,-0.008 0.224,0.025 0.181,0.085 0.259,0.3 0.175,0.481 -0.029,0.062 -0.073,0.111 -0.126,0.147 -0.08,0.055 -2.806,1.493 -3.897,2.06 0.017,0.361 0.038,0.865 0.057,1.382 0.396,-0.577 0.741,-1.074 0.774,-1.11 0.007,-0.01 0.015,-0.019 0.023,-0.028 0.105,-0.115 0.246,-0.178 0.391,-0.189 0.362,-0.038 3.843,-0.15 4.004,-0.14 0.072,0.004 0.143,0.03 0.2,0.083 0.131,0.12 0.139,0.323 0.019,0.454 C 5.32,-3.507 5.268,-3.477 5.212,-3.462 5.136,-3.438 2.525,-2.973 1.574,-2.815 1.154,-2.021 0.135,-0.187 0,0" />
    </g>
    <g
       style="stroke-width:0.120944"
       transform="matrix(2.9168688,0,0,-2.9168688,43.268804,254.21542)"
       id="g1001">
      <path
         id="path1003"
         style="fill:#ffffff;fill-opacity:1;fill-rule:nonzero;stroke:none;stroke-width:0.120944"
         d="m 0,0 c 0.243,0.445 0.956,2.453 1.005,2.685 0.005,0.019 0.008,0.04 0.008,0.06 0,0.139 -0.106,0.252 -0.24,0.265 -0.004,0.61 -0.499,1.103 -1.11,1.103 -0.612,0 -1.11,-0.497 -1.11,-1.11 0,-0.614 0.498,-1.11 1.11,-1.11 0.112,0 0.218,0.016 0.32,0.047 C -0.041,1.897 -0.065,1.853 -0.089,1.809 -0.222,1.566 -0.533,0.973 -0.712,0.613 -0.969,0.555 -2.229,0.233 -2.506,0.155 c 0.14,-0.293 0.256,-0.798 0.169,-1.448 0.648,0.275 1.946,0.974 2.185,1.128 C -0.089,-0.123 -0.036,-0.067 0,0" />
    </g>
    <g
       style="stroke-width:0.120944"
       transform="matrix(2.9168688,0,0,-2.9168688,33.004384,253.16534)"
       id="g1005">
      <path
         id="path1007"
         style="fill:#ffffff;fill-opacity:1;fill-rule:nonzero;stroke:none;stroke-width:0.120944"
         d="M 0,0 C 0.562,0 1.017,0.455 1.017,1.016 1.017,1.578 0.562,2.034 0,2.034 -0.561,2.034 -1.016,1.578 -1.016,1.016 -1.016,0.455 -0.561,0 0,0" />
    </g>
    <g
       style="stroke-width:0.120944"
       transform="matrix(2.9168688,0,0,-2.9168688,19.770484,269.8381)"
       id="g1009">
      <path
         id="path1011"
         style="fill:#ffffff;fill-opacity:1;fill-rule:nonzero;stroke:none;stroke-width:0.120944"
         d="M 0,0 C 0.335,0.138 2.75,1.32 2.964,1.448 3.026,1.481 3.08,1.527 3.123,1.581 3.29,1.777 4.571,3.788 4.661,4.018 4.698,4.111 4.719,4.213 4.719,4.319 4.719,4.765 4.357,5.127 3.911,5.127 3.603,5.127 3.335,4.953 3.198,4.7 3.09,4.522 2.495,2.877 2.29,2.238 1.617,1.838 -0.197,0.681 -0.332,0.528 -0.389,0.469 -0.424,0.391 -0.424,0.304 c 0,-0.179 0.144,-0.323 0.322,-0.323 0.036,0 0.07,0.008 0.102,0.019" />
    </g>
    <g
       style="stroke-width:0.120944"
       transform="matrix(2.9168688,0,0,-2.9168688,16.133184,244.9952)"
       id="g1013">
      <path
         id="path1015"
         style="fill:#ffffff;fill-opacity:1;fill-rule:nonzero;stroke:none;stroke-width:0.120944"
         d="m 0,0 c -0.911,0 -1.666,0.18 -1.666,0.452 0,0.272 0.755,0.452 1.666,0.452 0.911,0 1.667,-0.18 1.667,-0.452 C 1.667,0.18 0.911,0 0,0 m 1.564,-0.052 -0.692,-2.16 c -0.024,-0.077 0.019,-0.16 0.096,-0.185 0.016,-0.005 0.031,-0.007 0.045,-0.007 0.063,0 0.121,0.04 0.141,0.103 0,0 0.876,2.37 0.876,2.753 0,0.588 -1.276,0.744 -2.03,0.744 -0.753,0 -2.029,-0.156 -2.029,-0.744 0,-0.383 0.876,-2.753 0.876,-2.753 0.02,-0.063 0.077,-0.103 0.141,-0.103 0.014,0 0.029,0.002 0.044,0.007 0.078,0.025 0.121,0.108 0.096,0.185 l -0.691,2.16 c 0.44,-0.182 1.1,-0.241 1.563,-0.241 0.464,0 1.124,0.059 1.564,0.241" />
    </g>
    <g
       style="stroke-width:0.120944"
       transform="matrix(2.9168688,0,0,-2.9168688,44.785534,268.70642)"
       id="g1017">
      <path
         id="path1019"
         style="fill:#ffffff;fill-opacity:1;fill-rule:nonzero;stroke:none;stroke-width:0.120944"
         d="M 0,0 H 1.063 L 1.951,0.795 1.395,1.657 0.5,0.856 H 0.2" />
    </g>
    <g
       style="stroke-width:0.120944"
       transform="matrix(2.9168688,0,0,-2.9168688,57.074364,260.47501)"
       id="g1021">
      <path
         id="path1023"
         style="fill:#ffffff;fill-opacity:1;fill-rule:nonzero;stroke:none;stroke-width:0.120944"
         d="M 0,0 H 0.347 L 0.548,0.855 H -0.563 L -1.455,0.062 -0.899,-0.799" />
    </g>
    <g
       style="stroke-width:0.120944"
       transform="matrix(2.9168688,0,0,-2.9168688,50.415164,257.95194)"
       id="g1025">
      <path
         id="path1027"
         style="fill:#ffffff;fill-opacity:1;fill-rule:nonzero;stroke:none;stroke-width:0.120944"
         d="m 0,0 h -1.112 l -0.204,-0.865 h 0.342 l 1.827,-2.832 h 1.111 l 0.204,0.865 H 1.827" />
    </g>
    <g
       style="stroke-width:0.120944"
       transform="matrix(2.9168688,0,0,-2.9168688,40.946984,259.52407)"
       id="g1029">
      <path
         id="path1031"
         style="fill:#ffffff;fill-opacity:1;fill-rule:nonzero;stroke:none;stroke-width:0.120944"
         d="m 0,0 -0.202,-0.835 0.374,-0.448 -0.57,-0.459 -0.204,-0.871 0.448,-0.54 h 1.197 l 0.201,0.855 H 0.806 l 0.13,0.549 h 0.569 l 0.209,0.911 H 1.141 l 0.121,0.507 h 0.39 L 1.855,0.534 H 0.702" />
    </g>
    <g
       style="stroke-width:0.120944"
       transform="matrix(2.9168688,0,0,-2.9168688,64.279024,259.5416)"
       id="g1033">
      <path
         id="path1035"
         style="fill:#ffffff;fill-opacity:1;fill-rule:nonzero;stroke:none;stroke-width:0.120944"
         d="m 0,0 -0.449,0.54 h -1.197 l -0.201,-0.855 h 0.438 L -1.53,-0.813 h -0.569 l -0.21,-0.911 h 0.574 l -0.131,-0.557 h -0.445 l -0.203,-0.866 h 1.21 l 0.701,0.535 0.21,0.884 -0.374,0.449 0.571,0.458" />
    </g>
  </g>
</svg>
