<?xml version="1.0" encoding="UTF-8" standalone="no"?>
<!-- Created with Inkscape (http://www.inkscape.org/) -->

<svg
   xmlns:dc="http://purl.org/dc/elements/1.1/"
   xmlns:cc="http://creativecommons.org/ns#"
   xmlns:rdf="http://www.w3.org/1999/02/22-rdf-syntax-ns#"
   xmlns:svg="http://www.w3.org/2000/svg"
   xmlns="http://www.w3.org/2000/svg"
   xmlns:sodipodi="http://sodipodi.sourceforge.net/DTD/sodipodi-0.dtd"
   xmlns:inkscape="http://www.inkscape.org/namespaces/inkscape"
   width="250"
   height="250"
   viewBox="0 0 66.145832 66.145835"
   version="1.1"
   id="svg1422"
   inkscape:version="0.92.4 (5da689c313, 2019-01-14)"
   sodipodi:docname="box.svg">
  <defs
     id="defs1416" />
  <sodipodi:namedview
     id="base"
     pagecolor="#ffffff"
     bordercolor="#666666"
     borderopacity="1.0"
     inkscape:pageopacity="0.0"
     inkscape:pageshadow="2"
     inkscape:zoom="0.61445677"
     inkscape:cx="419.02507"
     inkscape:cy="171.54028"
     inkscape:document-units="mm"
     inkscape:current-layer="layer1"
     showgrid="false"
     units="px"
     inkscape:pagecheckerboard="true"
     inkscape:window-width="1366"
     inkscape:window-height="705"
     inkscape:window-x="-8"
     inkscape:window-y="-8"
     inkscape:window-maximized="1"
     showguides="false" />
  <metadata
     id="metadata1419">
    <rdf:RDF>
      <cc:Work
         rdf:about="">
        <dc:format>image/svg+xml</dc:format>
        <dc:type
           rdf:resource="http://purl.org/dc/dcmitype/StillImage" />
        <dc:title></dc:title>
      </cc:Work>
    </rdf:RDF>
  </metadata>
  <g
     inkscape:label="Layer 1"
     inkscape:groupmode="layer"
     id="layer1"
     transform="translate(0,-230.85415)">
    <g
       id="g1117"
       transform="matrix(2.9168688,0,0,-2.9168688,66.145834,263.92561)"
       style="fill:#842435;fill-opacity:1;stroke-width:0.120944">
      <path
         d="m 0,0 c 0,-6.263 -5.077,-11.339 -11.338,-11.339 -6.263,0 -11.339,5.076 -11.339,11.339 0,6.262 5.076,11.338 11.339,11.338 C -5.077,11.338 0,6.262 0,0"
         style="fill:#842435;fill-opacity:1;fill-rule:nonzero;stroke:none;stroke-width:0.120944"
         id="path1119"
         inkscape:connector-curvature="0" />
    </g>
    <g
       id="g1121"
       transform="matrix(2.9168688,0,0,-2.9168688,49.633404,260.21828)"
       style="stroke-width:0.120944">
      <path
         d="m 0,0 c -1.233,0.107 -5.325,0.384 -6.585,0.44 0.032,-0.585 0.035,-1.141 -0.167,-1.997 1.277,0.088 2.721,0.188 3.375,0.248 0.416,0.018 2.793,0.123 3.913,0.207 0.095,-0.471 0.358,-0.854 1.016,-0.985 0.897,-0.18 1.491,0.13 1.633,0.696 0.106,0.423 0.116,0.766 -0.062,1.061 C 2.962,-0.064 2.645,0.099 2.223,0.173 1.637,0.275 0.71,0.09 0,0"
         style="fill:#ffffff;fill-opacity:1;fill-rule:nonzero;stroke:none;stroke-width:0.120944"
         id="path1123"
         inkscape:connector-curvature="0" />
    </g>
    <g
       id="g1125"
       transform="matrix(2.9168688,0,0,-2.9168688,26.257624,261.61843)"
       style="stroke-width:0.120944">
      <path
         d="M 0,0 C -0.29,0.242 -0.681,0.505 -1.042,0.461 -1.358,0.423 -1.554,0.213 -1.716,0.036 c -0.44,-0.477 -0.446,-1.229 -0.446,-1.3 -0.389,-0.359 -0.89,-0.867 -1.353,-1.299 0.417,1.08 0.796,2.354 0.83,2.66 0.011,0.082 0.014,0.166 0.007,0.252 -0.05,0.709 -0.621,1.221 -1.331,1.17 -0.18,-0.013 -0.349,-0.062 -0.499,-0.14 -0.31,-0.161 -0.534,-0.455 -0.62,-0.778 -0.086,-0.323 -0.079,-0.961 -0.068,-1.592 0.022,-1.309 0.08,-3.069 0.154,-3.521 0.072,-0.451 0.456,-0.746 0.928,-0.721 0.253,0.014 0.474,0.128 0.634,0.305 0.166,0.182 1.891,2.358 2.264,2.884 0,0 0.501,0.024 0.794,0.182 0.165,0.09 0.557,0.339 0.727,0.65 C 0.57,-0.728 0.366,-0.306 0,0"
         style="fill:#ffffff;fill-opacity:1;fill-rule:nonzero;stroke:none;stroke-width:0.120944"
         id="path1127"
         inkscape:connector-curvature="0" />
    </g>
    <g
       id="g1129"
       transform="matrix(2.9168688,0,0,-2.9168688,25.012084,248.30582)"
       style="stroke-width:0.120944">
      <path
         d="m 0,0 c -0.956,0 -1.73,-0.776 -1.73,-1.731 0,-0.956 0.774,-1.731 1.73,-1.731 0.956,0 1.73,0.775 1.73,1.731 C 1.73,-0.776 0.956,0 0,0"
         style="fill:#ffffff;fill-opacity:1;fill-rule:nonzero;stroke:none;stroke-width:0.120944"
         id="path1131"
         inkscape:connector-curvature="0" />
    </g>
  </g>
</svg>
