<?xml version="1.0" encoding="UTF-8" standalone="no"?>
<!-- Created with Inkscape (http://www.inkscape.org/) -->

<svg
   xmlns:dc="http://purl.org/dc/elements/1.1/"
   xmlns:cc="http://creativecommons.org/ns#"
   xmlns:rdf="http://www.w3.org/1999/02/22-rdf-syntax-ns#"
   xmlns:svg="http://www.w3.org/2000/svg"
   xmlns="http://www.w3.org/2000/svg"
   xmlns:sodipodi="http://sodipodi.sourceforge.net/DTD/sodipodi-0.dtd"
   xmlns:inkscape="http://www.inkscape.org/namespaces/inkscape"
   width="250"
   height="250"
   viewBox="0 0 66.145832 66.145835"
   version="1.1"
   id="svg1422"
   inkscape:version="0.92.4 (5da689c313, 2019-01-14)"
   sodipodi:docname="canoe sprint.svg">
  <defs
     id="defs1416" />
  <sodipodi:namedview
     id="base"
     pagecolor="#ffffff"
     bordercolor="#666666"
     borderopacity="1.0"
     inkscape:pageopacity="0.0"
     inkscape:pageshadow="2"
     inkscape:zoom="1.5667969"
     inkscape:cx="134.33095"
     inkscape:cy="100.04667"
     inkscape:document-units="mm"
     inkscape:current-layer="layer1"
     showgrid="false"
     units="px"
     inkscape:pagecheckerboard="true"
     inkscape:window-width="1366"
     inkscape:window-height="705"
     inkscape:window-x="-8"
     inkscape:window-y="-8"
     inkscape:window-maximized="1" />
  <metadata
     id="metadata1419">
    <rdf:RDF>
      <cc:Work
         rdf:about="">
        <dc:format>image/svg+xml</dc:format>
        <dc:type
           rdf:resource="http://purl.org/dc/dcmitype/StillImage" />
        <dc:title></dc:title>
      </cc:Work>
    </rdf:RDF>
  </metadata>
  <g
     inkscape:label="Layer 1"
     inkscape:groupmode="layer"
     id="layer1"
     transform="translate(0,-230.85415)">
    <g
       id="g1153"
       transform="matrix(2.9169974,0,0,-2.9168688,66.145833,263.92561)"
       style="fill:#2e755c;fill-opacity:1;stroke-width:0.12094133">
      <path
         d="m 0,0 c 0,-6.263 -5.076,-11.339 -11.338,-11.339 -6.262,0 -11.338,5.076 -11.338,11.339 0,6.262 5.076,11.338 11.338,11.338 C -5.076,11.338 0,6.262 0,0"
         style="fill:#2e755c;fill-opacity:1;fill-rule:nonzero;stroke:none;stroke-width:0.12094133"
         id="path1155"
         inkscape:connector-curvature="0" />
    </g>
    <g
       id="g1157"
       transform="matrix(2.9168688,0,0,-2.9168688,22.500714,274.80263)"
       style="stroke-width:0.120944">
      <path
         d="M 0,0 C 0.433,0.478 0.997,1.113 1.365,1.539 1.814,1.656 3.126,2.072 3.929,2.34 4.12,1.65 4.425,0.597 4.612,0 Z M 3.444,5.732 C 3.363,5.509 3.27,5.29 3.173,5.081 3.788,4.959 5.022,4.753 5.061,4.748 5.096,4.743 5.113,4.741 5.136,4.74 5.157,4.738 5.182,4.736 5.201,4.736 c 0.027,0 2.466,0.012 2.596,0.033 0,0 1.405,-2.268 1.432,-2.311 0.06,-0.096 0.039,-0.537 0.19,-0.782 L 10.461,0 H 5.377 C 5.282,0.853 5.016,2.909 4.917,3.276 4.849,3.521 4.623,3.705 4.365,3.712 4.331,3.713 4.269,3.71 4.242,3.708 4.112,3.7 3.205,3.634 2.564,3.568 1.917,3.502 1.031,3.4 0.881,3.365 0.773,3.34 0.639,3.284 0.549,3.224 0.467,3.169 0.385,3.097 0.295,2.98 0.193,2.848 -1.32,0.316 -1.472,0 h -4.695 c 0.126,-0.96 0.945,-1.7 1.938,-1.7 0.503,0 0.962,0.191 1.309,0.504 0.346,-0.313 0.805,-0.504 1.309,-0.504 0.504,0 0.963,0.191 1.309,0.504 0.347,-0.313 0.806,-0.504 1.309,-0.504 0.504,0 0.963,0.191 1.31,0.504 0.346,-0.313 0.805,-0.504 1.308,-0.504 0.504,0 0.963,0.191 1.309,0.504 0.347,-0.313 0.806,-0.504 1.31,-0.504 0.503,0 0.962,0.191 1.309,0.504 0.346,-0.313 0.805,-0.504 1.308,-0.504 0.503,0 0.961,0.19 1.308,0.502 0.346,-0.312 0.804,-0.502 1.307,-0.502 0.993,0 1.812,0.74 1.937,1.7 H 11.494 L 10.165,2.138 C 10.013,2.382 9.609,2.56 9.549,2.656 9.516,2.71 3.694,12.099 3.694,12.099 3.65,12.167 3.577,12.214 3.489,12.219 3.401,12.224 3.321,12.185 3.267,12.115 3.213,12.044 2.458,10.796 1.753,9.612 1.154,8.607 0.586,7.634 0.536,7.516 0.489,7.408 0.458,7.287 0.464,7.159 0.482,6.742 0.836,6.419 1.253,6.437 c 0.3,0.013 0.568,0.215 0.66,0.458 0.105,0.276 0.548,1.881 0.64,2.345 0.173,0.329 0.774,1.669 1.042,2.308 L 7.477,5.284 C 6.877,5.36 5.687,5.484 5.28,5.509 4.961,5.683 4.081,6.112 3.589,6.326 3.565,6.171 3.518,5.937 3.444,5.732"
         style="fill:#ffffff;fill-opacity:1;fill-rule:nonzero;stroke:none;stroke-width:0.120944"
         id="path1159"
         inkscape:connector-curvature="0" />
    </g>
    <g
       id="g1161"
       transform="matrix(2.9168688,0,0,-2.9168688,33.118133,255.10211)"
       style="stroke-width:0.120944">
      <path
         d="M 0,0 C 0.527,0 0.954,0.428 0.954,0.955 0.954,1.482 0.527,1.91 0,1.91 -0.527,1.91 -0.954,1.482 -0.954,0.955 -0.954,0.428 -0.527,0 0,0"
         style="fill:#ffffff;fill-opacity:1;fill-rule:nonzero;stroke:none;stroke-width:0.120944"
         id="path1163"
         inkscape:connector-curvature="0" />
    </g>
  </g>
</svg>
