<?xml version="1.0" encoding="UTF-8" standalone="no"?>
<!-- Created with Inkscape (http://www.inkscape.org/) -->

<svg
   xmlns:dc="http://purl.org/dc/elements/1.1/"
   xmlns:cc="http://creativecommons.org/ns#"
   xmlns:rdf="http://www.w3.org/1999/02/22-rdf-syntax-ns#"
   xmlns:svg="http://www.w3.org/2000/svg"
   xmlns="http://www.w3.org/2000/svg"
   xmlns:sodipodi="http://sodipodi.sourceforge.net/DTD/sodipodi-0.dtd"
   xmlns:inkscape="http://www.inkscape.org/namespaces/inkscape"
   width="250"
   height="250"
   viewBox="0 0 66.145832 66.145835"
   version="1.1"
   id="svg1422"
   inkscape:version="0.92.4 (5da689c313, 2019-01-14)"
   sodipodi:docname="canoe slalom.svg">
  <defs
     id="defs1416" />
  <sodipodi:namedview
     id="base"
     pagecolor="#ffffff"
     bordercolor="#666666"
     borderopacity="1.0"
     inkscape:pageopacity="0.0"
     inkscape:pageshadow="2"
     inkscape:zoom="1.5667969"
     inkscape:cx="134.33095"
     inkscape:cy="100.04667"
     inkscape:document-units="mm"
     inkscape:current-layer="layer1"
     showgrid="false"
     units="px"
     inkscape:pagecheckerboard="true"
     inkscape:window-width="1366"
     inkscape:window-height="705"
     inkscape:window-x="-8"
     inkscape:window-y="-8"
     inkscape:window-maximized="1" />
  <metadata
     id="metadata1419">
    <rdf:RDF>
      <cc:Work
         rdf:about="">
        <dc:format>image/svg+xml</dc:format>
        <dc:type
           rdf:resource="http://purl.org/dc/dcmitype/StillImage" />
        <dc:title></dc:title>
      </cc:Work>
    </rdf:RDF>
  </metadata>
  <g
     inkscape:label="Layer 1"
     inkscape:groupmode="layer"
     id="layer1"
     transform="translate(0,-230.85415)">
    <g
       id="g1133"
       transform="matrix(2.9168688,0,0,-2.9168688,66.145834,263.92561)"
       style="fill:#2e755c;fill-opacity:1;stroke-width:0.120944">
      <path
         d="m 0,0 c 0,-6.263 -5.077,-11.339 -11.339,-11.339 -6.262,0 -11.338,5.076 -11.338,11.339 0,6.262 5.076,11.338 11.338,11.338 C -5.077,11.338 0,6.262 0,0"
         style="fill:#2e755c;fill-opacity:1;fill-rule:nonzero;stroke:none;stroke-width:0.120944"
         id="path1135"
         inkscape:connector-curvature="0" />
    </g>
    <g
       id="g1137"
       transform="matrix(2.9168688,0,0,-2.9168688,43.706371,261.03502)"
       style="stroke-width:0.120944">
      <path
         d="M 0,0 C 0.108,0 0.195,0.087 0.195,0.195 V 6.773 C 0.195,6.881 0.108,6.968 0,6.968 -0.108,6.968 -0.195,6.881 -0.195,6.773 V 0.195 C -0.195,0.087 -0.108,0 0,0"
         style="fill:#ffffff;fill-opacity:1;fill-rule:nonzero;stroke:none;stroke-width:0.120944"
         id="path1139"
         inkscape:connector-curvature="0" />
    </g>
    <g
       id="g1141"
       transform="matrix(2.9168688,0,0,-2.9168688,15.199805,271.47448)"
       style="stroke-width:0.120944">
      <path
         d="m 0,0 c 0,-0.108 0.088,-0.195 0.196,-0.195 0.108,0 0.195,0.087 0.195,0.195 V 6.794 C 0.391,6.902 0.304,6.99 0.196,6.99 0.088,6.99 0,6.902 0,6.794"
         style="fill:#ffffff;fill-opacity:1;fill-rule:nonzero;stroke:none;stroke-width:0.120944"
         id="path1143"
         inkscape:connector-curvature="0" />
    </g>
    <g
       id="g1145"
       transform="matrix(2.9168688,0,0,-2.9168688,32.333487,266.36418)"
       style="stroke-width:0.120944">
      <path
         d="M 0,0 C 0.576,0.16 0.915,0.756 0.756,1.334 0.596,1.911 -0.001,2.249 -0.579,2.089 -1.156,1.929 -1.494,1.332 -1.334,0.756 -1.175,0.178 -0.577,-0.16 0,0"
         style="fill:#ffffff;fill-opacity:1;fill-rule:nonzero;stroke:none;stroke-width:0.120944"
         id="path1147"
         inkscape:connector-curvature="0" />
    </g>
    <g
       id="g1149"
       transform="matrix(2.9168688,0,0,-2.9168688,25.315504,256.00633)"
       style="stroke-width:0.120944">
      <path
         d="m 0,0 c -0.023,-0.013 -0.046,-0.027 -0.067,-0.044 -0.081,-0.066 -0.116,-0.124 -0.155,-0.202 -0.088,-0.177 -0.966,-2.346 -0.997,-2.453 -0.05,-0.167 -0.059,-0.337 -0.012,-0.507 0.128,-0.461 0.606,-0.732 1.067,-0.604 0.325,0.09 0.563,0.365 0.617,0.664 0.055,0.299 0.22,1.796 0.288,2.388 0.512,0.337 1.656,1.127 1.969,1.353 L 6.219,-4.742 C 5.875,-4.855 4.609,-5.306 4.032,-5.517 3.534,-5.118 2.378,-4.192 2.173,-4.055 2.136,-4.225 2.077,-4.447 1.971,-4.798 1.899,-5.034 1.799,-5.291 1.69,-5.541 2.339,-5.845 3.625,-6.426 3.744,-6.47 c 0.076,-0.028 0.148,-0.047 0.23,-0.042 0.066,0.004 0.095,0.012 0.155,0.035 0.151,0.057 2.378,1.224 2.404,1.257 0,0 0.721,-1.097 0.831,-1.264 0.031,-0.048 0.057,-0.147 0.086,-0.274 L -5.151,-8.273 c 0.397,-0.533 1.032,-0.877 1.748,-0.877 0.56,0 1.072,0.212 1.459,0.561 0.386,-0.349 0.898,-0.561 1.459,-0.561 0.562,0 1.074,0.212 1.46,0.561 0.386,-0.349 0.898,-0.561 1.459,-0.561 0.562,0 1.074,0.212 1.46,0.561 0.387,-0.349 0.898,-0.561 1.459,-0.561 0.702,0 1.325,0.332 1.724,0.845 0.025,-0.011 0.051,-0.021 0.077,-0.032 0.519,-0.21 1.141,-0.288 1.682,-0.24 0.825,0.074 1.527,0.406 2.024,0.87 0.437,0.41 0.7,0.951 0.772,1.451 L 8.318,-6.654 C 8.022,-6.469 7.727,-6.324 7.665,-6.23 7.554,-6.062 2.248,2.01 2.138,2.178 2.029,2.344 1.973,3.147 1.692,3.574 L 0.504,5.383 C 0.328,5.651 0.128,5.768 -0.29,5.284 -0.652,4.865 -0.53,4.622 -0.417,4.41 -0.385,4.349 0.521,2.97 0.521,2.97 0.599,2.851 0.669,2.754 0.709,2.713 1.052,2.35 1.739,2.073 1.837,1.922 1.948,1.755 2.355,1.135 2.355,1.135 1.87,0.913 0.065,0.038 0,0"
         style="fill:#ffffff;fill-opacity:1;fill-rule:nonzero;stroke:none;stroke-width:0.120944"
         id="path1151"
         inkscape:connector-curvature="0" />
    </g>
  </g>
</svg>
