<?xml version="1.0" encoding="UTF-8" standalone="no"?>
<!-- Created with Inkscape (http://www.inkscape.org/) -->

<svg
   xmlns:dc="http://purl.org/dc/elements/1.1/"
   xmlns:cc="http://creativecommons.org/ns#"
   xmlns:rdf="http://www.w3.org/1999/02/22-rdf-syntax-ns#"
   xmlns:svg="http://www.w3.org/2000/svg"
   xmlns="http://www.w3.org/2000/svg"
   xmlns:sodipodi="http://sodipodi.sourceforge.net/DTD/sodipodi-0.dtd"
   xmlns:inkscape="http://www.inkscape.org/namespaces/inkscape"
   width="250"
   height="250"
   viewBox="0 0 66.145832 66.145835"
   version="1.1"
   id="svg1422"
   inkscape:version="0.92.4 (5da689c313, 2019-01-14)"
   sodipodi:docname="cyc track.svg">
  <defs
     id="defs1416" />
  <sodipodi:namedview
     id="base"
     pagecolor="#ffffff"
     bordercolor="#666666"
     borderopacity="1.0"
     inkscape:pageopacity="0.0"
     inkscape:pageshadow="2"
     inkscape:zoom="1.5667969"
     inkscape:cx="134.33095"
     inkscape:cy="100.04667"
     inkscape:document-units="mm"
     inkscape:current-layer="layer1"
     showgrid="false"
     units="px"
     inkscape:pagecheckerboard="true"
     inkscape:window-width="1366"
     inkscape:window-height="705"
     inkscape:window-x="-8"
     inkscape:window-y="-8"
     inkscape:window-maximized="1" />
  <metadata
     id="metadata1419">
    <rdf:RDF>
      <cc:Work
         rdf:about="">
        <dc:format>image/svg+xml</dc:format>
        <dc:type
           rdf:resource="http://purl.org/dc/dcmitype/StillImage" />
        <dc:title></dc:title>
      </cc:Work>
    </rdf:RDF>
  </metadata>
  <g
     inkscape:label="Layer 1"
     inkscape:groupmode="layer"
     id="layer1"
     transform="translate(0,-230.85415)">
    <g
       id="g1281"
       transform="matrix(2.9169974,0,0,-2.9169974,66.145833,263.92707)"
       style="fill:#842435;fill-opacity:1;stroke-width:0.12093867">
      <path
         d="m 0,0 c 0,-6.262 -5.076,-11.338 -11.338,-11.338 -6.262,0 -11.338,5.076 -11.338,11.338 0,6.262 5.076,11.338 11.338,11.338 C -5.076,11.338 0,6.262 0,0"
         style="fill:#842435;fill-opacity:1;fill-rule:nonzero;stroke:none;stroke-width:0.12093867"
         id="path1283"
         inkscape:connector-curvature="0" />
    </g>
    <g
       id="g1285"
       transform="matrix(2.9169974,0,0,-2.9169974,39.204452,245.74256)"
       style="stroke-width:0.12093867">
      <path
         d="M 0,0 C 0.37,-0.163 0.62,-0.273 1.115,-0.528 1.109,-0.569 1.106,-0.612 1.105,-0.656 1.096,-1.264 1.574,-1.764 2.172,-1.772 c 0.599,-0.009 1.09,0.478 1.099,1.087 0,0.039 -10e-4,0.077 -0.004,0.116 C 3.257,-0.45 3.232,-0.34 3.184,-0.216 3.065,0.09 2.763,0.392 2.349,0.486 1.608,0.655 0.519,0.403 0.002,0.238 -0.102,0.205 -0.106,0.047 0,0"
         style="fill:#ffffff;fill-opacity:1;fill-rule:nonzero;stroke:none;stroke-width:0.12093867"
         id="path1287"
         inkscape:connector-curvature="0" />
    </g>
    <g
       id="g1289"
       transform="matrix(2.9169974,0,0,-2.9169974,30.797661,257.11882)"
       style="stroke-width:0.12093867">
      <path
         d="M 0,0 C 0.489,-0.174 0.888,-0.309 1.319,-0.454 1.004,-0.869 0.633,-1.366 0.256,-1.864 0.159,-1.159 0.076,-0.554 0,0 M 2.653,-0.541 C 2.74,-0.447 2.8,-0.304 2.798,-0.165 2.794,0.013 2.705,0.166 2.567,0.263 1.72,0.843 0.697,1.5 -0.418,2.188 -0.664,2.347 -0.992,2.4 -1.297,2.294 -1.799,2.121 -2.076,1.584 -1.951,1.088 c 0.119,-0.484 2.2,-7.955 2.26,-8.163 0.039,-0.13 0.166,-0.233 0.314,-0.233 0.18,0 0.326,0.146 0.326,0.327 0,0.009 -0.001,0.019 -0.001,0.026 -0.002,0.04 -0.264,1.963 -0.537,3.955 0.911,0.997 2.157,2.365 2.242,2.459"
         style="fill:#ffffff;fill-opacity:1;fill-rule:nonzero;stroke:none;stroke-width:0.12093867"
         id="path1291"
         inkscape:connector-curvature="0" />
    </g>
    <g
       id="g1293"
       transform="matrix(2.9169974,0,0,-2.9169974,47.587903,280.14562)"
       style="stroke-width:0.12093867">
      <path
         d="m 0,0 c -1.494,0 -2.709,1.216 -2.709,2.71 0,1.011 0.556,1.893 1.378,2.359 L -0.238,2.604 C -0.195,2.507 -0.1,2.449 0,2.449 c 0.036,0 0.071,0.007 0.106,0.022 0.132,0.059 0.191,0.213 0.133,0.345 L -0.854,5.281 C -0.585,5.371 -0.298,5.42 0,5.42 1.495,5.42 2.71,4.204 2.71,2.71 2.71,1.216 1.495,0 0,0 M -2.003,7.166 V 6.641 c 0,-0.037 0.007,-0.073 0.022,-0.106 L -1.544,5.55 C -2.549,5.002 -3.231,3.935 -3.231,2.71 c 0,-1.784 1.447,-3.231 3.231,-3.231 1.785,0 3.231,1.447 3.231,3.231 0,1.785 -1.446,3.232 -3.231,3.232 -0.374,0 -0.732,-0.065 -1.067,-0.182 l -0.414,0.936 v 0.227 c 0.675,0 2.678,0 2.678,0 0.018,0 0.034,0.001 0.051,0.004 0.101,0.018 0.18,0.087 0.218,0.176 C 1.505,7.19 1.745,7.796 1.876,8.127 1.923,8.245 1.865,8.378 1.747,8.425 1.629,8.472 1.495,8.415 1.448,8.296 L 1.144,7.536 c -0.286,0.046 -1.943,0.303 -2.304,0.359 -0.208,0.587 -0.794,2.196 -1.001,2.654 -0.188,0.416 -0.6,0.61 -1.005,0.459 -0.404,-0.15 -0.61,-0.6 -0.459,-1.005 0.011,-0.03 0.024,-0.06 0.038,-0.087 0.394,-0.745 1.584,-2.75 1.584,-2.75"
         style="fill:#ffffff;fill-opacity:1;fill-rule:nonzero;stroke:none;stroke-width:0.12093867"
         id="path1295"
         inkscape:connector-curvature="0" />
    </g>
    <g
       id="g1297"
       transform="matrix(2.9169974,0,0,-2.9169974,18.563774,262.81278)"
       style="stroke-width:0.12093867">
      <path
         d="m 0,0 c -1.785,0 -3.231,-1.448 -3.231,-3.232 0,-1.784 1.446,-3.232 3.231,-3.232 1.785,0 3.231,1.448 3.231,3.232 C 3.231,-1.448 1.785,0 0,0"
         style="fill:#ffffff;fill-opacity:1;fill-rule:nonzero;stroke:none;stroke-width:0.12093867"
         id="path1299"
         inkscape:connector-curvature="0" />
    </g>
  </g>
</svg>
