<?xml version="1.0" encoding="UTF-8" standalone="no"?>
<!-- Created with Inkscape (http://www.inkscape.org/) -->

<svg
   xmlns:dc="http://purl.org/dc/elements/1.1/"
   xmlns:cc="http://creativecommons.org/ns#"
   xmlns:rdf="http://www.w3.org/1999/02/22-rdf-syntax-ns#"
   xmlns:svg="http://www.w3.org/2000/svg"
   xmlns="http://www.w3.org/2000/svg"
   xmlns:sodipodi="http://sodipodi.sourceforge.net/DTD/sodipodi-0.dtd"
   xmlns:inkscape="http://www.inkscape.org/namespaces/inkscape"
   width="250"
   height="250"
   viewBox="0 0 66.145832 66.145835"
   version="1.1"
   id="svg1422"
   inkscape:version="0.92.4 (5da689c313, 2019-01-14)"
   sodipodi:docname="cyc bmx race.svg">
  <defs
     id="defs1416" />
  <sodipodi:namedview
     id="base"
     pagecolor="#ffffff"
     bordercolor="#666666"
     borderopacity="1.0"
     inkscape:pageopacity="0.0"
     inkscape:pageshadow="2"
     inkscape:zoom="1.1078927"
     inkscape:cx="199.80338"
     inkscape:cy="158.85447"
     inkscape:document-units="mm"
     inkscape:current-layer="layer1"
     showgrid="false"
     units="px"
     inkscape:pagecheckerboard="true"
     inkscape:window-width="1366"
     inkscape:window-height="705"
     inkscape:window-x="-8"
     inkscape:window-y="-8"
     inkscape:window-maximized="1" />
  <metadata
     id="metadata1419">
    <rdf:RDF>
      <cc:Work
         rdf:about="">
        <dc:format>image/svg+xml</dc:format>
        <dc:type
           rdf:resource="http://purl.org/dc/dcmitype/StillImage" />
        <dc:title></dc:title>
      </cc:Work>
    </rdf:RDF>
  </metadata>
  <g
     inkscape:label="Layer 1"
     inkscape:groupmode="layer"
     id="layer1"
     transform="translate(0,-230.85415)">
    <g
       id="g1321"
       transform="matrix(2.9168688,0,0,-2.9168688,66.142917,263.92561)"
       style="fill:#2e755c;fill-opacity:1;stroke-width:0.120944">
      <path
         d="m 0,0 c 0,-6.263 -5.076,-11.339 -11.338,-11.339 -6.262,0 -11.338,5.076 -11.338,11.339 0,6.262 5.076,11.338 11.338,11.338 C -5.076,11.338 0,6.262 0,0"
         style="fill:#2e755c;fill-opacity:1;fill-rule:nonzero;stroke:none;stroke-width:0.120944"
         id="path1323"
         inkscape:connector-curvature="0" />
    </g>
    <g
       id="g1325"
       transform="matrix(2.9168688,0,0,-2.9168688,37.502177,241.91791)"
       style="stroke-width:0.120944">
      <path
         d="m 0,0 c 0.121,-0.143 1.264,-1.469 1.264,-1.469 l 0.447,0.767 -0.156,0.427 0.42,0.72 0.72,-0.42 0.13,0.265 -0.83,1.005 C 1.941,1.361 1.869,1.432 1.784,1.483 1.58,1.606 1.43,1.697 1.401,1.714 0.877,2.023 0.18,1.845 -0.132,1.311 -0.383,0.881 -0.313,0.353 0,0"
         style="fill:#ffffff;fill-opacity:1;fill-rule:nonzero;stroke:none;stroke-width:0.120944"
         id="path1327"
         inkscape:connector-curvature="0" />
    </g>
    <g
       id="g1329"
       transform="matrix(2.9168688,0,0,-2.9168688,49.137557,278.49541)"
       style="stroke-width:0.120944">
      <path
         d="m 0,0 c -1.088,0 -1.972,0.885 -1.972,1.973 0,0.667 0.332,1.258 0.841,1.614 l 0.9,-1.734 C -0.184,1.763 -0.093,1.712 0,1.712 c 0.041,0 0.082,0.01 0.12,0.03 0.128,0.066 0.178,0.223 0.112,0.351 l -0.9,1.736 C -0.46,3.904 -0.234,3.946 0,3.946 1.088,3.946 1.973,3.061 1.973,1.973 1.973,0.885 1.088,0 0,0 M -3.852,7.118 C -3.736,7.042 -3.609,7.065 -3.56,7.089 l 0.492,0.23 1.695,-3.264 C -2.048,3.608 -2.494,2.843 -2.494,1.973 c 0,-1.378 1.117,-2.494 2.494,-2.494 1.378,0 2.495,1.116 2.495,2.494 0,1.378 -1.117,2.494 -2.495,2.494 -0.321,0 -0.628,-0.061 -0.911,-0.172 L -2.72,7.783 C -2.784,7.907 -2.936,7.959 -3.062,7.899 L -3.549,7.67 c -0.264,0.305 -1.06,1.22 -1.577,1.772 0.21,0.507 0.636,1.57 0.818,2.224 0.037,0.147 0.034,0.317 -0.025,0.476 -0.152,0.409 -0.608,0.617 -1.018,0.465 C -5.629,12.503 -5.817,12.255 -5.857,11.986 -5.992,11.256 -6.251,9.4 -6.251,9.4 -6.258,9.348 -6.258,9.291 -6.248,9.234 -6.225,9.112 -6.163,9.008 -6.076,8.933 -6.06,8.919 -3.916,7.159 -3.852,7.118"
         style="fill:#ffffff;fill-opacity:1;fill-rule:nonzero;stroke:none;stroke-width:0.120944"
         id="path1331"
         inkscape:connector-curvature="0" />
    </g>
    <g
       id="g1333"
       transform="matrix(2.9168688,0,0,-2.9168688,23.177437,287.92275)"
       style="stroke-width:0.120944">
      <path
         d="m 0,0 c -1.09,0 -1.973,0.883 -1.973,1.973 0,1.089 0.883,1.973 1.973,1.973 1.089,0 1.972,-0.884 1.972,-1.973 C 1.972,0.883 1.089,0 0,0 m -0.209,11.296 c -0.034,-0.149 -0.032,-0.308 0.009,-0.464 0.019,-0.076 0.043,-0.15 0.076,-0.219 C 0.019,10.274 1.413,8.187 1.844,7.564 1.762,6.882 1.532,4.911 1.428,4.017 1.024,4.301 0.532,4.467 0,4.467 c -1.378,0 -2.495,-1.117 -2.495,-2.494 0,-1.378 1.117,-2.495 2.495,-2.495 1.377,0 2.494,1.117 2.494,2.495 0,0.522 -0.161,1.006 -0.434,1.407 0.009,0.021 0.019,0.044 0.024,0.066 0,0 0.934,4.134 0.937,4.151 C 3.029,7.634 3.033,7.67 3.033,7.709 3.035,7.773 3.025,7.834 3.007,7.892 2.998,7.919 2.821,8.386 2.592,8.986 3.042,8.776 3.444,8.594 3.705,8.479 3.999,7.071 4.642,4.397 4.704,4.136 4.758,3.922 4.973,3.817 5.164,3.877 5.333,3.93 5.435,4.094 5.417,4.262 c 0,0 -0.532,4.714 -0.535,4.739 C 4.864,9.163 4.784,9.306 4.665,9.407 4.664,9.408 4.657,9.414 4.656,9.415 4.493,9.55 1.979,11.607 1.564,11.938 1.535,11.961 1.517,11.975 1.513,11.977 1.332,12.108 1.11,12.185 0.87,12.185 c -0.518,0 -0.97,-0.362 -1.079,-0.889"
         style="fill:#ffffff;fill-opacity:1;fill-rule:nonzero;stroke:none;stroke-width:0.120944"
         id="path1335"
         inkscape:connector-curvature="0" />
    </g>
  </g>
</svg>
