<?xml version="1.0" encoding="UTF-8" standalone="no"?>
<!-- Created with Inkscape (http://www.inkscape.org/) -->

<svg
   xmlns:dc="http://purl.org/dc/elements/1.1/"
   xmlns:cc="http://creativecommons.org/ns#"
   xmlns:rdf="http://www.w3.org/1999/02/22-rdf-syntax-ns#"
   xmlns:svg="http://www.w3.org/2000/svg"
   xmlns="http://www.w3.org/2000/svg"
   xmlns:sodipodi="http://sodipodi.sourceforge.net/DTD/sodipodi-0.dtd"
   xmlns:inkscape="http://www.inkscape.org/namespaces/inkscape"
   width="250"
   height="250"
   viewBox="0 0 66.145832 66.145835"
   version="1.1"
   id="svg1422"
   inkscape:version="0.92.4 (5da689c313, 2019-01-14)"
   sodipodi:docname="cyc moun.svg">
  <defs
     id="defs1416" />
  <sodipodi:namedview
     id="base"
     pagecolor="#ffffff"
     bordercolor="#666666"
     borderopacity="1.0"
     inkscape:pageopacity="0.0"
     inkscape:pageshadow="2"
     inkscape:zoom="1.1078927"
     inkscape:cx="199.80338"
     inkscape:cy="158.85447"
     inkscape:document-units="mm"
     inkscape:current-layer="layer1"
     showgrid="false"
     units="px"
     inkscape:pagecheckerboard="true"
     inkscape:window-width="1366"
     inkscape:window-height="705"
     inkscape:window-x="-8"
     inkscape:window-y="-8"
     inkscape:window-maximized="1" />
  <metadata
     id="metadata1419">
    <rdf:RDF>
      <cc:Work
         rdf:about="">
        <dc:format>image/svg+xml</dc:format>
        <dc:type
           rdf:resource="http://purl.org/dc/dcmitype/StillImage" />
        <dc:title></dc:title>
      </cc:Work>
    </rdf:RDF>
  </metadata>
  <g
     inkscape:label="Layer 1"
     inkscape:groupmode="layer"
     id="layer1"
     transform="translate(0,-230.85415)">
    <g
       id="g1337"
       transform="matrix(2.9168688,0,0,-2.9168688,66.145834,263.92561)"
       style="fill:#883381;fill-opacity:1;stroke-width:0.120944">
      <path
         d="m 0,0 c 0,-6.263 -5.077,-11.339 -11.338,-11.339 -6.263,0 -11.339,5.076 -11.339,11.339 0,6.262 5.076,11.338 11.339,11.338 C -5.077,11.338 0,6.262 0,0"
         style="fill:#883381;fill-opacity:1;fill-rule:nonzero;stroke:none;stroke-width:0.120944"
         id="path1339"
         inkscape:connector-curvature="0" />
    </g>
    <g
       id="g1341"
       transform="matrix(2.9168688,0,0,-2.9168688,49.216344,245.46773)"
       style="stroke-width:0.120944">
      <path
         d="m 0,0 c -0.57,0 -1.032,-0.461 -1.032,-1.032 0,-0.569 0.462,-1.032 1.032,-1.032 0.57,0 1.032,0.463 1.032,1.032 C 1.032,-0.461 0.57,0 0,0"
         style="fill:#ffffff;fill-opacity:1;fill-rule:nonzero;stroke:none;stroke-width:0.120944"
         id="path1343"
         inkscape:connector-curvature="0" />
    </g>
    <g
       id="g1345"
       transform="matrix(2.9168688,0,0,-2.9168688,19.837644,262.34761)"
       style="stroke-width:0.120944">
      <path
         d="m 0,0 c -0.088,-0.077 -0.142,-0.205 -0.12,-0.334 0.035,-0.196 0.221,-0.328 0.418,-0.294 0.04,0.006 0.079,0.022 0.111,0.038 0,0 0.007,0.004 0.017,0.011 0.003,0.001 0.006,0.003 0.008,0.005 0.177,0.104 1.265,0.755 2.318,1.403 -0.096,-1.408 -1.271,-2.524 -2.703,-2.524 -1.493,0 -2.709,1.215 -2.709,2.709 0,1.495 1.216,2.711 2.709,2.711 1.104,0 2.055,-0.664 2.478,-1.613 C 1.439,1.232 0,0 0,0 M 6.259,2.541 C 6.005,3.563 5.653,4.998 5.394,6.038 5.273,6.534 4.761,6.87 4.242,6.766 3.82,6.681 3.516,6.339 3.46,5.937 3.335,4.959 3.22,3.805 3.12,2.589 3.066,2.544 3.009,2.497 2.946,2.447 2.418,3.513 1.32,4.246 0.049,4.246 c -1.785,0 -3.231,-1.447 -3.231,-3.232 0,-1.784 1.446,-3.231 3.231,-3.231 1.785,0 3.232,1.447 3.232,3.231 0,0.047 -0.001,0.093 -0.004,0.14 0.31,0.192 0.602,0.377 0.848,0.536 0.142,0.088 0.253,0.232 0.299,0.396 l 0.243,0.87 C 4.755,2.746 4.846,2.537 4.939,2.33 4.681,1.323 3.975,-1.858 3.975,-1.858 3.961,-1.915 3.962,-1.979 3.981,-2.04 4.039,-2.218 4.23,-2.316 4.408,-2.258 4.52,-2.222 4.594,-2.13 4.63,-2.03 l 1.596,4.162 c 0.05,0.12 0.066,0.27 0.033,0.409"
         style="fill:#ffffff;fill-opacity:1;fill-rule:nonzero;stroke:none;stroke-width:0.120944"
         id="path1347"
         inkscape:connector-curvature="0" />
    </g>
    <g
       id="g1349"
       transform="matrix(2.9168688,0,0,-2.9168688,39.923194,285.80797)"
       style="stroke-width:0.120944">
      <path
         d="m 0,0 c -1.494,0 -2.709,1.216 -2.709,2.71 0,1.494 1.215,2.71 2.709,2.71 0.143,0 0.282,-0.011 0.419,-0.032 L -0.253,2.775 C -0.288,2.636 -0.204,2.493 -0.065,2.458 -0.043,2.452 -0.021,2.449 0,2.449 c 0.117,0 0.223,0.079 0.253,0.196 l 0.67,2.613 C 1.964,4.88 2.711,3.88 2.711,2.71 2.711,1.216 1.495,0 0,0 M 0.427,9.893 C 0.472,9.83 2.049,8.072 2.049,8.072 L 1.403,8.212 C 1.265,8.241 1.13,8.157 1.095,8.021 L 0.548,5.895 C 0.371,5.925 0.187,5.942 0,5.942 c -1.785,0 -3.231,-1.447 -3.231,-3.232 0,-1.784 1.446,-3.231 3.231,-3.231 1.785,0 3.231,1.447 3.231,3.231 0,1.416 -0.91,2.618 -2.177,3.055 L 1.537,7.648 2.733,7.389 C 2.758,7.384 2.781,7.38 2.807,7.38 c 0.175,0 0.316,0.144 0.314,0.323 0,0.067 -0.021,0.131 -0.055,0.181 0,0 -1.609,2.32 -1.704,2.457 0.049,0.541 0.169,1.919 0.22,2.508 C 1.59,12.956 1.578,13.065 1.543,13.17 1.401,13.597 0.94,13.828 0.514,13.686 0.154,13.567 -0.066,13.22 -0.042,12.859 -0.013,12.438 0.116,11.351 0.335,10.1 0.346,10.044 0.382,9.955 0.427,9.893"
         style="fill:#ffffff;fill-opacity:1;fill-rule:nonzero;stroke:none;stroke-width:0.120944"
         id="path1351"
         inkscape:connector-curvature="0" />
    </g>
    <g
       id="g1353"
       transform="matrix(2.9168688,0,0,-2.9168688,39.923194,285.80797)"
       style="stroke-width:0.120944">
      <path
         d="m 0,0 c -1.494,0 -2.709,1.216 -2.709,2.71 0,1.494 1.215,2.71 2.709,2.71 0.143,0 0.282,-0.011 0.419,-0.032 L -0.253,2.775 C -0.288,2.636 -0.204,2.493 -0.065,2.458 -0.043,2.452 -0.021,2.449 0,2.449 c 0.117,0 0.223,0.079 0.253,0.196 l 0.67,2.613 C 1.964,4.88 2.711,3.88 2.711,2.71 2.711,1.216 1.495,0 0,0 M 0.427,9.893 C 0.472,9.83 2.049,8.072 2.049,8.072 L 1.403,8.212 C 1.265,8.241 1.13,8.157 1.095,8.021 L 0.548,5.895 C 0.371,5.925 0.187,5.942 0,5.942 c -1.785,0 -3.231,-1.447 -3.231,-3.232 0,-1.784 1.446,-3.231 3.231,-3.231 1.785,0 3.231,1.447 3.231,3.231 0,1.416 -0.91,2.618 -2.177,3.055 L 1.537,7.648 2.733,7.389 C 2.758,7.384 2.781,7.38 2.807,7.38 c 0.175,0 0.316,0.144 0.314,0.323 0,0.067 -0.021,0.131 -0.055,0.181 0,0 -0.776,1.112 -1.371,1.973 -0.104,0.151 -0.243,0.353 -0.333,0.484 0.049,0.541 0.169,1.919 0.22,2.508 C 1.59,12.956 1.578,13.065 1.543,13.17 1.401,13.597 0.94,13.828 0.514,13.686 0.154,13.567 -0.066,13.22 -0.042,12.859 -0.013,12.438 0.116,11.351 0.335,10.1 0.346,10.044 0.382,9.955 0.427,9.893"
         style="fill:#ffffff;fill-opacity:1;fill-rule:nonzero;stroke:none;stroke-width:0.120944"
         id="path1355"
         inkscape:connector-curvature="0" />
    </g>
  </g>
</svg>
