<?xml version="1.0" encoding="UTF-8" standalone="no"?>
<!-- Created with Inkscape (http://www.inkscape.org/) -->

<svg
   xmlns:dc="http://purl.org/dc/elements/1.1/"
   xmlns:cc="http://creativecommons.org/ns#"
   xmlns:rdf="http://www.w3.org/1999/02/22-rdf-syntax-ns#"
   xmlns:svg="http://www.w3.org/2000/svg"
   xmlns="http://www.w3.org/2000/svg"
   xmlns:sodipodi="http://sodipodi.sourceforge.net/DTD/sodipodi-0.dtd"
   xmlns:inkscape="http://www.inkscape.org/namespaces/inkscape"
   width="250"
   height="250"
   viewBox="0 0 66.145832 66.145835"
   version="1.1"
   id="svg1422"
   inkscape:version="0.92.4 (5da689c313, 2019-01-14)"
   sodipodi:docname="cyc bmx free.svg">
  <defs
     id="defs1416" />
  <sodipodi:namedview
     id="base"
     pagecolor="#ffffff"
     bordercolor="#666666"
     borderopacity="1.0"
     inkscape:pageopacity="0.0"
     inkscape:pageshadow="2"
     inkscape:zoom="1.1078927"
     inkscape:cx="199.80338"
     inkscape:cy="158.85447"
     inkscape:document-units="mm"
     inkscape:current-layer="layer1"
     showgrid="false"
     units="px"
     inkscape:pagecheckerboard="true"
     inkscape:window-width="1366"
     inkscape:window-height="705"
     inkscape:window-x="-8"
     inkscape:window-y="-8"
     inkscape:window-maximized="1" />
  <metadata
     id="metadata1419">
    <rdf:RDF>
      <cc:Work
         rdf:about="">
        <dc:format>image/svg+xml</dc:format>
        <dc:type
           rdf:resource="http://purl.org/dc/dcmitype/StillImage" />
        <dc:title></dc:title>
      </cc:Work>
    </rdf:RDF>
  </metadata>
  <g
     inkscape:label="Layer 1"
     inkscape:groupmode="layer"
     id="layer1"
     transform="translate(0,-230.85415)">
    <g
       id="g1469"
       transform="matrix(2.9168663,0,0,-2.9168663,66.145777,263.92558)"
       style="fill:#883381;fill-opacity:1;stroke-width:0.1209441">
      <path
         d="m 0,0 c 0,-6.263 -5.077,-11.339 -11.338,-11.339 -6.263,0 -11.339,5.076 -11.339,11.339 0,6.262 5.076,11.338 11.339,11.338 C -5.077,11.338 0,6.262 0,0"
         style="fill:#883381;fill-opacity:1;fill-rule:nonzero;stroke:none;stroke-width:0.1209441"
         id="path1471"
         inkscape:connector-curvature="0" />
    </g>
    <g
       id="g1473"
       transform="matrix(2.9168663,0,0,-2.9168663,28.596954,278.3816)"
       style="stroke-width:0.1209441">
      <path
         d="M 0,0 -0.14,0.181 -0.705,0.21 c -0.098,0.005 -0.189,0.053 -0.25,0.131 l -0.089,0.117 c 0.113,0.087 0.435,0.335 0.541,0.418 0.193,0.149 0.296,0.364 0.308,0.637 l 0.001,0.012 -0.317,0.02 V 1.528 C -0.515,1.455 -0.523,1.261 -0.697,1.127 -0.807,1.041 -1.147,0.78 -1.248,0.701 L -1.439,0.71 c -0.098,0.005 -0.19,0.052 -0.251,0.131 l -0.331,0.431 c -0.455,-0.429 -0.52,-1.142 -0.13,-1.648 0.415,-0.54 1.189,-0.641 1.729,-0.226 C -0.215,-0.443 -0.074,-0.231 0,0"
         style="fill:#ffffff;fill-opacity:1;fill-rule:nonzero;stroke:none;stroke-width:0.1209441"
         id="path1475"
         inkscape:connector-curvature="0" />
    </g>
    <g
       id="g1477"
       transform="matrix(2.9168663,0,0,-2.9168663,31.198792,266.24161)"
       style="stroke-width:0.1209441">
      <path
         d="m 0,0 c 0.139,-0.131 2.723,-2.556 2.848,-2.655 0.148,-0.13 0.376,-0.232 0.61,-0.246 0.571,-0.034 1.062,0.401 1.097,0.972 0.01,0.172 -0.022,0.337 -0.087,0.483 C 4.465,-1.442 3.29,1.066 2.884,1.916 3.838,2.705 5.72,4.506 5.854,4.669 5.959,4.796 5.946,4.989 5.838,5.105 5.736,5.215 5.555,5.246 5.421,5.16 5.264,5.059 1.875,2.654 1.772,2.561 1.637,2.457 1.546,2.287 1.542,2.098 1.541,2.057 1.549,1.997 1.556,1.968 1.61,1.721 1.779,0.944 1.969,0.133 L 0.882,0.792 C 0.743,1.292 -0.142,4.271 -0.24,4.565 -0.267,4.649 -0.364,4.796 -0.574,4.777 -0.748,4.761 -0.848,4.586 -0.84,4.457 -0.829,4.252 -0.212,0.436 -0.166,0.281 -0.14,0.173 -0.082,0.076 0,0"
         style="fill:#ffffff;fill-opacity:1;fill-rule:nonzero;stroke:none;stroke-width:0.1209441"
         id="path1479"
         inkscape:connector-curvature="0" />
    </g>
    <g
       id="g1481"
       transform="matrix(2.9168663,0,0,-2.9168663,38.674709,238.57222)"
       style="stroke-width:0.1209441">
      <path
         d="m 0,0 c 0.276,0.137 0.571,0.206 0.875,0.206 0.756,0 1.433,-0.42 1.769,-1.095 0.235,-0.472 0.271,-1.007 0.103,-1.506 -0.168,-0.5 -0.52,-0.904 -0.992,-1.138 -0.276,-0.137 -0.57,-0.206 -0.876,-0.206 -0.755,0 -1.432,0.419 -1.768,1.095 C -1.373,-1.67 -0.973,-0.484 0,0 m 0.879,-4.261 c 0.373,0 0.752,0.084 1.108,0.261 1.234,0.613 1.737,2.109 1.124,3.343 -0.436,0.877 -1.318,1.385 -2.236,1.385 -0.372,0 -0.751,-0.084 -1.107,-0.261 -1.233,-0.613 -1.737,-2.11 -1.124,-3.343 0.436,-0.877 1.319,-1.385 2.235,-1.385"
         style="fill:#ffffff;fill-opacity:1;fill-rule:nonzero;stroke:none;stroke-width:0.1209441"
         id="path1483"
         inkscape:connector-curvature="0" />
    </g>
    <g
       id="g1485"
       transform="matrix(2.9168663,0,0,-2.9168663,16.413185,255.74676)"
       style="stroke-width:0.1209441">
      <path
         d="m 0,0 c -0.712,0 -1.351,0.396 -1.667,1.033 -0.456,0.918 -0.08,2.035 0.838,2.492 0.26,0.129 0.538,0.194 0.825,0.194 0.712,0 1.35,-0.396 1.667,-1.032 C 2.091,1.826 1.786,0.788 0.989,0.287 L 0.236,1.967 C 0.177,2.098 0.023,2.157 -0.109,2.098 -0.24,2.039 -0.299,1.884 -0.24,1.753 L 0.513,0.073 C 0.347,0.025 0.175,0 0,0 m 2.138,-3.553 c 0.056,-0.12 0.19,-0.192 0.34,-0.133 l 0.426,0.18 C 3.19,-3.839 4.216,-5.02 4.75,-5.559 c 0.067,-0.475 0.259,-1.93 0.327,-2.29 0.083,-0.436 0.496,-0.745 0.972,-0.607 0.43,0.125 0.604,0.629 0.492,0.948 -0.109,0.312 -0.88,2.275 -0.916,2.357 -0.036,0.084 -0.088,0.14 -0.126,0.174 -0.038,0.034 -2.213,1.959 -2.256,1.987 -0.092,0.074 -0.218,0.097 -0.331,0.053 L 2.51,-3.106 1.204,-0.192 C 2.273,0.435 2.69,1.791 2.13,2.919 1.714,3.756 0.872,4.241 -0.004,4.241 c -0.355,0 -0.717,-0.08 -1.057,-0.25 -1.178,-0.584 -1.658,-2.013 -1.073,-3.19 0.416,-0.838 1.259,-1.322 2.134,-1.322 0.243,0 0.488,0.038 0.728,0.116"
         style="fill:#ffffff;fill-opacity:1;fill-rule:nonzero;stroke:none;stroke-width:0.1209441"
         id="path1487"
         inkscape:connector-curvature="0" />
    </g>
    <g
       id="g1489"
       transform="matrix(2.9168663,0,0,-2.9168663,56.371357,270.57609)"
       style="stroke-width:0.1209441">
      <path
         d="m 0,0 c -0.547,-2.292 -1.831,-4.348 -3.465,-5.877 -1.398,-1.307 -3.779,-2.865 -7.187,-2.866 0.855,-0.206 1.747,-0.316 2.664,-0.316 0.067,0 0.132,0.002 0.198,0.002 1.765,0.467 3.388,1.372 4.789,2.684 1.659,1.551 2.933,3.613 3.525,5.693 H 2.959 C 3.02,-0.456 3.075,-0.229 3.122,0"
         style="fill:#ffffff;fill-opacity:1;fill-rule:nonzero;stroke:none;stroke-width:0.1209441"
         id="path1491"
         inkscape:connector-curvature="0" />
    </g>
  </g>
</svg>
