<?xml version="1.0" encoding="UTF-8" standalone="no"?>
<!-- Created with Inkscape (http://www.inkscape.org/) -->

<svg
   xmlns:dc="http://purl.org/dc/elements/1.1/"
   xmlns:cc="http://creativecommons.org/ns#"
   xmlns:rdf="http://www.w3.org/1999/02/22-rdf-syntax-ns#"
   xmlns:svg="http://www.w3.org/2000/svg"
   xmlns="http://www.w3.org/2000/svg"
   xmlns:sodipodi="http://sodipodi.sourceforge.net/DTD/sodipodi-0.dtd"
   xmlns:inkscape="http://www.inkscape.org/namespaces/inkscape"
   width="250"
   height="250"
   viewBox="0 0 66.145832 66.145835"
   version="1.1"
   id="svg1422"
   inkscape:version="0.92.4 (5da689c313, 2019-01-14)"
   sodipodi:docname="cyc road.svg">
  <defs
     id="defs1416" />
  <sodipodi:namedview
     id="base"
     pagecolor="#ffffff"
     bordercolor="#666666"
     borderopacity="1.0"
     inkscape:pageopacity="0.0"
     inkscape:pageshadow="2"
     inkscape:zoom="0.55394635"
     inkscape:cx="-309.48049"
     inkscape:cy="75.100138"
     inkscape:document-units="mm"
     inkscape:current-layer="layer1"
     showgrid="false"
     units="px"
     inkscape:pagecheckerboard="true"
     inkscape:window-width="1366"
     inkscape:window-height="705"
     inkscape:window-x="-8"
     inkscape:window-y="-8"
     inkscape:window-maximized="1" />
  <metadata
     id="metadata1419">
    <rdf:RDF>
      <cc:Work
         rdf:about="">
        <dc:format>image/svg+xml</dc:format>
        <dc:type
           rdf:resource="http://purl.org/dc/dcmitype/StillImage" />
        <dc:title></dc:title>
      </cc:Work>
    </rdf:RDF>
  </metadata>
  <g
     inkscape:label="Layer 1"
     inkscape:groupmode="layer"
     id="layer1"
     transform="translate(0,-230.85415)">
    <g
       id="g1357"
       transform="matrix(2.9168688,0,0,-2.9169974,66.145833,263.92707)"
       style="fill:#842435;fill-opacity:1;stroke-width:0.12094134">
      <path
         d="m 0,0 c 0,-6.262 -5.077,-11.338 -11.339,-11.338 -6.262,0 -11.338,5.076 -11.338,11.338 0,6.262 5.076,11.338 11.338,11.338 C -5.077,11.338 0,6.262 0,0"
         style="fill:#842435;fill-opacity:1;fill-rule:nonzero;stroke:none;stroke-width:0.12094134"
         id="path1359"
         inkscape:connector-curvature="0" />
    </g>
    <g
       id="g1361"
       transform="matrix(2.9169974,0,0,-2.9169974,30.450543,258.30893)"
       style="stroke-width:0.12093867">
      <path
         d="M 0,0 C 0.349,-0.196 0.711,-0.394 1.081,-0.587 0.857,-0.94 0.601,-1.348 0.365,-1.727 0.235,-1.11 0.109,-0.515 0,0 m -2.142,1.198 c 0.062,-0.195 2.803,-7.623 2.859,-7.758 0.047,-0.116 0.167,-0.206 0.305,-0.206 0.181,0 0.327,0.146 0.327,0.327 0,0.02 -0.002,0.039 -0.004,0.058 -0.007,0.045 -0.35,1.672 -0.725,3.449 0.733,0.917 1.745,2.184 1.766,2.212 0.079,0.1 0.127,0.229 0.127,0.368 -0.002,0.177 -0.083,0.336 -0.206,0.442 -0.086,0.074 -2.528,2.083 -2.818,2.28 -0.171,0.125 -0.391,0.205 -0.624,0.205 -0.584,0 -1.056,-0.472 -1.056,-1.055 0,-0.113 0.017,-0.224 0.049,-0.322"
         style="fill:#ffffff;fill-opacity:1;fill-rule:nonzero;stroke:none;stroke-width:0.12093867"
         id="path1363"
         inkscape:connector-curvature="0" />
    </g>
    <g
       id="g1365"
       transform="matrix(2.9169974,0,0,-2.9169974,47.3312,281.01193)"
       style="stroke-width:0.12093867">
      <path
         d="m 0,0 c -1.495,0 -2.71,1.216 -2.71,2.709 0,1.012 0.557,1.895 1.38,2.36 L -0.239,2.604 C -0.195,2.507 -0.1,2.449 0,2.449 c 0.035,0 0.071,0.007 0.105,0.022 0.132,0.058 0.192,0.213 0.133,0.344 L -0.854,5.281 C -0.585,5.37 -0.299,5.42 0,5.42 1.494,5.42 2.709,4.204 2.709,2.709 2.709,1.216 1.494,0 0,0 m -0.819,7.801 c -0.15,0.132 -1.466,1.123 -2.007,1.518 -0.056,0.646 -0.213,2.202 -0.237,2.393 -0.007,0.063 -0.023,0.132 -0.048,0.197 -0.158,0.426 -0.632,0.643 -1.057,0.484 -0.407,-0.151 -0.621,-0.599 -0.503,-1.001 0.077,-0.307 0.724,-2.24 0.824,-2.527 0.048,-0.146 0.155,-0.26 0.288,-0.321 L -1.981,7.797 V 6.595 c 0,-0.037 0.007,-0.073 0.022,-0.106 L -1.543,5.55 C -2.549,5.002 -3.231,3.936 -3.231,2.709 c 0,-1.784 1.446,-3.231 3.231,-3.231 1.785,0 3.231,1.447 3.231,3.231 0,1.785 -1.446,3.232 -3.231,3.232 -0.374,0 -0.732,-0.064 -1.066,-0.18 L -1.459,6.65 v 0.711 h 1.037 c 0.303,0 0.412,-0.118 0.412,-0.271 0,-0.155 -0.099,-0.286 -0.412,-0.286 h -0.126 c -0.137,0 -0.247,-0.094 -0.247,-0.231 0,-0.136 0.11,-0.237 0.247,-0.237 h 0.189 c 0.644,0 0.844,0.4 0.844,0.706 0,0.389 -0.289,0.759 -0.907,0.759"
         style="fill:#ffffff;fill-opacity:1;fill-rule:nonzero;stroke:none;stroke-width:0.12093867"
         id="path1367"
         inkscape:connector-curvature="0" />
    </g>
    <g
       id="g1369"
       transform="matrix(2.9169974,0,0,-2.9169974,19.453465,281.01193)"
       style="stroke-width:0.12093867">
      <path
         d="M 0,0 C -1.495,0 -2.71,1.216 -2.71,2.709 -2.71,4.204 -1.495,5.42 0,5.42 1.494,5.42 2.71,4.204 2.71,2.709 2.71,1.216 1.494,0 0,0 m 0,5.941 c -1.785,0 -3.231,-1.447 -3.231,-3.232 0,-1.784 1.446,-3.231 3.231,-3.231 1.785,0 3.231,1.447 3.231,3.231 0,1.785 -1.446,3.232 -3.231,3.232"
         style="fill:#ffffff;fill-opacity:1;fill-rule:nonzero;stroke:none;stroke-width:0.12093867"
         id="path1371"
         inkscape:connector-curvature="0" />
    </g>
    <g
       id="g1373"
       transform="matrix(2.9169974,0,0,-2.9169974,42.82736,247.29732)"
       style="stroke-width:0.12093867">
      <path
         d="M 0,0 C 0.569,0 1.032,0.461 1.032,1.032 1.032,1.601 0.569,2.064 0,2.064 -0.571,2.064 -1.032,1.601 -1.032,1.032 -1.032,0.461 -0.571,0 0,0"
         style="fill:#ffffff;fill-opacity:1;fill-rule:nonzero;stroke:none;stroke-width:0.12093867"
         id="path1375"
         inkscape:connector-curvature="0" />
    </g>
  </g>
</svg>
