<?xml version="1.0" encoding="UTF-8" standalone="no"?>
<!-- Created with Inkscape (http://www.inkscape.org/) -->

<svg
   xmlns:dc="http://purl.org/dc/elements/1.1/"
   xmlns:cc="http://creativecommons.org/ns#"
   xmlns:rdf="http://www.w3.org/1999/02/22-rdf-syntax-ns#"
   xmlns:svg="http://www.w3.org/2000/svg"
   xmlns="http://www.w3.org/2000/svg"
   xmlns:sodipodi="http://sodipodi.sourceforge.net/DTD/sodipodi-0.dtd"
   xmlns:inkscape="http://www.inkscape.org/namespaces/inkscape"
   width="250"
   height="250"
   viewBox="0 0 66.145832 66.145835"
   version="1.1"
   id="svg1422"
   inkscape:version="0.92.4 (5da689c313, 2019-01-14)"
   sodipodi:docname="diving.svg">
  <defs
     id="defs1416" />
  <sodipodi:namedview
     id="base"
     pagecolor="#ffffff"
     bordercolor="#666666"
     borderopacity="1.0"
     inkscape:pageopacity="0.0"
     inkscape:pageshadow="2"
     inkscape:zoom="0.98118755"
     inkscape:cx="156.48368"
     inkscape:cy="108.15883"
     inkscape:document-units="mm"
     inkscape:current-layer="layer1"
     showgrid="false"
     units="px"
     inkscape:pagecheckerboard="true"
     inkscape:window-width="1366"
     inkscape:window-height="705"
     inkscape:window-x="-8"
     inkscape:window-y="-8"
     inkscape:window-maximized="1"
     showguides="false" />
  <metadata
     id="metadata1419">
    <rdf:RDF>
      <cc:Work
         rdf:about="">
        <dc:format>image/svg+xml</dc:format>
        <dc:type
           rdf:resource="http://purl.org/dc/dcmitype/StillImage" />
        <dc:title></dc:title>
      </cc:Work>
    </rdf:RDF>
  </metadata>
  <g
     inkscape:label="Layer 1"
     inkscape:groupmode="layer"
     id="layer1"
     transform="translate(0,-230.85415)">
    <g
       id="g1453"
       transform="matrix(2.9168688,0,0,-2.9169974,66.145833,263.92707)"
       style="fill:#2c4c98;fill-opacity:1;stroke-width:0.12094134">
      <path
         d="m 0,0 c 0,-6.262 -5.077,-11.338 -11.338,-11.338 -6.263,0 -11.339,5.076 -11.339,11.338 0,6.262 5.076,11.338 11.339,11.338 C -5.077,11.338 0,6.262 0,0"
         style="fill:#2c4c98;fill-opacity:1;fill-rule:nonzero;stroke:none;stroke-width:0.12094134"
         id="path1455"
         inkscape:connector-curvature="0" />
    </g>
    <g
       id="g1457"
       transform="matrix(2.9169974,0,0,-2.9169974,24.558207,257.04011)"
       style="stroke-width:0.12093867">
      <path
         d="m 0,0 c 0.035,-1.148 0.43,-5.827 0.553,-6.402 0.059,-0.279 0.348,-0.368 0.545,-0.279 0.129,0.059 0.206,0.172 0.227,0.31 0.021,0.138 0.156,2.692 0.294,5.333 0.195,0.114 1.52,0.892 1.751,1.039 C 3.596,0.048 4.048,0.153 4.491,0.259 4.128,0.544 3.801,0.896 3.508,1.281 3.2,1.113 3.011,1.011 2.882,0.926 c 0,0 -0.013,-0.01 -0.026,-0.019 C 2.612,0.731 1.692,-0.084 1.667,-0.105 1.669,-0.064 1.711,0.761 1.728,1.099 2.14,1.461 3.007,2.231 3.044,2.266 3.844,1.945 5.331,1.379 5.556,1.309 5.794,1.235 6.063,1.243 6.309,1.356 6.707,1.538 6.939,1.934 6.93,2.345 6.928,2.486 6.896,2.628 6.835,2.764 6.7,3.059 6.424,3.296 6.071,3.366 5.476,3.483 3.073,3.726 2.902,3.719 2.784,3.714 2.692,3.688 2.629,3.658 2.548,3.62 2.48,3.571 2.405,3.491 2.346,3.429 2.001,3.005 1.804,2.755 1.843,3.722 1.854,4.396 1.845,4.55 1.835,4.725 1.804,4.853 1.741,4.993 1.48,5.574 0.796,5.83 0.216,5.567 -0.184,5.386 -0.423,5.019 -0.444,4.51 -0.463,4.059 -0.408,3.343 -0.358,2.882 -0.226,1.662 -0.062,0.36 0,0"
         style="fill:#ffffff;fill-opacity:1;fill-rule:nonzero;stroke:none;stroke-width:0.12093867"
         id="path1459"
         inkscape:connector-curvature="0" />
    </g>
    <g
       id="g1461"
       transform="matrix(2.9169974,0,0,-2.9169974,39.644921,256.91756)"
       style="stroke-width:0.12093867">
      <path
         d="m 0,0 c -0.689,-0.235 -1.057,-0.986 -0.822,-1.675 0.235,-0.69 0.986,-1.058 1.675,-0.823 0.69,0.236 1.058,0.986 0.823,1.676 C 1.44,-0.133 0.69,0.235 0,0"
         style="fill:#ffffff;fill-opacity:1;fill-rule:nonzero;stroke:none;stroke-width:0.12093867"
         id="path1463"
         inkscape:connector-curvature="0" />
    </g>
    <g
       id="g1465"
       transform="matrix(2.9169974,0,0,-2.9169974,57.41526,286.318)"
       style="stroke-width:0.12093867">
      <path
         d="m 0,0 c -0.358,0.036 -0.678,0.197 -0.915,0.441 -0.27,-0.276 -0.646,-0.448 -1.063,-0.448 -0.415,0 -0.79,0.172 -1.061,0.448 -0.269,-0.276 -0.646,-0.448 -1.061,-0.448 -0.416,0 -0.792,0.172 -1.061,0.448 -0.271,-0.276 -0.645,-0.448 -1.061,-0.448 -0.417,0 -0.792,0.172 -1.063,0.448 -0.267,-0.276 -0.643,-0.448 -1.06,-0.448 -0.415,0 -0.791,0.172 -1.061,0.448 -0.269,-0.276 -0.643,-0.448 -1.061,-0.448 -0.416,0 -0.792,0.172 -1.062,0.448 -0.269,-0.276 -0.644,-0.448 -1.06,-0.448 -0.417,0 -0.792,0.172 -1.06,0.448 -0.271,-0.276 -0.646,-0.448 -1.064,-0.448 -0.415,0 -0.79,0.172 -1.06,0.448 C -16.01,0.197 -16.332,0.036 -16.689,0 c 0.277,-0.301 0.571,-0.588 0.88,-0.859 H -0.88 C -0.572,-0.588 -0.277,-0.301 0,0"
         style="fill:#ffffff;fill-opacity:1;fill-rule:nonzero;stroke:none;stroke-width:0.12093867"
         id="path1467"
         inkscape:connector-curvature="0" />
    </g>
  </g>
</svg>
