<?xml version="1.0" encoding="UTF-8" standalone="no"?>
<!-- Created with Inkscape (http://www.inkscape.org/) -->

<svg
   xmlns:dc="http://purl.org/dc/elements/1.1/"
   xmlns:cc="http://creativecommons.org/ns#"
   xmlns:rdf="http://www.w3.org/1999/02/22-rdf-syntax-ns#"
   xmlns:svg="http://www.w3.org/2000/svg"
   xmlns="http://www.w3.org/2000/svg"
   xmlns:sodipodi="http://sodipodi.sourceforge.net/DTD/sodipodi-0.dtd"
   xmlns:inkscape="http://www.inkscape.org/namespaces/inkscape"
   width="250"
   height="250"
   viewBox="0 0 66.145832 66.145835"
   version="1.1"
   id="svg1422"
   inkscape:version="0.92.4 (5da689c313, 2019-01-14)"
   sodipodi:docname="eque even.svg">
  <defs
     id="defs1416" />
  <sodipodi:namedview
     id="base"
     pagecolor="#ffffff"
     bordercolor="#666666"
     borderopacity="1.0"
     inkscape:pageopacity="0.0"
     inkscape:pageshadow="2"
     inkscape:zoom="0.87673303"
     inkscape:cx="410.36568"
     inkscape:cy="51.776597"
     inkscape:document-units="mm"
     inkscape:current-layer="layer1"
     showgrid="false"
     units="px"
     inkscape:pagecheckerboard="true"
     inkscape:window-width="1366"
     inkscape:window-height="705"
     inkscape:window-x="-8"
     inkscape:window-y="-8"
     inkscape:window-maximized="1" />
  <metadata
     id="metadata1419">
    <rdf:RDF>
      <cc:Work
         rdf:about="">
        <dc:format>image/svg+xml</dc:format>
        <dc:type
           rdf:resource="http://purl.org/dc/dcmitype/StillImage" />
        <dc:title></dc:title>
      </cc:Work>
    </rdf:RDF>
  </metadata>
  <g
     inkscape:label="Layer 1"
     inkscape:groupmode="layer"
     id="layer1"
     transform="translate(0,-230.85415)">
    <g
       id="g865"
       transform="matrix(2.9169974,0,0,-2.9169974,66.145833,263.92707)"
       style="fill:#883381;fill-opacity:1;stroke-width:0.12093867">
      <path
         d="m 0,0 c 0,-6.262 -5.076,-11.338 -11.338,-11.338 -6.262,0 -11.338,5.076 -11.338,11.338 0,6.262 5.076,11.338 11.338,11.338 C -5.076,11.338 0,6.262 0,0"
         style="fill:#883381;fill-opacity:1;fill-rule:nonzero;stroke:none;stroke-width:0.12093867"
         id="path867"
         inkscape:connector-curvature="0" />
    </g>
    <g
       id="g1493"
       transform="matrix(2.9169974,0,0,-2.9169974,57.838233,282.2342)"
       style="stroke-width:0.12093867">
      <path
         d="m 0,0 c -0.271,-0.276 -0.646,-0.448 -1.061,-0.448 -0.417,0 -0.792,0.172 -1.061,0.448 -0.27,-0.276 -0.645,-0.448 -1.062,-0.448 -0.404,0 -0.769,0.163 -1.038,0.426 -0.114,0.28 -0.189,0.489 -0.26,0.649 -0.072,0.162 -0.957,2.015 -1.042,2.157 -0.033,0.056 -0.064,0.114 -0.108,0.168 -0.043,0.053 -0.101,0.105 -0.146,0.141 -0.054,0.044 -0.758,0.569 -1.508,1.098 1.583,1.202 2.673,1.133 3.277,1.12 0.206,-0.233 1.011,-1.18 1.889,-2.253 0.033,-0.042 0.089,-0.072 0.152,-0.048 0.07,0.027 0.403,0.2 0.442,0.232 0.044,0.034 0.046,0.072 0.037,0.123 L -2.54,7.958 c -0.023,0.1 -0.162,0.117 -0.204,0.017 L -3.191,7.026 c -0.502,0.356 -1.359,0.802 -2.568,0.945 -0.489,0.059 -0.96,0.03 -1.382,-0.04 -0.372,0.558 -1.193,1.746 -1.47,2.088 -0.144,0.273 -1,1.695 -1.141,1.864 -0.073,0.088 -0.146,0.147 -0.244,0.195 -0.368,0.181 -0.812,0.031 -0.994,-0.337 -0.129,-0.26 -0.094,-0.535 0.074,-0.776 0.167,-0.242 0.761,-0.877 1.148,-1.282 0.173,-0.181 0.313,-0.328 0.36,-0.372 C -9.246,9.163 -8.338,8.31 -7.77,7.789 -8.057,7.707 -8.304,7.615 -8.5,7.533 c 0,0 -1.379,1.689 -1.396,1.707 -0.063,0.073 -0.136,0.123 -0.136,0.123 -0.252,0.179 -0.643,0.223 -1.425,0.36 -0.127,-0.264 -0.175,-0.552 -0.046,-0.901 l -3.139,1.452 c -0.338,-2.786 0.747,-4.84 4.278,-6.39 0.166,-0.073 3.59,-1.549 3.975,-1.709 0.305,-0.448 1.086,-1.532 1.285,-1.808 0.022,-0.178 0.074,-0.528 0.112,-0.78 -0.101,-0.023 -0.207,-0.035 -0.315,-0.035 -0.415,0 -0.792,0.172 -1.061,0.448 -0.27,-0.276 -0.645,-0.448 -1.06,-0.448 -0.417,0 -0.792,0.172 -1.063,0.448 -0.269,-0.276 -0.643,-0.448 -1.061,-0.448 -0.416,0 -0.79,0.172 -1.06,0.448 -0.269,-0.276 -0.644,-0.448 -1.062,-0.448 -0.415,0 -0.791,0.172 -1.061,0.448 -0.27,-0.276 -0.645,-0.448 -1.061,-0.448 -0.416,0 -0.792,0.172 -1.06,0.448 -0.271,-0.276 -0.645,-0.448 -1.063,-0.448 -0.416,0 -0.79,0.172 -1.061,0.448 -0.183,-0.188 -0.416,-0.325 -0.678,-0.396 0.229,-0.313 0.473,-0.615 0.732,-0.903 h 16.872 c 0.259,0.288 0.503,0.59 0.732,0.903 C 0.416,-0.325 0.183,-0.188 0,0"
         style="fill:#ffffff;fill-opacity:1;fill-rule:nonzero;stroke:none;stroke-width:0.12093867"
         id="path1495"
         inkscape:connector-curvature="0" />
    </g>
    <g
       id="g1497"
       transform="matrix(2.9169974,0,0,-2.9169974,24.794463,242.1371)"
       style="stroke-width:0.12093867">
      <path
         d="M 0,0 0.669,-0.137 C 0.642,-0.257 0.616,-0.375 0.594,-0.476 0.557,-0.651 0.559,-0.786 0.623,-0.935 0.651,-1 0.758,-1.18 0.818,-1.262 l 0.247,0.15 c 0,0 -0.161,0.224 -0.198,0.335 -0.017,0.053 -0.016,0.14 0.007,0.245 0.023,0.103 0.05,0.224 0.075,0.337 l 1.184,-0.242 c 0.025,-0.005 0.036,0.025 0.02,0.045 -0.165,0.188 -0.327,0.369 -0.327,0.369 0,0 0.128,0.931 -0.741,1.083 C 0.24,1.207 0.039,0.532 -0.03,0.052 -0.032,0.03 -0.022,0.005 0,0"
         style="fill:#ffffff;fill-opacity:1;fill-rule:nonzero;stroke:none;stroke-width:0.12093867"
         id="path1499"
         inkscape:connector-curvature="0" />
    </g>
  </g>
</svg>
