<?xml version="1.0" encoding="UTF-8" standalone="no"?>
<!-- Created with Inkscape (http://www.inkscape.org/) -->

<svg
   xmlns:dc="http://purl.org/dc/elements/1.1/"
   xmlns:cc="http://creativecommons.org/ns#"
   xmlns:rdf="http://www.w3.org/1999/02/22-rdf-syntax-ns#"
   xmlns:svg="http://www.w3.org/2000/svg"
   xmlns="http://www.w3.org/2000/svg"
   xmlns:sodipodi="http://sodipodi.sourceforge.net/DTD/sodipodi-0.dtd"
   xmlns:inkscape="http://www.inkscape.org/namespaces/inkscape"
   width="250"
   height="250"
   viewBox="0 0 66.145832 66.145835"
   version="1.1"
   id="svg1422"
   inkscape:version="0.92.4 (5da689c313, 2019-01-14)"
   sodipodi:docname="eque dressage.svg">
  <defs
     id="defs1416" />
  <sodipodi:namedview
     id="base"
     pagecolor="#ffffff"
     bordercolor="#666666"
     borderopacity="1.0"
     inkscape:pageopacity="0.0"
     inkscape:pageshadow="2"
     inkscape:zoom="0.87673303"
     inkscape:cx="410.36568"
     inkscape:cy="51.776597"
     inkscape:document-units="mm"
     inkscape:current-layer="layer1"
     showgrid="false"
     units="px"
     inkscape:pagecheckerboard="true"
     inkscape:window-width="1366"
     inkscape:window-height="705"
     inkscape:window-x="-8"
     inkscape:window-y="-8"
     inkscape:window-maximized="1" />
  <metadata
     id="metadata1419">
    <rdf:RDF>
      <cc:Work
         rdf:about="">
        <dc:format>image/svg+xml</dc:format>
        <dc:type
           rdf:resource="http://purl.org/dc/dcmitype/StillImage" />
        <dc:title></dc:title>
      </cc:Work>
    </rdf:RDF>
  </metadata>
  <g
     inkscape:label="Layer 1"
     inkscape:groupmode="layer"
     id="layer1"
     transform="translate(0,-230.85415)">
    <g
       id="g1165"
       transform="matrix(2.9168688,0,0,-2.9169974,66.145833,263.92707)"
       style="fill:#883381;fill-opacity:1;stroke-width:0.12094134">
      <path
         d="m 0,0 c 0,-6.262 -5.077,-11.338 -11.339,-11.338 -6.262,0 -11.338,5.076 -11.338,11.338 0,6.262 5.076,11.338 11.338,11.338 C -5.077,11.338 0,6.262 0,0"
         style="fill:#883381;fill-opacity:1;fill-rule:nonzero;stroke:none;stroke-width:0.12094134"
         id="path1167"
         inkscape:connector-curvature="0" />
    </g>
    <g
       id="g1169"
       transform="matrix(2.9169974,0,0,-2.9169974,50.0878,252.24453)"
       style="stroke-width:0.12093867">
      <path
         d="m 0,0 -0.778,-0.9 c -0.048,0.022 -0.12,0.044 -0.147,0.052 -1.173,0.336 -2.67,0.233 -4.028,-0.808 -0.223,-0.171 -0.421,-0.359 -0.599,-0.553 -0.55,0.389 -1.326,0.928 -1.674,1.148 -0.208,0.404 -0.918,1.665 -1.012,1.794 -0.068,0.092 -0.128,0.155 -0.236,0.213 -0.36,0.194 -0.808,0.063 -1.004,-0.295 -0.096,-0.177 -0.12,-0.371 -0.069,-0.55 0.022,-0.079 0.062,-0.157 0.111,-0.227 0.159,-0.23 1.112,-1.414 1.462,-1.718 0.016,-0.013 0.033,-0.027 0.048,-0.036 0.032,-0.02 0.059,-0.034 0.079,-0.044 0.076,-0.04 1.121,-0.484 1.89,-0.791 -0.124,-0.174 -0.233,-0.348 -0.326,-0.513 h -0.781 c -0.214,0.153 -0.83,0.618 -1.11,0.796 -0.035,0.023 -0.08,0.049 -0.103,0.06 -0.197,0.105 -0.656,0.198 -1.417,0.311 -0.058,-0.304 -0.08,-0.754 0.138,-1.167 h -3.551 c 0.859,-2.672 2.598,-3.988 6.559,-3.988 h 0.945 l 0.004,-5.488 c 0,-0.012 0.001,-0.026 0.001,-0.038 0.011,-0.103 0.072,-0.161 0.14,-0.171 0.013,-0.002 0.031,-0.003 0.044,-0.003 0.054,0 0.684,-0.004 0.734,-0.004 0.023,0 0.042,0.002 0.055,0.006 0.042,0.013 0.067,0.042 0.053,0.108 -0.002,0.009 -0.007,0.028 -0.011,0.038 0,0 -0.33,1.021 -0.431,1.319 0.084,0.361 0.697,3.309 0.89,4.221 0.262,0 1.724,0.009 2.051,0.015 0.065,-0.539 0.169,-1.331 0.219,-1.718 -0.314,-0.159 -0.832,-0.431 -0.832,-0.431 -0.095,-0.051 -0.136,-0.128 -0.136,-0.246 v -0.856 c 0,-0.011 10e-4,-0.021 0.004,-0.03 0.022,-0.06 0.092,-0.077 0.158,-0.034 0.066,0.042 1.111,0.899 1.402,1.189 0.026,0.026 0.047,0.06 0.059,0.09 0.01,0.025 0.02,0.061 0.024,0.096 0.046,0.402 0.125,2.209 0.111,2.505 -0.011,0.232 -0.144,0.41 -0.368,0.493 -0.223,0.083 -1.09,0.271 -2.011,0.461 0.289,1.956 1.026,2.659 1.738,2.98 0.237,-0.504 0.603,-1.301 0.978,-2.189 0.021,-0.049 0.066,-0.094 0.134,-0.088 0.075,0.008 0.442,0.084 0.488,0.104 0.051,0.022 0.064,0.058 0.069,0.109 l 0.229,4.706 C 0.197,0.03 0.067,0.084 0,0"
         style="fill:#ffffff;fill-opacity:1;fill-rule:nonzero;stroke:none;stroke-width:0.12093867"
         id="path1171"
         inkscape:connector-curvature="0" />
    </g>
    <g
       id="g1173"
       transform="matrix(2.9169974,0,0,-2.9169974,27.79021,244.21112)"
       style="stroke-width:0.12093867">
      <path
         d="M 0,0 H -0.332 V 0.943 H -2.09 V 0 H -2.456 V -0.366 H 0"
         style="fill:#ffffff;fill-opacity:1;fill-rule:nonzero;stroke:none;stroke-width:0.12093867"
         id="path1175"
         inkscape:connector-curvature="0" />
    </g>
  </g>
</svg>
