<?xml version="1.0" encoding="UTF-8" standalone="no"?>
<!-- Created with Inkscape (http://www.inkscape.org/) -->

<svg
   xmlns:dc="http://purl.org/dc/elements/1.1/"
   xmlns:cc="http://creativecommons.org/ns#"
   xmlns:rdf="http://www.w3.org/1999/02/22-rdf-syntax-ns#"
   xmlns:svg="http://www.w3.org/2000/svg"
   xmlns="http://www.w3.org/2000/svg"
   xmlns:sodipodi="http://sodipodi.sourceforge.net/DTD/sodipodi-0.dtd"
   xmlns:inkscape="http://www.inkscape.org/namespaces/inkscape"
   width="250"
   height="250"
   viewBox="0 0 66.145832 66.145835"
   version="1.1"
   id="svg1422"
   inkscape:version="0.92.4 (5da689c313, 2019-01-14)"
   sodipodi:docname="eque jum.svg">
  <defs
     id="defs1416" />
  <sodipodi:namedview
     id="base"
     pagecolor="#ffffff"
     bordercolor="#666666"
     borderopacity="1.0"
     inkscape:pageopacity="0.0"
     inkscape:pageshadow="2"
     inkscape:zoom="0.87673303"
     inkscape:cx="410.36568"
     inkscape:cy="51.776597"
     inkscape:document-units="mm"
     inkscape:current-layer="layer1"
     showgrid="false"
     units="px"
     inkscape:pagecheckerboard="true"
     inkscape:window-width="1366"
     inkscape:window-height="705"
     inkscape:window-x="-8"
     inkscape:window-y="-8"
     inkscape:window-maximized="1" />
  <metadata
     id="metadata1419">
    <rdf:RDF>
      <cc:Work
         rdf:about="">
        <dc:format>image/svg+xml</dc:format>
        <dc:type
           rdf:resource="http://purl.org/dc/dcmitype/StillImage" />
        <dc:title></dc:title>
      </cc:Work>
    </rdf:RDF>
  </metadata>
  <g
     inkscape:label="Layer 1"
     inkscape:groupmode="layer"
     id="layer1"
     transform="translate(0,-230.85415)">
    <g
       id="g1177"
       transform="matrix(2.9169974,0,0,-2.9169974,66.14875,263.92707)"
       style="fill:#883381;fill-opacity:1;stroke-width:0.12093867">
      <path
         d="m 0,0 c 0,-6.262 -5.077,-11.338 -11.339,-11.338 -6.262,0 -11.338,5.076 -11.338,11.338 0,6.262 5.076,11.338 11.338,11.338 C -5.077,11.338 0,6.262 0,0"
         style="fill:#883381;fill-opacity:1;fill-rule:nonzero;stroke:none;stroke-width:0.12093867"
         id="path1179"
         inkscape:connector-curvature="0" />
    </g>
    <g
       id="g1181"
       transform="matrix(2.9169974,0,0,-2.9169974,45.40311,277.02445)"
       style="stroke-width:0.12093867">
      <path
         d="m 0,0 c -0.294,0 -0.532,-0.238 -0.532,-0.532 0,-0.293 0.238,-0.532 0.532,-0.532 0.293,0 0.532,0.239 0.532,0.532 C 0.532,-0.238 0.293,0 0,0"
         style="fill:#ffffff;fill-opacity:1;fill-rule:nonzero;stroke:none;stroke-width:0.12093867"
         id="path1183"
         inkscape:connector-curvature="0" />
    </g>
    <g
       id="g1185"
       transform="matrix(2.9169974,0,0,-2.9169974,45.40311,281.93082)"
       style="stroke-width:0.12093867">
      <path
         d="m 0,0 c -0.294,0 -0.532,-0.239 -0.532,-0.532 0,-0.294 0.238,-0.532 0.532,-0.532 0.293,0 0.532,0.238 0.532,0.532 C 0.532,-0.239 0.293,0 0,0"
         style="fill:#ffffff;fill-opacity:1;fill-rule:nonzero;stroke:none;stroke-width:0.12093867"
         id="path1187"
         inkscape:connector-curvature="0" />
    </g>
    <g
       id="g1189"
       transform="matrix(2.9169974,0,0,-2.9169974,30.23757,248.36786)"
       style="stroke-width:0.12093867">
      <path
         d="M 0,0 0.704,0.003 C 0.703,-0.124 0.7,-0.249 0.7,-0.356 0.699,-0.54 0.729,-0.676 0.825,-0.812 c 0.042,-0.06 0.188,-0.219 0.267,-0.29 l 0.217,0.205 c 0,0 -0.21,0.191 -0.27,0.295 -0.029,0.05 -0.046,0.138 -0.045,0.248 0.002,0.11 0.003,0.238 0.005,0.358 l 1.245,0.004 c 0.027,0 0.032,0.033 0.011,0.049 -0.206,0.155 -0.407,0.304 -0.407,0.304 0,0 -0.067,0.967 -0.975,0.937 C -0.012,1.268 -0.072,0.545 -0.041,0.046 -0.04,0.024 -0.023,0 0,0"
         style="fill:#ffffff;fill-opacity:1;fill-rule:nonzero;stroke:none;stroke-width:0.12093867"
         id="path1191"
         inkscape:connector-curvature="0" />
    </g>
    <g
       id="g1193"
       transform="matrix(2.9169974,0,0,-2.9169974,51.0358,260.39751)"
       style="stroke-width:0.12093867">
      <path
         d="M 0,0 -1.688,4.553 C -1.726,4.652 -1.87,4.652 -1.9,4.544 L -2.272,3.381 C -2.923,3.429 -4.271,3.272 -5.467,2.255 -5.984,1.814 -6.384,1.247 -6.676,0.732 c -0.418,0.161 -0.998,0.379 -1.48,0.552 0.348,0.4 0.828,0.966 0.917,1.1 0.063,0.096 0.105,0.196 0.121,0.308 0.062,0.416 -0.227,0.804 -0.644,0.866 C -8.057,3.601 -8.305,3.49 -8.498,3.24 -8.69,2.989 -9.576,1.416 -9.639,1.215 -9.663,1.147 -9.674,1.073 -9.669,0.996 -9.654,0.75 -9.486,0.552 -9.251,0.498 c 0.235,-0.054 1.419,-0.217 2.283,-0.334 -0.1,-0.216 -0.176,-0.403 -0.229,-0.542 l -1.727,-0.786 -1.604,2.305 c 0,0 -0.59,-0.211 -0.872,-0.726 -0.111,-0.203 -0.177,-0.452 -0.136,-0.754 0.028,-0.203 0.108,-0.361 0.239,-0.506 0.12,-0.134 0.552,-0.509 1.057,-0.922 l -3.665,-1.697 c 1.093,-1.184 2.477,-1.556 4.002,-1.624 1.391,-0.061 2.399,0.159 4.056,0.842 0.159,0.066 2.463,1.079 3.48,1.542 -0.066,-0.462 -0.137,-0.961 -0.177,-1.249 L -3.486,-4.124 C -3.504,-4.128 -3.521,-4.132 -3.537,-4.138 -3.6,-4.162 -3.644,-4.206 -3.674,-4.268 -3.682,-4.285 -3.688,-4.304 -3.694,-4.324 L -3.96,-5.217 c -10e-4,-0.007 -0.003,-0.014 -0.004,-0.02 -0.004,-0.06 0.056,-0.099 0.112,-0.09 0.008,0.002 0.017,0.005 0.025,0.009 0,0 1.555,0.677 1.708,0.759 0.055,0.03 0.092,0.057 0.119,0.084 0.033,0.035 0.053,0.073 0.072,0.116 0.12,0.281 0.704,2.107 0.774,2.367 0.022,0.084 0.044,0.188 0.03,0.292 -0.036,0.282 -0.26,0.44 -0.465,0.471 -0.011,0.001 -0.084,0.011 -0.2,-0.004 -0.401,-0.053 -1.394,-0.245 -2.074,-0.416 0.24,1.703 0.819,2.445 1.457,2.921 0.429,-0.384 1.092,-0.987 1.802,-1.671 0.04,-0.037 0.101,-0.061 0.162,-0.029 0.068,0.038 0.385,0.259 0.422,0.296 C 0.02,-0.09 0.016,-0.051 0,0"
         style="fill:#ffffff;fill-opacity:1;fill-rule:nonzero;stroke:none;stroke-width:0.12093867"
         id="path1195"
         inkscape:connector-curvature="0" />
    </g>
  </g>
</svg>
