<?xml version="1.0" encoding="UTF-8" standalone="no"?>
<!-- Created with Inkscape (http://www.inkscape.org/) -->

<svg
   xmlns:dc="http://purl.org/dc/elements/1.1/"
   xmlns:cc="http://creativecommons.org/ns#"
   xmlns:rdf="http://www.w3.org/1999/02/22-rdf-syntax-ns#"
   xmlns:svg="http://www.w3.org/2000/svg"
   xmlns="http://www.w3.org/2000/svg"
   xmlns:sodipodi="http://sodipodi.sourceforge.net/DTD/sodipodi-0.dtd"
   xmlns:inkscape="http://www.inkscape.org/namespaces/inkscape"
   width="250"
   height="250"
   viewBox="0 0 66.145832 66.145835"
   version="1.1"
   id="svg1422"
   inkscape:version="0.92.4 (5da689c313, 2019-01-14)"
   sodipodi:docname="fencing.svg">
  <defs
     id="defs1416" />
  <sodipodi:namedview
     id="base"
     pagecolor="#ffffff"
     bordercolor="#666666"
     borderopacity="1.0"
     inkscape:pageopacity="0.0"
     inkscape:pageshadow="2"
     inkscape:zoom="0.9725031"
     inkscape:cx="238.71181"
     inkscape:cy="-20.682622"
     inkscape:document-units="mm"
     inkscape:current-layer="layer1"
     showgrid="false"
     units="px"
     inkscape:pagecheckerboard="true"
     inkscape:window-width="1366"
     inkscape:window-height="705"
     inkscape:window-x="-8"
     inkscape:window-y="-8"
     inkscape:window-maximized="1"
     showguides="false" />
  <metadata
     id="metadata1419">
    <rdf:RDF>
      <cc:Work
         rdf:about="">
        <dc:format>image/svg+xml</dc:format>
        <dc:type
           rdf:resource="http://purl.org/dc/dcmitype/StillImage" />
        <dc:title></dc:title>
      </cc:Work>
    </rdf:RDF>
  </metadata>
  <g
     inkscape:label="Layer 1"
     inkscape:groupmode="layer"
     id="layer1"
     transform="translate(0,-230.85415)">
    <g
       id="g861"
       transform="matrix(2.9168688,0,0,-2.9169974,66.145833,263.92707)"
       style="fill:#842435;fill-opacity:1;stroke-width:0.12094134">
      <path
         d="m 0,0 c 0,-6.262 -5.077,-11.338 -11.339,-11.338 -6.262,0 -11.338,5.076 -11.338,11.338 0,6.262 5.076,11.338 11.338,11.338 C -5.077,11.338 0,6.262 0,0"
         style="fill:#842435;fill-opacity:1;fill-rule:nonzero;stroke:none;stroke-width:0.12094134"
         id="path863"
         inkscape:connector-curvature="0" />
    </g>
    <g
       id="g1501"
       transform="matrix(2.9169974,0,0,-2.9169974,11.425874,254.99816)"
       style="stroke-width:0.12093867">
      <path
         d="M 0,0 C 0.103,-0.179 0.291,-0.279 0.483,-0.279 L 0.482,0.026 5.986,-0.487 C 5.869,0.083 5.816,0.614 5.861,1.03 L 0.482,0.529 V 0.835 C 0.388,0.835 0.293,0.812 0.206,0.761 0.071,0.684 -0.019,0.559 -0.055,0.421 H -3.372 C -3.404,0.322 -3.434,0.225 -3.463,0.125 h 3.41 C -0.04,0.082 -0.023,0.041 0,0"
         style="fill:#ffffff;fill-opacity:1;fill-rule:nonzero;stroke:none;stroke-width:0.12093867"
         id="path1503"
         inkscape:connector-curvature="0" />
    </g>
    <g
       id="g1505"
       transform="matrix(2.9169974,0,0,-2.9169974,33.62423,243.34771)"
       style="stroke-width:0.12093867">
      <path
         d="M 0,0 C 0,0 -0.418,0.115 -0.922,0.115 V -2.213 L 0,-1.848"
         style="fill:#ffffff;fill-opacity:1;fill-rule:nonzero;stroke:none;stroke-width:0.12093867"
         id="path1507"
         inkscape:connector-curvature="0" />
    </g>
    <g
       id="g1509"
       transform="matrix(2.9169974,0,0,-2.9169974,33.56588,253.70015)"
       style="stroke-width:0.12093867">
      <path
         d="M 0,0 C 0.026,-0.342 0.244,-0.625 0.54,-0.749 1.048,-0.965 3.665,-1.881 3.704,-1.895 4.32,-2.24 6.365,-3.383 6.672,-3.548 6.737,-3.585 6.816,-3.601 6.896,-3.586 7.075,-3.552 7.192,-3.378 7.157,-3.199 7.144,-3.125 7.106,-3.063 7.054,-3.017 6.805,-2.795 4.448,-1.027 4.193,-0.885 3.737,-0.583 1.574,0.711 1.261,0.863 1.127,0.927 0.976,0.958 0.816,0.947 0.33,0.911 -0.036,0.487 0,0"
         style="fill:#ffffff;fill-opacity:1;fill-rule:nonzero;stroke:none;stroke-width:0.12093867"
         id="path1511"
         inkscape:connector-curvature="0" />
    </g>
    <g
       id="g1513"
       transform="matrix(2.9169974,0,0,-2.9169974,29.9634,249.94882)"
       style="stroke-width:0.12093867">
      <path
         d="M 0,0 V 2.363 C -0.742,2.27 -0.933,1.777 -0.933,1.181 -0.933,0.585 -0.742,0.092 0,0"
         style="fill:#ffffff;fill-opacity:1;fill-rule:nonzero;stroke:none;stroke-width:0.12093867"
         id="path1515"
         inkscape:connector-curvature="0" />
    </g>
    <g
       id="g1517"
       transform="matrix(2.9169974,0,0,-2.9169974,36.22036,262.11276)"
       style="stroke-width:0.12093867">
      <path
         d="m 0,0 c -0.294,0.083 -0.691,0.047 -0.865,0.007 -0.458,-0.08 -3.059,-1.01 -3.68,-1.233 -0.203,-0.083 -0.343,-0.285 -0.385,-0.506 -0.247,-1.638 -0.46,-3.334 -0.622,-4.992 -0.005,-0.059 0.004,-0.12 0.032,-0.177 0.082,-0.172 0.29,-0.244 0.462,-0.161 0.085,0.041 0.146,0.113 0.176,0.196 0.061,0.172 0.867,3.037 1.208,4.317 0.81,0.06 2.247,0.203 3.072,0.35 l 6.995,-4.84 c 0.059,-0.042 0.131,-0.065 0.209,-0.062 0.191,0.008 0.34,0.168 0.332,0.359 C 6.93,-6.65 6.891,-6.569 6.83,-6.509 L 0.499,-0.282 C 0.431,-0.216 0.354,-0.157 0.268,-0.109 0.194,-0.066 0.081,-0.021 0,0"
         style="fill:#ffffff;fill-opacity:1;fill-rule:nonzero;stroke:none;stroke-width:0.12093867"
         id="path1519"
         inkscape:connector-curvature="0" />
    </g>
  </g>
</svg>
