<?xml version="1.0" encoding="UTF-8" standalone="no"?>
<!-- Created with Inkscape (http://www.inkscape.org/) -->

<svg
   xmlns:dc="http://purl.org/dc/elements/1.1/"
   xmlns:cc="http://creativecommons.org/ns#"
   xmlns:rdf="http://www.w3.org/1999/02/22-rdf-syntax-ns#"
   xmlns:svg="http://www.w3.org/2000/svg"
   xmlns="http://www.w3.org/2000/svg"
   xmlns:sodipodi="http://sodipodi.sourceforge.net/DTD/sodipodi-0.dtd"
   xmlns:inkscape="http://www.inkscape.org/namespaces/inkscape"
   width="250"
   height="250"
   viewBox="0 0 66.145832 66.145835"
   version="1.1"
   id="svg1422"
   inkscape:version="0.92.4 (5da689c313, 2019-01-14)"
   sodipodi:docname="hockey.svg">
  <defs
     id="defs1416" />
  <sodipodi:namedview
     id="base"
     pagecolor="#ffffff"
     bordercolor="#666666"
     borderopacity="1.0"
     inkscape:pageopacity="0.0"
     inkscape:pageshadow="2"
     inkscape:zoom="0.9725031"
     inkscape:cx="273.67313"
     inkscape:cy="183.94398"
     inkscape:document-units="mm"
     inkscape:current-layer="layer1"
     showgrid="false"
     units="px"
     inkscape:pagecheckerboard="true"
     inkscape:window-width="1366"
     inkscape:window-height="705"
     inkscape:window-x="-8"
     inkscape:window-y="-8"
     inkscape:window-maximized="1"
     showguides="false" />
  <metadata
     id="metadata1419">
    <rdf:RDF>
      <cc:Work
         rdf:about="">
        <dc:format>image/svg+xml</dc:format>
        <dc:type
           rdf:resource="http://purl.org/dc/dcmitype/StillImage" />
        <dc:title></dc:title>
      </cc:Work>
    </rdf:RDF>
  </metadata>
  <g
     inkscape:label="Layer 1"
     inkscape:groupmode="layer"
     id="layer1"
     transform="translate(0,-230.85415)">
    <g
       id="g869"
       transform="matrix(2.9168688,0,0,-2.9169974,66.145834,263.92707)"
       style="fill:#2c4c98;fill-opacity:1;stroke-width:0.12094134">
      <path
         d="m 0,0 c 0,-6.262 -5.077,-11.338 -11.339,-11.338 -6.262,0 -11.338,5.076 -11.338,11.338 0,6.262 5.076,11.338 11.338,11.338 C -5.077,11.338 0,6.262 0,0"
         style="fill:#2c4c98;fill-opacity:1;fill-rule:nonzero;stroke:none;stroke-width:0.12094134"
         id="path871"
         inkscape:connector-curvature="0" />
    </g>
    <g
       id="g873"
       transform="matrix(2.9168688,0,0,-2.9169974,16.856554,281.75875)"
       style="stroke-width:0.12094134">
      <path
         d="m 0,0 c -0.292,0 -0.529,-0.238 -0.529,-0.53 0,-0.292 0.237,-0.529 0.529,-0.529 0.293,0 0.53,0.237 0.53,0.529 C 0.53,-0.238 0.293,0 0,0"
         style="fill:#ffffff;fill-opacity:1;fill-rule:nonzero;stroke:none;stroke-width:0.12094134"
         id="path875"
         inkscape:connector-curvature="0" />
    </g>
    <g
       id="g877"
       transform="matrix(2.9168688,0,0,-2.9169974,30.349974,246.99104)"
       style="stroke-width:0.12094134">
      <path
         d="M 0,0 C 0.623,0 1.128,0.505 1.128,1.128 1.128,1.751 0.623,2.256 0,2.256 -0.624,2.256 -1.128,1.751 -1.128,1.128 -1.128,0.505 -0.624,0 0,0"
         style="fill:#ffffff;fill-opacity:1;fill-rule:nonzero;stroke:none;stroke-width:0.12094134"
         id="path879"
         inkscape:connector-curvature="0" />
    </g>
    <g
       id="g881"
       transform="matrix(2.9168688,0,0,-2.9169974,45.185144,260.58422)"
       style="stroke-width:0.12094134">
      <path
         d="m 0,0 c -0.019,0.323 -0.183,0.594 -0.457,0.778 -0.474,0.32 -1.117,0.198 -1.441,-0.273 -0.37,-0.472 -2.428,-3.298 -2.428,-3.298 -0.047,-0.07 -0.08,-0.145 -0.101,-0.222 l -1.461,-5.242 c -0.022,-0.072 -0.023,-0.151 -0.001,-0.229 0.062,-0.218 0.29,-0.346 0.508,-0.283 0.111,0.032 0.199,0.106 0.25,0.201 0.123,0.173 1.653,3.888 2.048,4.913 0.296,0.251 0.882,0.774 1.469,1.351 0.184,-0.833 0.352,-1.593 0.352,-1.593 0.088,-0.347 0.411,-0.572 0.756,-0.548 0.522,0.009 4.819,0.104 4.92,0.104 0.078,-0.003 0.157,0.017 0.228,0.062 0.184,0.119 0.236,0.363 0.118,0.546 C 4.701,-3.642 4.606,-3.582 4.508,-3.56 4.226,-3.513 1.485,-3.189 0.143,-3.051 0.098,-2.141 0.02,-0.536 0,0"
         style="fill:#ffffff;fill-opacity:1;fill-rule:nonzero;stroke:none;stroke-width:0.12094134"
         id="path883"
         inkscape:connector-curvature="0" />
    </g>
    <g
       id="g885"
       transform="matrix(2.9168688,0,0,-2.9169974,27.584784,265.05888)"
       style="stroke-width:0.12094134">
      <path
         d="m 0,0 c -0.004,-0.016 -0.006,-0.032 -0.007,-0.048 0,0 -4.162,-3.451 -4.378,-3.628 -0.11,-0.09 -0.212,-0.128 -0.294,-0.118 -0.044,0.005 -0.077,0.024 -0.103,0.059 -0.076,0.107 0.046,0.231 0.098,0.28 0.124,0.117 0.13,0.291 0.043,0.39 -0.095,0.106 -0.279,0.123 -0.399,0.025 -0.403,-0.329 -0.366,-0.752 -0.178,-1.009 0.114,-0.156 0.286,-0.257 0.478,-0.28 0.053,-0.007 0.107,-0.007 0.16,-0.002 0.184,0.016 0.444,0.152 0.609,0.292 0.352,0.297 9.09,7.706 9.467,8.024 C 5.576,4.06 5.633,4.163 5.65,4.28 5.668,4.406 5.636,4.527 5.572,4.625 5.264,5.058 3.833,6.501 3.403,6.773 3.302,6.837 3.186,6.881 3.061,6.899 2.588,6.967 2.149,6.638 2.082,6.165 2.036,5.846 2.172,5.542 2.409,5.358 2.665,5.141 3.675,4.584 4.351,4.219 3.681,3.506 2.422,2.165 2.212,1.936 2.171,1.89 2.144,1.829 2.141,1.762 2.141,1.755 2.143,1.748 2.143,1.74 1.896,1.534 1.462,1.173 1.026,0.81 1.436,1.636 1.955,2.699 2.052,2.978 2.095,3.098 2.14,3.357 2.158,3.646 1.444,4.239 1.076,4.77 0.917,5.236 0.916,4.639 1.008,3.568 1.053,3.164 0.86,2.679 0.077,0.319 0,0"
         style="fill:#ffffff;fill-opacity:1;fill-rule:nonzero;stroke:none;stroke-width:0.12094134"
         id="path887"
         inkscape:connector-curvature="0" />
    </g>
  </g>
</svg>
