<?xml version="1.0" encoding="UTF-8" standalone="no"?>
<!-- Created with Inkscape (http://www.inkscape.org/) -->

<svg
   xmlns:dc="http://purl.org/dc/elements/1.1/"
   xmlns:cc="http://creativecommons.org/ns#"
   xmlns:rdf="http://www.w3.org/1999/02/22-rdf-syntax-ns#"
   xmlns:svg="http://www.w3.org/2000/svg"
   xmlns="http://www.w3.org/2000/svg"
   xmlns:sodipodi="http://sodipodi.sourceforge.net/DTD/sodipodi-0.dtd"
   xmlns:inkscape="http://www.inkscape.org/namespaces/inkscape"
   width="250"
   height="250"
   viewBox="0 0 66.145832 66.145835"
   version="1.1"
   id="svg1422"
   inkscape:version="0.92.4 (5da689c313, 2019-01-14)"
   sodipodi:docname="gymna rhyt.svg">
  <defs
     id="defs1416" />
  <sodipodi:namedview
     id="base"
     pagecolor="#ffffff"
     bordercolor="#666666"
     borderopacity="1.0"
     inkscape:pageopacity="0.0"
     inkscape:pageshadow="2"
     inkscape:zoom="0.98118755"
     inkscape:cx="90.752821"
     inkscape:cy="80.808704"
     inkscape:document-units="mm"
     inkscape:current-layer="layer1"
     showgrid="false"
     units="px"
     inkscape:pagecheckerboard="true"
     inkscape:window-width="1366"
     inkscape:window-height="705"
     inkscape:window-x="-8"
     inkscape:window-y="-8"
     inkscape:window-maximized="1" />
  <metadata
     id="metadata1419">
    <rdf:RDF>
      <cc:Work
         rdf:about="">
        <dc:format>image/svg+xml</dc:format>
        <dc:type
           rdf:resource="http://purl.org/dc/dcmitype/StillImage" />
        <dc:title></dc:title>
      </cc:Work>
    </rdf:RDF>
  </metadata>
  <g
     inkscape:label="Layer 1"
     inkscape:groupmode="layer"
     id="layer1"
     transform="translate(0,-230.85415)">
    <g
       id="g889"
       transform="matrix(2.9168688,0,0,-2.9168688,66.145834,263.92852)"
       style="fill:#2c4c98;fill-opacity:1;stroke-width:0.120944">
      <path
         d="m 0,0 c 0,-6.262 -5.077,-11.338 -11.339,-11.338 -6.262,0 -11.338,5.076 -11.338,11.338 0,6.263 5.076,11.339 11.338,11.339 C -5.077,11.339 0,6.263 0,0"
         style="fill:#2c4c98;fill-opacity:1;fill-rule:nonzero;stroke:none;stroke-width:0.120944"
         id="path891"
         inkscape:connector-curvature="0" />
    </g>
    <g
       id="g893"
       transform="matrix(2.9168688,0,0,-2.9168688,50.945994,269.67184)"
       style="stroke-width:0.120944">
      <path
         d="M 0,0 C 0.134,0.158 0.115,0.396 -0.044,0.531 -0.123,0.597 -0.22,0.626 -0.316,0.619 -0.597,0.594 -4.48,-0.174 -4.925,-0.269 c -0.555,0.018 -2.956,0.113 -3.767,0.073 -0.051,-0.002 -0.101,-0.007 -0.152,-0.016 -0.12,-0.022 -0.231,-0.063 -0.332,-0.12 -0.464,-0.276 -3.45,-2.973 -3.45,-2.973 -0.298,-0.261 -0.329,-0.715 -0.068,-1.013 0.066,-0.075 0.145,-0.134 0.23,-0.174 0,0 4.518,-2.32 4.902,-2.494 0.053,-0.024 0.134,-0.043 0.208,-0.035 0.218,0.024 0.375,0.22 0.352,0.437 -0.014,0.121 -0.08,0.224 -0.174,0.288 -0.338,0.256 -2.29,1.554 -3.628,2.433 0.83,0.517 1.963,1.23 2.531,1.598 0.892,0.159 3.389,0.613 3.389,0.613 0.124,0.022 0.239,0.054 0.332,0.086 0,0 4.066,1.316 4.393,1.457 C -0.061,-0.067 -0.044,-0.052 0,0"
         style="fill:#ffffff;fill-opacity:1;fill-rule:nonzero;stroke:none;stroke-width:0.120944"
         id="path895"
         inkscape:connector-curvature="0" />
    </g>
    <g
       id="g897"
       transform="matrix(2.9168688,0,0,-2.9168688,54.947924,248.03447)"
       style="stroke-width:0.120944">
      <path
         d="m 0,0 c -1.314,2.007 -3.358,2.98 -4.841,3.442 -1.6,0.499 -2.553,0.5 -3.047,0.531 0,0 -2.754,-4.545 -2.961,-4.912 -0.086,-0.153 -0.122,-0.291 -0.122,-0.406 0,-0.363 -0.025,-1.506 -0.033,-2.25 0.082,0.027 0.168,0.049 0.256,0.064 0.466,0.081 0.85,0.073 1.158,0.008 -0.122,0.632 -0.35,1.712 -0.451,2.188 0.226,0.516 1.007,2.254 1.141,2.594 0.018,0.051 0.022,0.109 0.005,0.165 -0.005,0.017 -0.012,0.034 -0.02,0.05 l 1.254,2.083 c 0.766,-0.044 5.131,-0.437 7.32,-3.78 1.37,-2.094 1.8,-4.726 1.178,-7.22 -0.551,-2.213 -1.842,-4.019 -3.54,-4.953 -0.099,-0.055 -0.134,-0.179 -0.08,-0.278 0.037,-0.067 0.106,-0.105 0.179,-0.105 0.033,0 0.067,0.008 0.098,0.025 1.798,0.989 3.161,2.889 3.74,5.212 C 1.883,-4.937 1.433,-2.188 0,0"
         style="fill:#ffffff;fill-opacity:1;fill-rule:nonzero;stroke:none;stroke-width:0.120944"
         id="path899"
         inkscape:connector-curvature="0" />
    </g>
    <g
       id="g901"
       transform="matrix(2.9168688,0,0,-2.9168688,34.847794,259.72235)"
       style="stroke-width:0.120944">
      <path
         d="M 0,0 C 0.08,0.608 -0.348,1.166 -0.955,1.246 -1.562,1.326 -2.12,0.899 -2.2,0.291 -2.281,-0.316 -1.854,-0.874 -1.246,-0.954 -0.639,-1.035 -0.081,-0.607 0,0"
         style="fill:#ffffff;fill-opacity:1;fill-rule:nonzero;stroke:none;stroke-width:0.120944"
         id="path903"
         inkscape:connector-curvature="0" />
    </g>
    <g
       id="g905"
       transform="matrix(2.9168688,0,0,-2.9168688,24.787524,264.93774)"
       style="stroke-width:0.120944">
      <path
         d="M 0,0 C 0.131,-0.008 0.265,0.018 0.392,0.08 0.784,0.273 0.946,0.748 0.752,1.141 0.615,1.421 0.333,1.584 0.041,1.584 -0.426,1.584 -1.76,1.428 -2.935,1.308 L -6.193,1.444 C -6.269,1.445 -6.344,1.425 -6.404,1.372 -6.52,1.269 -6.531,1.091 -6.428,0.974 -6.388,0.93 -6.341,0.9 -6.253,0.882 -6.15,0.861 -3.02,0.396 -3.02,0.396 -3.02,0.396 -0.261,0.007 0,0"
         style="fill:#ffffff;fill-opacity:1;fill-rule:nonzero;stroke:none;stroke-width:0.120944"
         id="path907"
         inkscape:connector-curvature="0" />
    </g>
  </g>
</svg>
