<?xml version="1.0" encoding="UTF-8" standalone="no"?>
<!-- Created with Inkscape (http://www.inkscape.org/) -->

<svg
   xmlns:dc="http://purl.org/dc/elements/1.1/"
   xmlns:cc="http://creativecommons.org/ns#"
   xmlns:rdf="http://www.w3.org/1999/02/22-rdf-syntax-ns#"
   xmlns:svg="http://www.w3.org/2000/svg"
   xmlns="http://www.w3.org/2000/svg"
   xmlns:sodipodi="http://sodipodi.sourceforge.net/DTD/sodipodi-0.dtd"
   xmlns:inkscape="http://www.inkscape.org/namespaces/inkscape"
   width="250"
   height="250"
   viewBox="0 0 66.145832 66.145835"
   version="1.1"
   id="svg1422"
   inkscape:version="0.92.4 (5da689c313, 2019-01-14)"
   sodipodi:docname="gymna artist.svg">
  <defs
     id="defs1416" />
  <sodipodi:namedview
     id="base"
     pagecolor="#ffffff"
     bordercolor="#666666"
     borderopacity="1.0"
     inkscape:pageopacity="0.0"
     inkscape:pageshadow="2"
     inkscape:zoom="0.69380437"
     inkscape:cx="321.96535"
     inkscape:cy="36.66845"
     inkscape:document-units="mm"
     inkscape:current-layer="layer1"
     showgrid="false"
     units="px"
     inkscape:pagecheckerboard="true"
     inkscape:window-width="1366"
     inkscape:window-height="705"
     inkscape:window-x="-8"
     inkscape:window-y="-8"
     inkscape:window-maximized="1" />
  <metadata
     id="metadata1419">
    <rdf:RDF>
      <cc:Work
         rdf:about="">
        <dc:format>image/svg+xml</dc:format>
        <dc:type
           rdf:resource="http://purl.org/dc/dcmitype/StillImage" />
        <dc:title></dc:title>
      </cc:Work>
    </rdf:RDF>
  </metadata>
  <g
     inkscape:label="Layer 1"
     inkscape:groupmode="layer"
     id="layer1"
     transform="translate(0,-230.85415)">
    <g
       id="g1521"
       transform="matrix(2.9168688,0,0,-2.9168688,66.145834,263.92561)"
       style="fill:#2c4c98;fill-opacity:1;stroke-width:0.120944">
      <path
         d="m 0,0 c 0,-6.263 -5.077,-11.339 -11.338,-11.339 -6.263,0 -11.339,5.076 -11.339,11.339 0,6.262 5.076,11.338 11.339,11.338 C -5.077,11.338 0,6.262 0,0"
         style="fill:#2c4c98;fill-opacity:1;fill-rule:nonzero;stroke:none;stroke-width:0.120944"
         id="path1523"
         inkscape:connector-curvature="0" />
    </g>
    <g
       id="g1525"
       transform="matrix(2.9168688,0,0,-2.9168688,36.618374,283.53287)"
       style="stroke-width:0.120944">
      <path
         d="m 0,0 c 0.005,0.217 -0.418,2.594 -0.527,3.149 l 0.14,1.596 C -0.636,4.18 -0.951,3.495 -1.184,2.992 -1.187,2.732 -1.194,2.308 -1.2,1.86 L -0.6,0 h -0.972 c 0.008,0.223 0.041,2.484 0.049,3.068 0.281,0.607 1.1,2.39 1.209,2.736 0.016,0.052 0.019,0.073 0.024,0.098 0.102,0.52 -0.236,1.024 -0.756,1.126 C -1.552,7.128 -2.042,6.809 -2.163,6.315 -2.229,6.019 -2.592,3.558 -2.569,3.204 -2.538,2.751 -2.207,0.234 -2.158,0 h -8.189 c 0.173,-0.234 0.353,-0.461 0.542,-0.68 H 7.374 c 0.189,0.219 0.37,0.446 0.542,0.68"
         style="fill:#ffffff;fill-opacity:1;fill-rule:nonzero;stroke:none;stroke-width:0.120944"
         id="path1527"
         inkscape:connector-curvature="0" />
    </g>
    <g
       id="g1529"
       transform="matrix(2.9168688,0,0,-2.9168688,41.623724,272.78128)"
       style="stroke-width:0.120944">
      <path
         d="M 0,0 C 0.516,0.364 0.639,1.078 0.275,1.594 -0.089,2.11 -0.802,2.233 -1.318,1.869 -1.834,1.505 -1.957,0.791 -1.593,0.275 -1.229,-0.241 -0.516,-0.364 0,0"
         style="fill:#ffffff;fill-opacity:1;fill-rule:nonzero;stroke:none;stroke-width:0.120944"
         id="path1531"
         inkscape:connector-curvature="0" />
    </g>
    <g
       id="g1533"
       transform="matrix(2.9168688,0,0,-2.9168688,60.819644,250.826)"
       style="stroke-width:0.120944">
      <path
         d="M 0,0 C -0.064,0.071 -0.151,0.109 -0.239,0.111 -0.635,0.125 -4.368,0.01 -4.976,-0.037 -6.42,0.023 -8.311,0 -8.796,-0.007 c -0.456,0.138 -2.484,0.727 -3.697,1.02 -1.66,0.617 -4.666,1.496 -4.724,1.51 -0.12,0.031 -0.25,0.012 -0.345,-0.078 -0.144,-0.136 -0.15,-0.366 -0.013,-0.514 0.03,-0.032 0.064,-0.056 0.1,-0.076 0.092,-0.051 8.124,-3.754 8.124,-3.754 0.17,-0.078 0.358,-0.106 0.543,-0.083 0.132,0.009 8.474,1.365 8.648,1.414 0.055,0.014 0.106,0.039 0.15,0.08 C 0.126,-0.359 0.131,-0.14 0,0"
         style="fill:#ffffff;fill-opacity:1;fill-rule:nonzero;stroke:none;stroke-width:0.120944"
         id="path1535"
         inkscape:connector-curvature="0" />
    </g>
  </g>
</svg>
