<?xml version="1.0" encoding="UTF-8" standalone="no"?>
<!-- Created with Inkscape (http://www.inkscape.org/) -->

<svg
   xmlns:dc="http://purl.org/dc/elements/1.1/"
   xmlns:cc="http://creativecommons.org/ns#"
   xmlns:rdf="http://www.w3.org/1999/02/22-rdf-syntax-ns#"
   xmlns:svg="http://www.w3.org/2000/svg"
   xmlns="http://www.w3.org/2000/svg"
   xmlns:sodipodi="http://sodipodi.sourceforge.net/DTD/sodipodi-0.dtd"
   xmlns:inkscape="http://www.inkscape.org/namespaces/inkscape"
   width="250"
   height="250"
   viewBox="0 0 66.145832 66.145835"
   version="1.1"
   id="svg1422"
   inkscape:version="0.92.4 (5da689c313, 2019-01-14)"
   sodipodi:docname="gymna tram.svg">
  <defs
     id="defs1416" />
  <sodipodi:namedview
     id="base"
     pagecolor="#ffffff"
     bordercolor="#666666"
     borderopacity="1.0"
     inkscape:pageopacity="0.0"
     inkscape:pageshadow="2"
     inkscape:zoom="0.69380437"
     inkscape:cx="197.15784"
     inkscape:cy="183.12385"
     inkscape:document-units="mm"
     inkscape:current-layer="layer1"
     showgrid="false"
     units="px"
     inkscape:pagecheckerboard="true"
     inkscape:window-width="1366"
     inkscape:window-height="705"
     inkscape:window-x="-8"
     inkscape:window-y="-8"
     inkscape:window-maximized="1" />
  <metadata
     id="metadata1419">
    <rdf:RDF>
      <cc:Work
         rdf:about="">
        <dc:format>image/svg+xml</dc:format>
        <dc:type
           rdf:resource="http://purl.org/dc/dcmitype/StillImage" />
        <dc:title></dc:title>
      </cc:Work>
    </rdf:RDF>
  </metadata>
  <g
     inkscape:label="Layer 1"
     inkscape:groupmode="layer"
     id="layer1"
     transform="translate(0,-230.85415)">
    <g
       id="g1849"
       transform="matrix(2.9169974,0,0,-2.9168688,66.145833,263.92853)"
       style="fill:#2c4c98;fill-opacity:1;stroke-width:0.12094134">
      <path
         d="m 0,0 c 0,-6.262 -5.076,-11.338 -11.338,-11.338 -6.262,0 -11.338,5.076 -11.338,11.338 0,6.263 5.076,11.339 11.338,11.339 C -5.076,11.339 0,6.263 0,0"
         style="fill:#2c4c98;fill-opacity:1;fill-rule:nonzero;stroke:none;stroke-width:0.12094134"
         id="path1851"
         inkscape:connector-curvature="0" />
    </g>
    <g
       id="g1853"
       transform="matrix(2.9169974,0,0,-2.9169974,20.369394,260.65996)"
       style="stroke-width:0.12093867">
      <path
         d="m 0,0 c 0.29,-0.273 2.137,-1.617 2.382,-1.761 0.002,-0.002 0.146,-0.092 0.331,-0.09 0.139,10e-4 0.306,0.083 0.376,0.113 0.201,0.086 0.847,0.386 0.847,0.386 C 3.412,-2.341 3.086,-3.071 2.995,-3.325 2.953,-3.443 2.919,-3.589 2.917,-3.731 c -0.005,-0.62 0.487,-1.122 1.107,-1.128 0.429,-0.004 0.725,0.147 0.996,0.584 0.044,0.069 0.1,0.184 0.162,0.324 0.43,0.987 1.279,3.587 1.411,4.07 0.452,1.055 1.867,5.118 2,5.652 C 8.605,5.82 8.612,5.864 8.614,5.897 8.628,6.103 8.443,6.29 8.227,6.292 8.085,6.293 7.972,6.218 7.908,6.131 7.896,6.114 7.87,6.072 7.85,6.037 7.812,5.972 6.696,3.877 5.551,1.72 4.905,1.65 3.994,1.548 3.672,1.506 3.446,1.563 2.988,1.667 2.546,1.765 2.736,1.355 2.866,0.9 2.952,0.434 3.468,0.458 3.62,0.468 3.722,0.484 3.737,0.487 3.759,0.492 3.766,0.493 3.901,0.524 4.532,0.701 5.105,0.879 L 4.604,-0.072 C 4.088,-0.208 3.492,-0.366 3.066,-0.483 3.02,-0.496 2.976,-0.508 2.933,-0.519 2.437,0.113 1.471,1.298 1.384,1.386 1.227,1.556 1.009,1.672 0.76,1.696 0.22,1.748 -0.259,1.353 -0.312,0.814 -0.342,0.496 -0.217,0.201 0,0"
         style="fill:#ffffff;fill-opacity:1;fill-rule:nonzero;stroke:none;stroke-width:0.12093867"
         id="path1855"
         inkscape:connector-curvature="0" />
    </g>
    <g
       id="g1857"
       transform="matrix(2.9169974,0,0,-2.9169974,10.644109,288.23145)"
       style="stroke-width:0.12093867">
      <path
         d="m 0,0 c 0.259,-0.239 0.528,-0.466 0.809,-0.68 h 13.76 c 0.28,0.214 0.551,0.441 0.809,0.68"
         style="fill:#ffffff;fill-opacity:1;fill-rule:nonzero;stroke:none;stroke-width:0.12093867"
         id="path1859"
         inkscape:connector-curvature="0" />
    </g>
    <g
       id="g1861"
       transform="matrix(2.9169974,0,0,-2.9169974,26.652603,253.60084)"
       style="stroke-width:0.12093867">
      <path
         d="m 0,0 c 0.277,0.194 0.475,0.498 0.523,0.86 0.093,0.688 -0.39,1.321 -1.078,1.413 -0.688,0.092 -1.32,-0.392 -1.412,-1.08 -0.06,-0.437 0.116,-0.852 0.427,-1.12 0.178,-0.152 0.401,-0.259 0.652,-0.292 C -0.563,-0.263 -0.25,-0.175 0,0"
         style="fill:#ffffff;fill-opacity:1;fill-rule:nonzero;stroke:none;stroke-width:0.12093867"
         id="path1863"
         inkscape:connector-curvature="0" />
    </g>
  </g>
</svg>
