<?xml version="1.0" encoding="UTF-8" standalone="no"?>
<!-- Created with Inkscape (http://www.inkscape.org/) -->

<svg
   xmlns:dc="http://purl.org/dc/elements/1.1/"
   xmlns:cc="http://creativecommons.org/ns#"
   xmlns:rdf="http://www.w3.org/1999/02/22-rdf-syntax-ns#"
   xmlns:svg="http://www.w3.org/2000/svg"
   xmlns="http://www.w3.org/2000/svg"
   xmlns:sodipodi="http://sodipodi.sourceforge.net/DTD/sodipodi-0.dtd"
   xmlns:inkscape="http://www.inkscape.org/namespaces/inkscape"
   width="250"
   height="250"
   viewBox="0 0 66.145832 66.145835"
   version="1.1"
   id="svg1422"
   inkscape:version="0.92.4 (5da689c313, 2019-01-14)"
   sodipodi:docname="handb.svg">
  <defs
     id="defs1416" />
  <sodipodi:namedview
     id="base"
     pagecolor="#ffffff"
     bordercolor="#666666"
     borderopacity="1.0"
     inkscape:pageopacity="0.0"
     inkscape:pageshadow="2"
     inkscape:zoom="0.9725031"
     inkscape:cx="238.71181"
     inkscape:cy="-20.682622"
     inkscape:document-units="mm"
     inkscape:current-layer="layer1"
     showgrid="false"
     units="px"
     inkscape:pagecheckerboard="true"
     inkscape:window-width="1366"
     inkscape:window-height="705"
     inkscape:window-x="-8"
     inkscape:window-y="-8"
     inkscape:window-maximized="1"
     showguides="false" />
  <metadata
     id="metadata1419">
    <rdf:RDF>
      <cc:Work
         rdf:about="">
        <dc:format>image/svg+xml</dc:format>
        <dc:type
           rdf:resource="http://purl.org/dc/dcmitype/StillImage" />
        <dc:title></dc:title>
      </cc:Work>
    </rdf:RDF>
  </metadata>
  <g
     inkscape:label="Layer 1"
     inkscape:groupmode="layer"
     id="layer1"
     transform="translate(0,-230.85415)">
    <g
       id="g1301"
       transform="matrix(2.9169974,0,0,-2.9168688,66.145833,263.92853)"
       style="fill:#842435;fill-opacity:1;stroke-width:0.12094134">
      <path
         d="m 0,0 c 0,-6.262 -5.076,-11.338 -11.338,-11.338 -6.262,0 -11.338,5.076 -11.338,11.338 0,6.263 5.076,11.339 11.338,11.339 C -5.076,11.339 0,6.263 0,0"
         style="fill:#842435;fill-opacity:1;fill-rule:nonzero;stroke:none;stroke-width:0.12094134"
         id="path1303"
         inkscape:connector-curvature="0" />
    </g>
    <g
       id="g1305"
       transform="matrix(2.9169974,0,0,-2.9169974,59.375483,257.19754)"
       style="stroke-width:0.12093867">
      <path
         d="M 0,0 C 0.13,0.036 0.238,0.16 0.244,0.307 0.253,0.492 0.113,0.659 -0.106,0.655 -0.683,0.644 -2.471,0.518 -3.165,0.46 -3.478,0.588 -4.46,0.993 -5.458,1.443 c 0.102,-0.427 0.107,-0.992 0.003,-1.623 0.95,-0.219 2.092,-0.42 2.115,-0.424 0.024,-0.004 0.046,-0.007 0.07,-0.008 0.036,-0.001 0.071,0 0.107,0.005 C -2.271,-0.47 -0.348,-0.081 0,0"
         style="fill:#ffffff;fill-opacity:1;fill-rule:nonzero;stroke:none;stroke-width:0.12093867"
         id="path1307"
         inkscape:connector-curvature="0" />
    </g>
    <g
       id="g1309"
       transform="matrix(2.9169974,0,0,-2.9169974,33.609643,255.90821)"
       style="stroke-width:0.12093867">
      <path
         d="M 0,0 C 0.379,-0.095 0.793,0.064 1.008,0.416 1.272,0.849 1.135,1.415 0.703,1.679 0.569,1.761 0.423,1.804 0.276,1.812 c -0.729,0.047 -1.732,0.069 -2.385,0.067 -0.143,0.967 -0.37,2.208 -0.5,2.905 0.508,-0.011 0.96,0.352 1.045,0.87 0.094,0.569 -0.293,1.108 -0.862,1.204 -0.571,0.096 -1.107,-0.288 -1.201,-0.857 -0.046,-0.278 0.024,-0.549 0.173,-0.765 -0.003,-0.016 -0.002,-0.041 0,-0.062 0,0 0.145,-2.926 0.255,-3.953 C -3.177,0.979 -3.013,0.78 -2.758,0.708 -2.489,0.632 -0.916,0.202 0,0"
         style="fill:#ffffff;fill-opacity:1;fill-rule:nonzero;stroke:none;stroke-width:0.12093867"
         id="path1311"
         inkscape:connector-curvature="0" />
    </g>
    <g
       id="g1313"
       transform="matrix(2.9169974,0,0,-2.9169974,39.583653,250.45925)"
       style="stroke-width:0.12093867">
      <path
         d="M 0,0 C 0.66,-0.053 1.238,0.44 1.291,1.1 1.343,1.76 0.851,2.337 0.191,2.39 -0.469,2.442 -1.047,1.95 -1.1,1.29 -1.152,0.63 -0.66,0.053 0,0"
         style="fill:#ffffff;fill-opacity:1;fill-rule:nonzero;stroke:none;stroke-width:0.12093867"
         id="path1315"
         inkscape:connector-curvature="0" />
    </g>
    <g
       id="g1317"
       transform="matrix(2.9169974,0,0,-2.9169974,38.793143,272.15297)"
       style="stroke-width:0.12093867">
      <path
         d="M 0,0 C 0.467,-0.625 0.889,-1.176 1.32,-1.712 0.488,-1.84 -0.405,-1.972 -1.18,-2.091 -0.866,-1.544 -0.46,-0.831 0,0 m -1.408,2.315 c -0.575,-1.258 -1.303,-3.407 -1.56,-4.182 -1.413,-0.737 -4.58,-2.539 -4.648,-2.584 -0.111,-0.073 -0.192,-0.171 -0.211,-0.305 -0.031,-0.228 0.125,-0.438 0.354,-0.472 0.077,-0.01 0.149,10e-4 0.218,0.027 0.213,0.079 3.95,1.487 5.111,1.985 l 4.779,0.287 c 0.34,0.025 0.58,0.199 0.654,0.503 0.037,0.15 0.018,0.305 -0.043,0.43 C 3.147,-1.758 1.139,1.808 0.705,2.436 0.488,2.775 0.113,3.011 -0.327,3.008 -0.81,3.004 -1.229,2.704 -1.408,2.315"
         style="fill:#ffffff;fill-opacity:1;fill-rule:nonzero;stroke:none;stroke-width:0.12093867"
         id="path1319"
         inkscape:connector-curvature="0" />
    </g>
  </g>
</svg>
