<?xml version="1.0" encoding="UTF-8" standalone="no"?>
<!-- Created with Inkscape (http://www.inkscape.org/) -->

<svg
   xmlns:dc="http://purl.org/dc/elements/1.1/"
   xmlns:cc="http://creativecommons.org/ns#"
   xmlns:rdf="http://www.w3.org/1999/02/22-rdf-syntax-ns#"
   xmlns:svg="http://www.w3.org/2000/svg"
   xmlns="http://www.w3.org/2000/svg"
   xmlns:sodipodi="http://sodipodi.sourceforge.net/DTD/sodipodi-0.dtd"
   xmlns:inkscape="http://www.inkscape.org/namespaces/inkscape"
   width="250"
   height="250"
   viewBox="0 0 66.145832 66.145835"
   version="1.1"
   id="svg1422"
   inkscape:version="0.92.4 (5da689c313, 2019-01-14)"
   sodipodi:docname="judo.svg">
  <defs
     id="defs1416" />
  <sodipodi:namedview
     id="base"
     pagecolor="#ffffff"
     bordercolor="#666666"
     borderopacity="1.0"
     inkscape:pageopacity="0.0"
     inkscape:pageshadow="2"
     inkscape:zoom="0.61445677"
     inkscape:cx="132.40649"
     inkscape:cy="-104.2064"
     inkscape:document-units="mm"
     inkscape:current-layer="layer1"
     showgrid="false"
     units="px"
     inkscape:pagecheckerboard="true"
     inkscape:window-width="1366"
     inkscape:window-height="705"
     inkscape:window-x="-8"
     inkscape:window-y="-8"
     inkscape:window-maximized="1"
     showguides="false" />
  <metadata
     id="metadata1419">
    <rdf:RDF>
      <cc:Work
         rdf:about="">
        <dc:format>image/svg+xml</dc:format>
        <dc:type
           rdf:resource="http://purl.org/dc/dcmitype/StillImage" />
        <dc:title></dc:title>
      </cc:Work>
    </rdf:RDF>
  </metadata>
  <g
     inkscape:label="Layer 1"
     inkscape:groupmode="layer"
     id="layer1"
     transform="translate(0,-230.85415)">
    <g
       id="g1197"
       transform="matrix(2.9168688,0,0,-2.9168688,66.142917,263.92561)"
       style="fill:#842435;fill-opacity:1;stroke-width:0.120944">
      <path
         d="m 0,0 c 0,-6.263 -5.076,-11.339 -11.338,-11.339 -6.262,0 -11.338,5.076 -11.338,11.339 0,6.262 5.076,11.338 11.338,11.338 C -5.076,11.338 0,6.262 0,0"
         style="fill:#842435;fill-opacity:1;fill-rule:nonzero;stroke:none;stroke-width:0.120944"
         id="path1199"
         inkscape:connector-curvature="0" />
    </g>
    <g
       id="g1201"
       transform="matrix(2.9168688,0,0,-2.9168688,51.191067,286.54889)"
       style="stroke-width:0.120944">
      <path
         d="M 0,0 C -0.022,0.075 -0.289,0.772 -0.289,0.772 L 0.236,1.026 -1.585,5.99 -1.048,6.501 -2.316,7.283 -6.745,4.229 C -6.926,4.105 -7.057,3.916 -7.112,3.697 L -8.044,0.401 c 0,0 -1.162,-0.26 -1.173,-0.264 -0.011,-0.002 -0.019,-0.004 -0.028,-0.008 -0.089,-0.038 -0.13,-0.139 -0.093,-0.226 0.02,-0.048 0.062,-0.084 0.111,-0.098 0.015,-0.004 0.034,-0.006 0.057,-0.006 h 1.431 c 0.02,0 0.04,0.002 0.059,0.008 0.044,0.014 0.071,0.033 0.101,0.079 0.03,0.046 0.367,0.839 0.367,0.839 l 0.61,-0.203 1.042,2.32 2.659,1.369 2.147,-3.94 c 0,0 -0.725,-0.161 -0.738,-0.164 C -1.504,0.104 -1.519,0.099 -1.527,0.096 -1.608,0.061 -1.645,-0.031 -1.611,-0.11 c 0.019,-0.045 0.057,-0.074 0.099,-0.088 0.014,-0.004 0.036,-0.007 0.062,-0.007 l 1.266,0.001 c 0.043,0 0.076,0.004 0.096,0.012 C -0.013,-0.16 0.024,-0.076 0,0"
         style="fill:#ffffff;fill-opacity:1;fill-rule:nonzero;stroke:none;stroke-width:0.120944"
         id="path1203"
         inkscape:connector-curvature="0" />
    </g>
    <g
       id="g1205"
       transform="matrix(2.9168688,0,0,-2.9168688,33.675257,238.09969)"
       style="stroke-width:0.120944">
      <path
         d="m 0,0 c -0.006,-0.001 -1.17,-0.106 -1.227,-0.111 -0.057,-0.007 -0.101,-0.025 -0.128,-0.095 -0.028,-0.07 -0.251,-0.752 -0.251,-0.752 l -0.546,0.128 -0.74,-2.144 -1.614,-1.304 -0.498,0.35 -0.623,-1.112 2.085,-1.782 c 0,0 2.59,0.421 2.775,0.456 0.101,0.018 0.195,0.052 0.277,0.098 0.068,0.038 0.136,0.085 0.198,0.142 0.142,0.129 2.62,2.384 2.62,2.384 0,0 1.058,-0.368 1.079,-0.376 0.021,-0.007 0.038,-0.012 0.051,-0.014 0.097,-0.015 0.178,0.047 0.192,0.138 0.01,0.066 -0.017,0.128 -0.075,0.165 -0.013,0.009 -0.029,0.019 -0.029,0.019 0,0 -1.128,0.7 -1.168,0.724 C 2.327,-3.056 2.251,-3.052 2.192,-3.091 2.155,-3.116 1.478,-3.584 1.478,-3.584 l -0.4,0.478 -2.261,-1.552 -1.175,-0.04 c 0,0 0.561,0.58 0.687,0.718 0.061,0.066 0.101,0.13 0.134,0.195 0.034,0.07 0.059,0.143 0.076,0.235 0.035,0.18 0.553,2.94 0.553,2.94 0,0 0.782,0.251 0.979,0.314 0.028,0.01 0.039,0.014 0.05,0.02 0.065,0.038 0.098,0.121 0.057,0.2 C 0.151,-0.024 0.098,-0.002 0.06,0.001 0.046,0.002 0.021,0.002 0,0"
         style="fill:#ffffff;fill-opacity:1;fill-rule:nonzero;stroke:none;stroke-width:0.120944"
         id="path1207"
         inkscape:connector-curvature="0" />
    </g>
    <g
       id="g1209"
       transform="matrix(2.9168688,0,0,-2.9168688,42.959654,264.39236)"
       style="stroke-width:0.120944">
      <path
         d="M 0,0 -2.806,1.732 C -2.962,1.829 -3.151,1.882 -3.351,1.876 -3.726,1.863 -4.041,1.643 -4.198,1.328 l -0.972,-1.959 -1.597,-1.293 -0.714,1.109 c -0.069,0.105 -0.167,0.189 -0.283,0.241 l -0.205,0.093 0.767,2.366 -1.88,1.606 -1.977,-3.527 c -0.131,-0.23 -0.168,-0.512 -0.075,-0.782 0.117,-0.345 0.414,-0.578 0.751,-0.633 l 2.008,-0.336 c 0,0 1.517,-1.76 1.573,-1.82 0.055,-0.061 0.137,-0.102 0.225,-0.094 0.144,0.013 0.251,0.141 0.238,0.285 -0.004,0.041 -0.018,0.073 -0.04,0.116 -0.024,0.044 -0.387,0.648 -0.387,0.648 l 0.597,0.345 0.219,-0.339 c 0,0 1.628,0.976 1.673,1.004 0.048,0.031 0.113,0.081 0.159,0.135 0.036,0.042 0.648,0.74 0.648,0.74 l 1.531,-0.568"
         style="fill:#ffffff;fill-opacity:1;fill-rule:nonzero;stroke:none;stroke-width:0.120944"
         id="path1211"
         inkscape:connector-curvature="0" />
    </g>
    <g
       id="g1213"
       transform="matrix(2.9168688,0,0,-2.9168688,22.351975,261.97132)"
       style="stroke-width:0.120944">
      <path
         d="m 0,0 c 0,-0.566 0.458,-1.024 1.024,-1.024 0.565,0 1.024,0.458 1.024,1.024 0,0.566 -0.459,1.024 -1.024,1.024 C 0.458,1.024 0,0.566 0,0"
         style="fill:#ffffff;fill-opacity:1;fill-rule:nonzero;stroke:none;stroke-width:0.120944"
         id="path1215"
         inkscape:connector-curvature="0" />
    </g>
    <g
       id="g1217"
       transform="matrix(2.9168688,0,0,-2.9168688,15.873621,270.38943)"
       style="stroke-width:0.120944">
      <path
         d="m 0,0 c -0.566,0 -1.024,-0.458 -1.024,-1.024 0,-0.566 0.458,-1.024 1.024,-1.024 0.565,0 1.024,0.458 1.024,1.024 C 1.024,-0.458 0.565,0 0,0"
         style="fill:#ffffff;fill-opacity:1;fill-rule:nonzero;stroke:none;stroke-width:0.120944"
         id="path1219"
         inkscape:connector-curvature="0" />
    </g>
  </g>
</svg>
