<?xml version="1.0" encoding="UTF-8" standalone="no"?>
<!-- Created with Inkscape (http://www.inkscape.org/) -->

<svg
   xmlns:dc="http://purl.org/dc/elements/1.1/"
   xmlns:cc="http://creativecommons.org/ns#"
   xmlns:rdf="http://www.w3.org/1999/02/22-rdf-syntax-ns#"
   xmlns:svg="http://www.w3.org/2000/svg"
   xmlns="http://www.w3.org/2000/svg"
   xmlns:sodipodi="http://sodipodi.sourceforge.net/DTD/sodipodi-0.dtd"
   xmlns:inkscape="http://www.inkscape.org/namespaces/inkscape"
   width="250"
   height="250"
   viewBox="0 0 66.145832 66.145835"
   version="1.1"
   id="svg1422"
   inkscape:version="0.92.4 (5da689c313, 2019-01-14)"
   sodipodi:docname="karate kumi.svg">
  <defs
     id="defs1416" />
  <sodipodi:namedview
     id="base"
     pagecolor="#ffffff"
     bordercolor="#666666"
     borderopacity="1.0"
     inkscape:pageopacity="0.0"
     inkscape:pageshadow="2"
     inkscape:zoom="0.61994387"
     inkscape:cx="424.2244"
     inkscape:cy="23.400089"
     inkscape:document-units="mm"
     inkscape:current-layer="layer1"
     showgrid="false"
     units="px"
     inkscape:pagecheckerboard="true"
     inkscape:window-width="1366"
     inkscape:window-height="705"
     inkscape:window-x="-8"
     inkscape:window-y="-8"
     inkscape:window-maximized="1" />
  <metadata
     id="metadata1419">
    <rdf:RDF>
      <cc:Work
         rdf:about="">
        <dc:format>image/svg+xml</dc:format>
        <dc:type
           rdf:resource="http://purl.org/dc/dcmitype/StillImage" />
        <dc:title></dc:title>
      </cc:Work>
    </rdf:RDF>
  </metadata>
  <g
     inkscape:label="Layer 1"
     inkscape:groupmode="layer"
     id="layer1"
     transform="translate(0,-230.85415)">
    <g
       id="g1237"
       transform="matrix(2.9168688,0,0,-2.9168688,66.145834,263.92852)"
       style="fill:#842435;fill-opacity:1;stroke-width:0.120944">
      <path
         d="m 0,0 c 0,-6.262 -5.077,-11.338 -11.338,-11.338 -6.263,0 -11.339,5.076 -11.339,11.338 0,6.263 5.076,11.339 11.339,11.339 C -5.077,11.339 0,6.263 0,0"
         style="fill:#842435;fill-opacity:1;fill-rule:nonzero;stroke:none;stroke-width:0.120944"
         id="path1239"
         inkscape:connector-curvature="0" />
    </g>
    <g
       id="g1241"
       transform="matrix(2.9168688,0,0,-2.9168688,52.868204,247.67281)"
       style="stroke-width:0.120944">
      <path
         d="M 0,0 C -0.565,0.023 -1.042,-0.416 -1.066,-0.981 -1.089,-1.546 -0.65,-2.023 -0.085,-2.046 0.48,-2.07 0.956,-1.631 0.98,-1.066 1.004,-0.501 0.564,-0.024 0,0"
         style="fill:#ffffff;fill-opacity:1;fill-rule:nonzero;stroke:none;stroke-width:0.120944"
         id="path1243"
         inkscape:connector-curvature="0" />
    </g>
    <g
       id="g1245"
       transform="matrix(2.9168688,0,0,-2.9168688,42.422874,250.11717)"
       style="stroke-width:0.120944">
      <path
         d="m 0,0 c -0.143,-0.138 -0.222,-0.338 -0.195,-0.551 0.021,-0.167 0.119,-0.314 0.234,-0.426 l 0.341,-0.333 -1.288,-1.375 1.81,-2.043 1.533,0.619 0.679,-0.64 c 0.153,-0.147 0.376,-0.215 0.597,-0.16 0.322,0.08 0.507,0.373 0.478,0.7 0,0 -0.111,1.214 -0.173,1.58 -0.037,0.302 -0.192,0.54 -0.357,0.68 -0.028,0.023 -0.068,0.053 -0.096,0.075 0,0 -1.857,1.315 -2.152,1.525 l 1.016,1.201 c 0.129,0.049 0.209,0.079 0.337,0.133 0.119,0.05 0.182,0.099 0.257,0.168 0.242,0.218 0.172,0.442 0.03,0.6 C 2.946,1.869 2.829,1.908 2.691,1.887 2.517,1.859 2.368,1.733 1.949,1.179 L 1.683,0.939 1.375,1.291"
         style="fill:#ffffff;fill-opacity:1;fill-rule:nonzero;stroke:none;stroke-width:0.120944"
         id="path1247"
         inkscape:connector-curvature="0" />
    </g>
    <g
       id="g1249"
       transform="matrix(2.9168688,0,0,-2.9168688,16.710724,253.13608)"
       style="stroke-width:0.120944">
      <path
         d="m 0,0 c -0.216,-0.176 -0.332,-0.462 -0.277,-0.756 0.033,-0.176 0.114,-0.32 0.237,-0.432 0.076,-0.071 0.595,-0.457 0.595,-0.457 L 0.116,-3 H 2.904 L 3.55,-1.662 5.665,-3.22 C 6.202,-3.614 6.492,-3.844 6.726,-4.155 6.953,-4.459 7.08,-4.766 7.248,-5.233 l 1.607,-4.553 0.561,0.136 0.251,-0.758 c 0.005,-0.016 0.012,-0.029 0.021,-0.042 0.023,-0.034 0.059,-0.058 0.099,-0.065 0.01,-10e-4 0.023,-0.003 0.037,-0.003 l 1.415,0.001 c 0.008,0 0.017,0 0.023,10e-4 0.024,0.006 0.043,0.023 0.052,0.046 0.004,0.01 0.006,0.02 0.006,0.035 v 0.093 c 0,0.165 -0.08,0.278 -0.248,0.326 -0.18,0.051 -0.74,0.208 -0.984,0.276 L 9.247,-4.984 9.349,-4.099 7.435,-1.938 4.528,-0.401 6.621,-0.09 6.556,0.483 7.148,0.568 C 7.28,0.519 7.361,0.488 7.496,0.443 7.62,0.401 7.701,0.396 7.805,0.397 8.137,0.401 8.235,0.62 8.232,0.837 8.231,0.996 8.168,1.105 8.048,1.182 7.897,1.279 7.699,1.282 7.014,1.144 L 2.344,1.136 C 2.088,1.416 1.836,1.691 1.752,1.78 1.603,1.936 1.443,1.907 1.311,1.833 1.296,1.825 1.249,1.8 1.235,1.79 1.221,1.782 1.212,1.776 1.204,1.768 1.186,1.753 1.175,1.728 1.176,1.703 1.177,1.691 1.181,1.677 1.196,1.652 1.205,1.636 1.557,1.031 1.557,1.031 1.552,1.028 1.484,0.991 1.455,0.972 1.103,0.761 0.253,0.213 0,0"
         style="fill:#ffffff;fill-opacity:1;fill-rule:nonzero;stroke:none;stroke-width:0.120944"
         id="path1251"
         inkscape:connector-curvature="0" />
    </g>
    <g
       id="g1253"
       transform="matrix(2.9168688,0,0,-2.9168688,8.7038738,281.56684)"
       style="stroke-width:0.120944">
      <path
         d="M 0,0 C -0.005,-0.008 -0.008,-0.016 -0.012,-0.025 -0.041,-0.097 -0.008,-0.172 0.045,-0.21 0.053,-0.215 0.068,-0.223 0.082,-0.229 L 1.39,-0.763 c 0.008,-0.004 0.017,-0.006 0.021,-0.007 0.024,-0.004 0.048,0.003 0.066,0.019 0.01,0.01 0.015,0.019 0.023,0.04 0.009,0.022 0.032,0.079 0.032,0.079 0.063,0.153 0.032,0.287 -0.105,0.395 -0.104,0.081 -0.359,0.28 -0.572,0.446 L 4.241,4.357 5.766,2.828 5.2,0.528 5.857,0.305 c 0,0 -0.21,-0.836 -0.214,-0.854 -0.004,-0.017 -0.008,-0.037 -0.008,-0.053 0.001,-0.076 0.051,-0.143 0.12,-0.164 0.019,-0.005 0.033,-0.007 0.084,-0.007 l 1.54,0.003 c 0.02,0 0.032,0.001 0.039,0.003 0.022,0.004 0.042,0.02 0.053,0.042 0.009,0.017 0.011,0.027 0.011,0.057 v 0.093 c -0.001,0.183 -0.089,0.308 -0.275,0.362 -0.123,0.034 -0.71,0.199 -0.71,0.199 0,0 1.067,2.684 1.117,2.88 C 7.643,2.974 7.652,3.089 7.638,3.207 7.622,3.337 7.578,3.457 7.513,3.561 7.45,3.674 5.584,6.202 5.584,6.202 H 2.68 L 1.383,4.864 H 2.139 L -0.058,1.021 0.411,0.685"
         style="fill:#ffffff;fill-opacity:1;fill-rule:nonzero;stroke:none;stroke-width:0.120944"
         id="path1255"
         inkscape:connector-curvature="0" />
    </g>
    <g
       id="g1257"
       transform="matrix(2.9168688,0,0,-2.9168688,26.100114,248.81623)"
       style="stroke-width:0.120944">
      <path
         d="M 0,0 C 0.565,0.026 1.002,0.505 0.975,1.07 0.95,1.634 0.471,2.071 -0.094,2.046 -0.659,2.019 -1.096,1.54 -1.069,0.975 -1.044,0.41 -0.565,-0.026 0,0"
         style="fill:#ffffff;fill-opacity:1;fill-rule:nonzero;stroke:none;stroke-width:0.120944"
         id="path1259"
         inkscape:connector-curvature="0" />
    </g>
  </g>
</svg>
