<?xml version="1.0" encoding="UTF-8" standalone="no"?>
<!-- Created with Inkscape (http://www.inkscape.org/) -->

<svg
   xmlns:dc="http://purl.org/dc/elements/1.1/"
   xmlns:cc="http://creativecommons.org/ns#"
   xmlns:rdf="http://www.w3.org/1999/02/22-rdf-syntax-ns#"
   xmlns:svg="http://www.w3.org/2000/svg"
   xmlns="http://www.w3.org/2000/svg"
   xmlns:sodipodi="http://sodipodi.sourceforge.net/DTD/sodipodi-0.dtd"
   xmlns:inkscape="http://www.inkscape.org/namespaces/inkscape"
   width="250"
   height="250"
   viewBox="0 0 66.145832 66.145835"
   version="1.1"
   id="svg1422"
   inkscape:version="0.92.4 (5da689c313, 2019-01-14)"
   sodipodi:docname="karate kata.svg">
  <defs
     id="defs1416" />
  <sodipodi:namedview
     id="base"
     pagecolor="#ffffff"
     bordercolor="#666666"
     borderopacity="1.0"
     inkscape:pageopacity="0.0"
     inkscape:pageshadow="2"
     inkscape:zoom="0.87673303"
     inkscape:cx="410.36568"
     inkscape:cy="51.776597"
     inkscape:document-units="mm"
     inkscape:current-layer="layer1"
     showgrid="false"
     units="px"
     inkscape:pagecheckerboard="true"
     inkscape:window-width="1366"
     inkscape:window-height="705"
     inkscape:window-x="-8"
     inkscape:window-y="-8"
     inkscape:window-maximized="1" />
  <metadata
     id="metadata1419">
    <rdf:RDF>
      <cc:Work
         rdf:about="">
        <dc:format>image/svg+xml</dc:format>
        <dc:type
           rdf:resource="http://purl.org/dc/dcmitype/StillImage" />
        <dc:title></dc:title>
      </cc:Work>
    </rdf:RDF>
  </metadata>
  <g
     inkscape:label="Layer 1"
     inkscape:groupmode="layer"
     id="layer1"
     transform="translate(0,-230.85415)">
    <g
       id="g1221"
       transform="matrix(2.9168688,0,0,-2.9169974,66.145833,263.92707)"
       style="fill:#842435;fill-opacity:1;stroke-width:0.12094134">
      <path
         d="m 0,0 c 0,-6.262 -5.077,-11.338 -11.339,-11.338 -6.262,0 -11.338,5.076 -11.338,11.338 0,6.262 5.076,11.338 11.338,11.338 C -5.077,11.338 0,6.262 0,0"
         style="fill:#842435;fill-opacity:1;fill-rule:nonzero;stroke:none;stroke-width:0.12094134"
         id="path1223"
         inkscape:connector-curvature="0" />
    </g>
    <g
       id="g1225"
       transform="matrix(2.9169974,0,0,-2.9169974,46.04186,286.9685)"
       style="stroke-width:0.12093867">
      <path
         d="M 0,0 C 0.064,-0.032 0.144,-0.026 0.204,0.022 0.284,0.087 0.297,0.206 0.231,0.288 0.171,0.362 -0.255,0.79 -0.546,1.08 l -0.185,0.837 0.7,0.22 -0.709,2.857 c -0.055,0.215 -0.18,0.397 -0.356,0.53 l -2.66,1.971 H -7.675 L -8.62,5.357 h 1.456 L -5.717,3.76 C -6.197,2.635 -7.205,0.248 -7.205,0.248 -7.222,0.203 -7.224,0.154 -7.206,0.107 c 0.031,-0.08 0.107,-0.127 0.187,-0.126 l 1.679,0.003 c 0.076,0 0.147,0.047 0.179,0.12 0.042,0.101 -0.006,0.218 -0.108,0.261 -0.011,0.005 -0.022,0.008 -0.033,0.01 l -0.905,0.201 0.287,0.457 0.758,-0.23 1.543,2.648 c 0.192,0.333 0.185,0.759 -0.044,1.092 L -3.806,4.772 -2.467,4.053 C -2.216,3.403 -1.66,1.964 -1.373,1.227 -1.42,1.137 -1.484,1.008 -1.484,1.008 -1.496,0.987 -1.504,0.965 -1.507,0.941 c -0.009,-0.08 0.033,-0.154 0.1,-0.19"
         style="fill:#ffffff;fill-opacity:1;fill-rule:nonzero;stroke:none;stroke-width:0.12093867"
         id="path1227"
         inkscape:connector-curvature="0" />
    </g>
    <g
       id="g1229"
       transform="matrix(2.9169974,0,0,-2.9169974,34.35056,257.44552)"
       style="stroke-width:0.12093867">
      <path
         d="M 0,0 C -0.014,-0.008 -0.028,-0.013 -0.042,-0.017 L -2.416,-0.712 -2.31,0.12 h 0.715 c 0,0.07 0.036,0.138 0.1,0.175 0.032,0.017 0.065,0.026 0.103,0.026 h 1.306 c 0.062,0 0.12,-0.034 0.15,-0.087 C 0.111,0.151 0.082,0.047 0,0 M 5.657,2.189 C 5.648,2.246 5.606,2.295 5.547,2.31 5.497,2.323 5.45,2.308 5.414,2.275 5.406,2.268 5.398,2.258 5.39,2.248 5.354,2.198 5.037,1.763 4.777,1.409 L 0.336,3.306 C 0.193,3.366 0.051,3.394 -0.103,3.394 H -0.571 V 1.303 l -1.734,2.091 h -0.622 c -0.081,0 -0.165,-0.01 -0.232,-0.023 C -3.572,3.289 -3.869,3.003 -4.026,2.628 L -5.03,0.321 c -0.078,-0.19 -0.104,-0.405 -0.06,-0.622 0.083,-0.415 0.398,-0.728 0.772,-0.823 0.06,-0.015 0.18,-0.042 0.21,-0.048 l 0.47,-0.096 0.084,-0.814 H 0.142 L 0.726,0.888 2.936,0.327 3.221,1.013 5.014,0.722 C 5.046,0.717 5.082,0.715 5.101,0.715 5.217,0.722 5.324,0.794 5.362,0.947 5.4,1.103 5.649,2.113 5.653,2.13 5.658,2.15 5.66,2.17 5.657,2.189"
         style="fill:#ffffff;fill-opacity:1;fill-rule:nonzero;stroke:none;stroke-width:0.12093867"
         id="path1231"
         inkscape:connector-curvature="0" />
    </g>
    <g
       id="g1233"
       transform="matrix(2.9169974,0,0,-2.9169974,30.59932,246.79268)"
       style="stroke-width:0.12093867">
      <path
         d="M 0,0 C 0.636,0.042 1.117,0.591 1.074,1.226 1.032,1.862 0.483,2.342 -0.152,2.301 -0.788,2.258 -1.269,1.709 -1.227,1.073 -1.184,0.438 -0.635,-0.043 0,0"
         style="fill:#ffffff;fill-opacity:1;fill-rule:nonzero;stroke:none;stroke-width:0.12093867"
         id="path1235"
         inkscape:connector-curvature="0" />
    </g>
  </g>
</svg>
