<?xml version="1.0" encoding="UTF-8" standalone="no"?>
<!-- Created with Inkscape (http://www.inkscape.org/) -->

<svg
   xmlns:dc="http://purl.org/dc/elements/1.1/"
   xmlns:cc="http://creativecommons.org/ns#"
   xmlns:rdf="http://www.w3.org/1999/02/22-rdf-syntax-ns#"
   xmlns:svg="http://www.w3.org/2000/svg"
   xmlns="http://www.w3.org/2000/svg"
   xmlns:sodipodi="http://sodipodi.sourceforge.net/DTD/sodipodi-0.dtd"
   xmlns:inkscape="http://www.inkscape.org/namespaces/inkscape"
   width="250"
   height="250"
   viewBox="0 0 66.145832 66.145835"
   version="1.1"
   id="svg1422"
   inkscape:version="0.92.4 (5da689c313, 2019-01-14)"
   sodipodi:docname="modern pen.svg">
  <defs
     id="defs1416" />
  <sodipodi:namedview
     id="base"
     pagecolor="#ffffff"
     bordercolor="#666666"
     borderopacity="1.0"
     inkscape:pageopacity="0.0"
     inkscape:pageshadow="2"
     inkscape:zoom="0.9725031"
     inkscape:cx="273.67313"
     inkscape:cy="183.94398"
     inkscape:document-units="mm"
     inkscape:current-layer="layer1"
     showgrid="false"
     units="px"
     inkscape:pagecheckerboard="true"
     inkscape:window-width="1366"
     inkscape:window-height="705"
     inkscape:window-x="-8"
     inkscape:window-y="-8"
     inkscape:window-maximized="1"
     showguides="false" />
  <metadata
     id="metadata1419">
    <rdf:RDF>
      <cc:Work
         rdf:about="">
        <dc:format>image/svg+xml</dc:format>
        <dc:type
           rdf:resource="http://purl.org/dc/dcmitype/StillImage" />
        <dc:title></dc:title>
      </cc:Work>
    </rdf:RDF>
  </metadata>
  <g
     inkscape:label="Layer 1"
     inkscape:groupmode="layer"
     id="layer1"
     transform="translate(0,-230.85415)">
    <g
       id="g1261"
       transform="matrix(2.9168688,0,0,-2.9169974,66.145833,263.92707)"
       style="fill:#842435;fill-opacity:1;stroke-width:0.12094134">
      <path
         d="m 0,0 c 0,-6.262 -5.077,-11.338 -11.339,-11.338 -6.262,0 -11.338,5.076 -11.338,11.338 0,6.262 5.076,11.338 11.338,11.338 C -5.077,11.338 0,6.262 0,0"
         style="fill:#842435;fill-opacity:1;fill-rule:nonzero;stroke:none;stroke-width:0.12094134"
         id="path1263"
         inkscape:connector-curvature="0" />
    </g>
    <g
       id="g1389"
       transform="matrix(2.9169974,0,0,-2.9169974,24.76239,239.17932)"
       style="stroke-width:0.12093867">
      <path
         d="M 0,0 C 0.205,0.049 1.562,0.52 2.248,0.784 2.358,0.561 2.502,0.285 2.64,0.026 0.911,-0.111 -0.734,-0.549 -2.244,-1.233 c 0.204,-0.141 0.452,-0.225 0.719,-0.225 0.281,0 0.542,0.093 0.752,0.248 0.21,-0.155 0.47,-0.248 0.752,-0.248 0.281,0 0.541,0.093 0.752,0.248 0.21,-0.155 0.47,-0.248 0.752,-0.248 0.281,0 0.541,0.093 0.752,0.248 0.209,-0.155 0.469,-0.248 0.752,-0.248 0.513,0 0.941,0.314 1.152,0.746 0.015,0.029 0.029,0.059 0.038,0.092 0.052,0.162 0.04,0.331 -0.042,0.47 C 3.909,0.263 2.902,1.541 2.654,1.665 2.63,1.678 2.604,1.69 2.577,1.698 2.494,1.725 2.408,1.723 2.332,1.698 2.169,1.649 -0.116,0.524 -0.197,0.47 -0.248,0.438 -0.287,0.389 -0.305,0.327 -0.347,0.19 -0.268,0.046 -0.131,0.004 -0.093,-0.007 -0.047,-0.01 0,0"
         style="fill:#ffffff;fill-opacity:1;fill-rule:nonzero;stroke:none;stroke-width:0.12093867"
         id="path1391"
         inkscape:connector-curvature="0" />
    </g>
    <g
       id="g1393"
       transform="matrix(2.9169974,0,0,-2.9169974,43.64119,240.79824)"
       style="stroke-width:0.12093867">
      <path
         d="m 0,0 c 0.001,-0.023 0.003,-0.044 0.003,-0.068 0,-0.307 -0.12,-0.587 -0.314,-0.796 0.098,-0.025 0.2,-0.039 0.306,-0.039 0.281,0 0.541,0.093 0.752,0.249 0.21,-0.156 0.47,-0.249 0.752,-0.249 0.333,0 0.636,0.13 0.862,0.341 C 1.6,-0.312 0.81,-0.124 0,0"
         style="fill:#ffffff;fill-opacity:1;fill-rule:nonzero;stroke:none;stroke-width:0.12093867"
         id="path1395"
         inkscape:connector-curvature="0" />
    </g>
    <g
       id="g1397"
       transform="matrix(2.9169974,0,0,-2.9169974,40.22249,238.55801)"
       style="stroke-width:0.12093867">
      <path
         d="m 0,0 c -0.461,0 -0.836,-0.374 -0.836,-0.835 0,-0.461 0.375,-0.835 0.836,-0.835 0.461,0 0.835,0.374 0.835,0.835 C 0.835,-0.374 0.461,0 0,0"
         style="fill:#ffffff;fill-opacity:1;fill-rule:nonzero;stroke:none;stroke-width:0.12093867"
         id="path1399"
         inkscape:connector-curvature="0" />
    </g>
    <g
       id="g1401"
       transform="matrix(2.9169974,0,0,-2.9169974,19.02759,288.79744)"
       style="stroke-width:0.12093867">
      <path
         d="M 0,0 C 0.233,-0.038 0.868,-0.127 1.449,-0.2 1.567,0.307 1.725,0.733 1.905,1.001 1.537,0.974 1.119,0.94 0.775,0.912 1.083,1.619 1.543,2.681 1.628,2.881 1.651,2.936 1.658,3.001 1.639,3.064 1.596,3.204 1.448,3.283 1.307,3.24 1.24,3.22 1.186,3.173 1.154,3.116 1.011,2.874 -0.12,0.956 -0.296,0.612 -0.355,0.492 -0.358,0.347 -0.291,0.22 -0.229,0.103 -0.116,0.02 0,0"
         style="fill:#ffffff;fill-opacity:1;fill-rule:nonzero;stroke:none;stroke-width:0.12093867"
         id="path1403"
         inkscape:connector-curvature="0" />
    </g>
    <g
       id="g1405"
       transform="matrix(2.9169974,0,0,-2.9169974,29.28959,286.42302)"
       style="stroke-width:0.12093867">
      <path
         d="m 0,0 c -0.236,0.115 -0.526,0.1 -0.754,-0.063 -0.332,-0.238 -0.409,-0.7 -0.172,-1.032 0.099,-0.138 0.244,-0.236 0.385,-0.281 0.046,-0.016 2.248,-0.746 2.46,-0.807 0.082,-0.022 0.168,-0.033 0.25,-0.014 0.032,0.008 0.061,0.018 0.088,0.032 0.297,0.151 2.261,1.206 2.476,1.33 l 0.124,-0.274 c 0.169,0.077 0.295,0.24 0.315,0.439 0.005,0.06 0.001,0.117 -0.011,0.173 L 8.886,1.19 C 8.943,1.216 8.969,1.283 8.942,1.34 8.917,1.397 8.849,1.423 8.793,1.396 L 5.065,-0.292 C 4.977,-0.177 4.843,-0.096 4.687,-0.081 4.589,-0.071 4.496,-0.088 4.413,-0.125 L 4.535,-0.396 C 4.314,-0.471 2.721,-1.061 2.119,-1.287 1.626,-0.975 0.308,-0.151 0,0"
         style="fill:#ffffff;fill-opacity:1;fill-rule:nonzero;stroke:none;stroke-width:0.12093867"
         id="path1407"
         inkscape:connector-curvature="0" />
    </g>
    <g
       id="g1409"
       transform="matrix(2.9169974,0,0,-2.9169974,29.48793,279.95015)"
       style="stroke-width:0.12093867">
      <path
         d="m 0,0 v -1.859 c 0.584,0.072 0.736,0.46 0.736,0.929 C 0.736,-0.461 0.584,-0.073 0,0"
         style="fill:#ffffff;fill-opacity:1;fill-rule:nonzero;stroke:none;stroke-width:0.12093867"
         id="path1411"
         inkscape:connector-curvature="0" />
    </g>
    <g
       id="g1413"
       transform="matrix(2.9169974,0,0,-2.9169974,28.49616,285.25623)"
       style="stroke-width:0.12093867">
      <path
         d="m 0,0 v 1.831 c -0.396,0 -0.725,-0.09 -0.725,-0.09 V 0.286"
         style="fill:#ffffff;fill-opacity:1;fill-rule:nonzero;stroke:none;stroke-width:0.12093867"
         id="path1415"
         inkscape:connector-curvature="0" />
    </g>
    <g
       id="g1417"
       transform="matrix(2.9169974,0,0,-2.9169974,55.77301,260.87883)"
       style="stroke-width:0.12093867">
      <path
         d="m 0,0 c 0.071,-0.142 0.227,-0.228 0.392,-0.203 0.103,0.016 0.19,0.074 0.246,0.151 l 1.34,1.843 C 2.031,1.866 2.039,1.982 1.979,2.067 1.903,2.173 1.757,2.2 1.65,2.124 1.636,2.115 1.623,2.104 1.611,2.092 1.235,1.691 0.873,1.296 0.527,0.921 0.425,1.304 0.323,1.661 0.219,1.974 0.186,1.464 0.055,0.835 -0.105,0.209"
         style="fill:#ffffff;fill-opacity:1;fill-rule:nonzero;stroke:none;stroke-width:0.12093867"
         id="path1419"
         inkscape:connector-curvature="0" />
    </g>
    <g
       id="g1421"
       transform="matrix(2.9169974,0,0,-2.9169974,52.2026,252.94464)"
       style="stroke-width:0.12093867">
      <path
         d="M 0,0 C -0.481,-0.301 -1.033,-0.655 -1.537,-0.97 -1.598,-1.015 -1.643,-1.074 -1.67,-1.153 -1.682,-1.189 -1.689,-1.224 -1.69,-1.261 l -0.081,-2.275 c -0.004,-0.112 0.066,-0.217 0.179,-0.25 0.133,-0.04 0.272,0.036 0.312,0.168 0.004,0.012 0.007,0.024 0.008,0.036 0.119,0.763 0.217,1.448 0.305,2.023 0.525,0.188 1.037,0.394 1.488,0.581 0.238,0.109 0.372,0.377 0.306,0.64 C 0.751,-0.041 0.45,0.139 0.152,0.064 0.101,0.051 0.051,0.031 0,0"
         style="fill:#ffffff;fill-opacity:1;fill-rule:nonzero;stroke:none;stroke-width:0.12093867"
         id="path1423"
         inkscape:connector-curvature="0" />
    </g>
    <g
       id="g1425"
       transform="matrix(2.9169974,0,0,-2.9169974,59.96764,265.56352)"
       style="stroke-width:0.12093867">
      <path
         d="M 0,0 C -0.1,0.051 -2.121,1.014 -2.298,1.077 -2.391,1.113 -2.487,1.133 -2.591,1.128 -2.854,1.115 -3.082,0.951 -3.18,0.734 l -2.611,-5.531 c -0.016,-0.033 -0.024,-0.066 -0.024,-0.104 0,-0.134 0.109,-0.244 0.244,-0.244 0.085,0 0.16,0.044 0.204,0.11 l 3.037,4.581 c 0.418,-0.118 0.887,-0.243 1.306,-0.347 -0.527,-0.902 -1.259,-2.258 -1.332,-2.399 -0.023,-0.043 -0.036,-0.086 -0.036,-0.135 0,-0.147 0.119,-0.266 0.266,-0.266 0.083,0 0.158,0.039 0.207,0.098 0.034,0.038 2.072,2.687 2.101,2.726 0.061,0.078 0.1,0.173 0.107,0.278 C 0.305,-0.283 0.19,-0.095 0,0"
         style="fill:#ffffff;fill-opacity:1;fill-rule:nonzero;stroke:none;stroke-width:0.12093867"
         id="path1427"
         inkscape:connector-curvature="0" />
    </g>
    <g
       id="g1429"
       transform="matrix(2.9169974,0,0,-2.9169974,56.17555,252.72585)"
       style="stroke-width:0.12093867">
      <path
         d="M 0,0 C 0.426,0 0.771,0.346 0.771,0.772 0.771,1.197 0.426,1.543 0,1.543 -0.425,1.543 -0.771,1.197 -0.771,0.772 -0.771,0.346 -0.425,0 0,0"
         style="fill:#ffffff;fill-opacity:1;fill-rule:nonzero;stroke:none;stroke-width:0.12093867"
         id="path1431"
         inkscape:connector-curvature="0" />
    </g>
    <g
       id="g1433"
       transform="matrix(2.9169974,0,0,-2.9169974,27.18642,251.36946)"
       style="stroke-width:0.12093867">
      <path
         d="m 0,0 c 0.069,0.011 0.138,0.036 0.178,0.087 l 0.31,0.395 C 0.57,0.588 0.649,0.654 0.812,0.654 h 1.615 c 0.05,0 0.091,0.041 0.091,0.09 v 0.244 c 0,0.05 -0.041,0.091 -0.091,0.091 H 0.622 C 0.436,1.079 0.259,0.996 0.139,0.854 L -0.181,0.46 h -4.302 c 0.186,-0.203 0.332,-0.677 0.377,-1.06 0.682,0.128 1.786,0.317 1.786,0.317"
         style="fill:#ffffff;fill-opacity:1;fill-rule:nonzero;stroke:none;stroke-width:0.12093867"
         id="path1435"
         inkscape:connector-curvature="0" />
    </g>
    <g
       id="g1437"
       transform="matrix(2.9169974,0,0,-2.9169974,14.742513,247.20107)"
       style="stroke-width:0.12093867">
      <path
         d="m 0,0 c 0,0.438 -0.356,0.794 -0.794,0.794 -0.439,0 -0.794,-0.356 -0.794,-0.794 0,-0.438 0.355,-0.794 0.794,-0.794 C -0.356,-0.794 0,-0.438 0,0"
         style="fill:#ffffff;fill-opacity:1;fill-rule:nonzero;stroke:none;stroke-width:0.12093867"
         id="path1439"
         inkscape:connector-curvature="0" />
    </g>
    <g
       id="g1441"
       transform="matrix(2.9169974,0,0,-2.9169974,8.097599,251.57362)"
       style="stroke-width:0.12093867">
      <path
         d="m 0,0 c -0.084,-0.152 -0.864,-1.608 -0.944,-1.755 -0.048,-0.082 -0.069,-0.185 -0.052,-0.289 0.007,-0.044 0.02,-0.085 0.039,-0.122 l 1.119,-2.305 c 0.056,-0.115 0.186,-0.185 0.319,-0.158 0.157,0.032 0.258,0.185 0.226,0.342 -0.003,0.015 -0.008,0.031 -0.012,0.041 -0.296,0.845 -0.538,1.55 -0.755,2.174 0.311,0.36 0.881,1.044 1.131,1.368 0.184,0.243 0.174,0.589 -0.037,0.821 C 0.795,0.38 0.389,0.399 0.127,0.16 0.075,0.112 0.033,0.059 0,0"
         style="fill:#ffffff;fill-opacity:1;fill-rule:nonzero;stroke:none;stroke-width:0.12093867"
         id="path1443"
         inkscape:connector-curvature="0" />
    </g>
    <g
       id="g1445"
       transform="matrix(2.9169974,0,0,-2.9169974,26.71387,256.07747)"
       style="stroke-width:0.12093867">
      <path
         d="M 0,0 0.548,-0.008 C 0.545,-0.108 0.542,-0.204 0.54,-0.288 0.536,-0.43 0.558,-0.537 0.63,-0.644 0.662,-0.692 0.773,-0.817 0.832,-0.873 l 0.173,0.155 c 0,0 -0.161,0.152 -0.205,0.234 -0.022,0.04 -0.034,0.108 -0.032,0.194 0.004,0.085 0.007,0.184 0.01,0.278 l 0.968,-0.016 c 0.021,0 0.026,0.025 0.009,0.038 -0.157,0.124 -0.311,0.242 -0.311,0.242 0,0 -0.037,0.753 -0.744,0.744 C 0.011,0.987 -0.048,0.425 -0.031,0.036 -0.029,0.02 -0.017,0.001 0,0"
         style="fill:#ffffff;fill-opacity:1;fill-rule:nonzero;stroke:none;stroke-width:0.12093867"
         id="path1447"
         inkscape:connector-curvature="0" />
    </g>
    <g
       id="g1449"
       transform="matrix(2.9169974,0,0,-2.9169974,42.70777,265.75312)"
       style="stroke-width:0.12093867">
      <path
         d="M 0,0 -1.244,3.568 C -1.272,3.646 -1.384,3.647 -1.408,3.563 L -1.716,2.665 C -2.22,2.712 -3.272,2.611 -4.217,1.838 c -0.41,-0.335 -0.73,-0.77 -0.964,-1.167 -0.322,0.132 -0.77,0.311 -1.143,0.453 0.277,0.305 0.659,0.739 0.73,0.842 0.051,0.073 0.085,0.151 0.099,0.237 C -5.44,2.527 -5.66,2.832 -5.983,2.887 -6.212,2.924 -6.406,2.842 -6.56,2.65 -6.713,2.459 -7.426,1.248 -7.478,1.093 -7.498,1.04 -7.508,0.983 -7.505,0.923 -7.497,0.731 -7.369,0.575 -7.187,0.529 -7.005,0.483 -6.088,0.339 -5.416,0.235 -5.498,0.068 -5.56,-0.076 -5.604,-0.183 l -1.355,-0.586 -1.212,1.818 c 0,0 -0.462,-0.155 -0.689,-0.551 -0.09,-0.156 -0.145,-0.349 -0.117,-0.584 0.018,-0.159 0.078,-0.283 0.177,-0.398 0.092,-0.106 0.422,-0.405 0.808,-0.733 l -2.876,-1.264 c 0.832,-0.937 1.903,-1.248 3.089,-1.324 1.08,-0.069 1.867,0.086 3.167,0.592 0.124,0.049 1.931,0.802 2.73,1.146 -0.059,-0.358 -0.121,-0.745 -0.157,-0.968 l -0.735,-0.118 c -0.014,-0.004 -0.028,-0.006 -0.04,-0.011 -0.049,-0.017 -0.085,-0.051 -0.109,-0.099 -0.006,-0.013 -0.011,-0.028 -0.017,-0.044 l -0.219,-0.69 c -0.001,-0.005 -0.003,-0.01 -0.004,-0.015 -0.004,-0.047 0.042,-0.078 0.086,-0.072 0.006,0.002 0.014,0.004 0.02,0.007 0,0 1.219,0.503 1.339,0.564 0.044,0.022 0.073,0.043 0.094,0.064 0.027,0.026 0.043,0.056 0.058,0.089 0.098,0.216 0.58,1.628 0.638,1.829 0.019,0.065 0.037,0.145 0.029,0.227 -0.025,0.219 -0.197,0.346 -0.356,0.373 -0.008,0.001 -0.065,0.01 -0.156,0 -0.312,-0.035 -1.087,-0.17 -1.618,-0.292 0.212,1.321 0.674,1.89 1.177,2.249 0.328,-0.304 0.835,-0.783 1.376,-1.327 0.031,-0.029 0.078,-0.049 0.126,-0.024 0.054,0.028 0.303,0.195 0.332,0.224 C 0.014,-0.069 0.012,-0.039 0,0"
         style="fill:#ffffff;fill-opacity:1;fill-rule:nonzero;stroke:none;stroke-width:0.12093867"
         id="path1451"
         inkscape:connector-curvature="0" />
    </g>
  </g>
</svg>
