<?xml version="1.0" encoding="UTF-8" standalone="no"?>
<!-- Created with Inkscape (http://www.inkscape.org/) -->

<svg
   xmlns:dc="http://purl.org/dc/elements/1.1/"
   xmlns:cc="http://creativecommons.org/ns#"
   xmlns:rdf="http://www.w3.org/1999/02/22-rdf-syntax-ns#"
   xmlns:svg="http://www.w3.org/2000/svg"
   xmlns="http://www.w3.org/2000/svg"
   xmlns:sodipodi="http://sodipodi.sourceforge.net/DTD/sodipodi-0.dtd"
   xmlns:inkscape="http://www.inkscape.org/namespaces/inkscape"
   width="250"
   height="250"
   viewBox="0 0 66.145832 66.145835"
   version="1.1"
   id="svg1422"
   inkscape:version="0.92.4 (5da689c313, 2019-01-14)"
   sodipodi:docname="rugby.svg">
  <defs
     id="defs1416" />
  <sodipodi:namedview
     id="base"
     pagecolor="#ffffff"
     bordercolor="#666666"
     borderopacity="1.0"
     inkscape:pageopacity="0.0"
     inkscape:pageshadow="2"
     inkscape:zoom="0.61445677"
     inkscape:cx="132.40649"
     inkscape:cy="-104.2064"
     inkscape:document-units="mm"
     inkscape:current-layer="layer1"
     showgrid="false"
     units="px"
     inkscape:pagecheckerboard="true"
     inkscape:window-width="1366"
     inkscape:window-height="705"
     inkscape:window-x="-8"
     inkscape:window-y="-8"
     inkscape:window-maximized="1"
     showguides="false" />
  <metadata
     id="metadata1419">
    <rdf:RDF>
      <cc:Work
         rdf:about="">
        <dc:format>image/svg+xml</dc:format>
        <dc:type
           rdf:resource="http://purl.org/dc/dcmitype/StillImage" />
        <dc:title></dc:title>
      </cc:Work>
    </rdf:RDF>
  </metadata>
  <g
     inkscape:label="Layer 1"
     inkscape:groupmode="layer"
     id="layer1"
     transform="translate(0,-230.85415)">
    <g
       id="g1569"
       transform="matrix(2.9168688,0,0,-2.9168688,66.145834,263.92852)"
       style="fill:#842435;fill-opacity:1;stroke-width:0.120944">
      <path
         d="m 0,0 c 0,-6.262 -5.077,-11.338 -11.339,-11.338 -6.262,0 -11.338,5.076 -11.338,11.338 0,6.263 5.076,11.339 11.338,11.339 C -5.077,11.339 0,6.263 0,0"
         style="fill:#842435;fill-opacity:1;fill-rule:nonzero;stroke:none;stroke-width:0.120944"
         id="path1571"
         inkscape:connector-curvature="0" />
    </g>
    <g
       id="g1573"
       transform="matrix(2.9168688,0,0,-2.9168688,54.274174,256.07339)"
       style="stroke-width:0.120944">
      <path
         d="M 0,0 C -0.087,1.274 -0.979,1.813 -1.289,1.792 -1.571,1.773 -2.267,1.232 -2.328,0.178 -2.481,0.181 -2.643,0.182 -2.81,0.183 -2.899,0.632 -3.143,1.828 -3.343,2.553 -3.451,1.837 -3.835,1.237 -4.287,0.767 -4.176,0.549 -4.071,0.344 -3.983,0.172 -4.263,0.164 -4.528,0.151 -4.763,0.133 c 0.015,0.58 0.032,1.452 0.007,2.059 -0.009,0.177 -0.064,0.353 -0.171,0.509 -0.311,0.454 -0.931,0.57 -1.385,0.26 -0.354,-0.243 -0.501,-0.674 -0.402,-1.067 0.274,-1.066 0.795,-2.645 0.795,-2.645 0.088,-0.268 0.348,-0.431 0.618,-0.408 0.279,0.022 1.908,0.285 3.065,0.475 0.253,-0.898 0.936,-1.283 1.2,-1.265 C -0.726,-1.928 0.086,-1.275 0,0"
         style="fill:#ffffff;fill-opacity:1;fill-rule:nonzero;stroke:none;stroke-width:0.120944"
         id="path1575"
         inkscape:connector-curvature="0" />
    </g>
    <g
       id="g1577"
       transform="matrix(2.9168688,0,0,-2.9168688,41.011174,246.72775)"
       style="stroke-width:0.120944">
      <path
         d="M 0,0 C 0.558,-0.41 1.342,-0.291 1.752,0.266 2.162,0.823 2.042,1.608 1.486,2.018 0.928,2.428 0.144,2.309 -0.266,1.751 -0.676,1.194 -0.558,0.41 0,0"
         style="fill:#ffffff;fill-opacity:1;fill-rule:nonzero;stroke:none;stroke-width:0.120944"
         id="path1579"
         inkscape:connector-curvature="0" />
    </g>
    <g
       id="g1581"
       transform="matrix(2.9168688,0,0,-2.9168688,32.543504,258.56727)"
       style="stroke-width:0.120944">
      <path
         d="m 0,0 c -0.416,0.232 -0.944,0.199 -1.328,-0.104 -0.023,-0.02 -0.061,-0.051 -0.091,-0.08 -0.927,-0.887 -6.108,-7.156 -6.285,-7.505 -0.025,-0.047 -0.04,-0.099 -0.043,-0.156 -0.009,-0.206 0.15,-0.381 0.356,-0.389 0.085,-0.004 0.164,0.022 0.229,0.067 0.098,0.066 4.897,4.225 6.671,5.762 0.48,-0.243 0.988,-0.485 1.519,-0.724 -1.297,-1.147 -3.345,-3.033 -3.556,-3.375 -0.127,-0.197 -0.069,-0.46 0.129,-0.588 0.125,-0.082 0.277,-0.088 0.404,-0.031 0.476,0.218 4.6,3.159 5.064,3.653 0.292,0.29 0.31,0.75 0.055,1.062 -0.009,0.012 -0.05,0.055 -0.069,0.074 C 2.603,-1.9 0.357,-0.191 0,0"
         style="fill:#ffffff;fill-opacity:1;fill-rule:nonzero;stroke:none;stroke-width:0.120944"
         id="path1583"
         inkscape:connector-curvature="0" />
    </g>
  </g>
</svg>
