<?xml version="1.0" encoding="UTF-8" standalone="no"?>
<!-- Created with Inkscape (http://www.inkscape.org/) -->

<svg
   xmlns:dc="http://purl.org/dc/elements/1.1/"
   xmlns:cc="http://creativecommons.org/ns#"
   xmlns:rdf="http://www.w3.org/1999/02/22-rdf-syntax-ns#"
   xmlns:svg="http://www.w3.org/2000/svg"
   xmlns="http://www.w3.org/2000/svg"
   xmlns:sodipodi="http://sodipodi.sourceforge.net/DTD/sodipodi-0.dtd"
   xmlns:inkscape="http://www.inkscape.org/namespaces/inkscape"
   width="250"
   height="250"
   viewBox="0 0 66.145832 66.145835"
   version="1.1"
   id="svg1422"
   inkscape:version="0.92.4 (5da689c313, 2019-01-14)"
   sodipodi:docname="shooting.svg">
  <defs
     id="defs1416" />
  <sodipodi:namedview
     id="base"
     pagecolor="#ffffff"
     bordercolor="#666666"
     borderopacity="1.0"
     inkscape:pageopacity="0.0"
     inkscape:pageshadow="2"
     inkscape:zoom="1.3753271"
     inkscape:cx="210.74547"
     inkscape:cy="90.319116"
     inkscape:document-units="mm"
     inkscape:current-layer="layer1"
     showgrid="false"
     units="px"
     inkscape:pagecheckerboard="true"
     inkscape:window-width="1366"
     inkscape:window-height="705"
     inkscape:window-x="-8"
     inkscape:window-y="-8"
     inkscape:window-maximized="1"
     showguides="false" />
  <metadata
     id="metadata1419">
    <rdf:RDF>
      <cc:Work
         rdf:about="">
        <dc:format>image/svg+xml</dc:format>
        <dc:type
           rdf:resource="http://purl.org/dc/dcmitype/StillImage" />
        <dc:title></dc:title>
      </cc:Work>
    </rdf:RDF>
  </metadata>
  <g
     inkscape:label="Layer 1"
     inkscape:groupmode="layer"
     id="layer1"
     transform="translate(0,-230.85415)">
    <g
       id="g1693"
       transform="matrix(2.9168688,0,0,-2.9168688,66.145834,263.92852)"
       style="fill:#883381;fill-opacity:1;stroke-width:0.120944">
      <path
         d="m 0,0 c 0,-6.262 -5.077,-11.338 -11.338,-11.338 -6.263,0 -11.339,5.076 -11.339,11.338 0,6.263 5.076,11.339 11.339,11.339 C -5.077,11.339 0,6.263 0,0"
         style="fill:#883381;fill-opacity:1;fill-rule:nonzero;stroke:none;stroke-width:0.120944"
         id="path1695"
         inkscape:connector-curvature="0" />
    </g>
    <g
       id="g1697"
       transform="matrix(2.9168688,0,0,-2.9168688,21.342724,260.85122)"
       style="stroke-width:0.120944">
      <path
         d="M 0,0 C 0.901,0.013 1.621,0.755 1.608,1.657 1.595,2.559 0.853,3.279 -0.048,3.265 -0.95,3.252 -1.67,2.511 -1.657,1.609 -1.643,0.707 -0.902,-0.013 0,0"
         style="fill:#ffffff;fill-opacity:1;fill-rule:nonzero;stroke:none;stroke-width:0.120944"
         id="path1699"
         inkscape:connector-curvature="0" />
    </g>
    <g
       id="g1701"
       transform="matrix(2.9168688,0,0,-2.9168688,21.392314,269.88474)"
       style="stroke-width:0.120944">
      <path
         d="M 0,0 C -0.252,0.262 -0.555,0.578 -0.875,0.912 L 1.569,1.546 C 1.038,1.036 0.457,0.469 0,0 m -2.454,2.538 c -0.577,0.44 -1.403,0.328 -1.844,-0.249 -0.44,-0.579 -0.337,-1.416 0.271,-1.861 0.885,-0.662 3.267,-2.202 3.625,-2.383 0.179,-0.09 0.345,-0.126 0.531,-0.098 0.24,0.037 0.453,0.187 0.569,0.35 0.225,0.317 2.808,3.873 2.808,3.873 L 4.411,2.794 5.823,2.934 4.093,1.051 C 3.86,1.093 3.621,1.133 3.397,1.17 L 2.241,-0.426 4.228,-0.604 c 0.073,-0.006 0.123,-0.01 0.173,-0.01 0.304,0.004 0.556,0.173 0.702,0.444 l 2.033,3.565 6.149,0.639 c 0.063,0.006 0.108,0.062 0.101,0.124 L 13.343,4.552 C 13.337,4.614 13.281,4.659 13.219,4.653 L 4.888,3.785 C 4.609,3.754 4.336,3.682 4.079,3.568 L 2.931,3.034 C 2.773,2.965 2.606,2.92 2.435,2.901 l -4.723,-0.51 c -0.023,0.025 -0.123,0.114 -0.166,0.147"
         style="fill:#ffffff;fill-opacity:1;fill-rule:nonzero;stroke:none;stroke-width:0.120944"
         id="path1703"
         inkscape:connector-curvature="0" />
    </g>
  </g>
</svg>
