<?xml version="1.0" encoding="UTF-8" standalone="no"?>
<!-- Created with Inkscape (http://www.inkscape.org/) -->

<svg
   xmlns:dc="http://purl.org/dc/elements/1.1/"
   xmlns:cc="http://creativecommons.org/ns#"
   xmlns:rdf="http://www.w3.org/1999/02/22-rdf-syntax-ns#"
   xmlns:svg="http://www.w3.org/2000/svg"
   xmlns="http://www.w3.org/2000/svg"
   xmlns:sodipodi="http://sodipodi.sourceforge.net/DTD/sodipodi-0.dtd"
   xmlns:inkscape="http://www.inkscape.org/namespaces/inkscape"
   width="250"
   height="250"
   viewBox="0 0 66.145832 66.145835"
   version="1.1"
   id="svg1422"
   inkscape:version="0.92.4 (5da689c313, 2019-01-14)"
   sodipodi:docname="softball.svg">
  <defs
     id="defs1416" />
  <sodipodi:namedview
     id="base"
     pagecolor="#ffffff"
     bordercolor="#666666"
     borderopacity="1.0"
     inkscape:pageopacity="0.0"
     inkscape:pageshadow="2"
     inkscape:zoom="1.3753271"
     inkscape:cx="210.74547"
     inkscape:cy="90.319116"
     inkscape:document-units="mm"
     inkscape:current-layer="layer1"
     showgrid="false"
     units="px"
     inkscape:pagecheckerboard="true"
     inkscape:window-width="1366"
     inkscape:window-height="705"
     inkscape:window-x="-8"
     inkscape:window-y="-8"
     inkscape:window-maximized="1"
     showguides="false" />
  <metadata
     id="metadata1419">
    <rdf:RDF>
      <cc:Work
         rdf:about="">
        <dc:format>image/svg+xml</dc:format>
        <dc:type
           rdf:resource="http://purl.org/dc/dcmitype/StillImage" />
        <dc:title></dc:title>
      </cc:Work>
    </rdf:RDF>
  </metadata>
  <g
     inkscape:label="Layer 1"
     inkscape:groupmode="layer"
     id="layer1"
     transform="translate(0,-230.85415)">
    <g
       id="g1061"
       transform="matrix(2.9168688,0,0,-2.9168688,66.145834,263.92561)"
       style="fill:#2c4c98;fill-opacity:1;stroke-width:0.120944">
      <path
         d="m 0,0 c 0,-6.263 -5.077,-11.339 -11.339,-11.339 -6.262,0 -11.338,5.076 -11.338,11.339 0,6.262 5.076,11.338 11.338,11.338 C -5.077,11.338 0,6.262 0,0"
         style="fill:#2c4c98;fill-opacity:1;fill-rule:nonzero;stroke:none;stroke-width:0.120944"
         id="path1063"
         inkscape:connector-curvature="0" />
    </g>
    <g
       id="g1065"
       transform="matrix(2.9168688,0,0,-2.9168688,35.985434,253.2878)"
       style="stroke-width:0.120944">
      <path
         d="M 0,0 C 0.618,-0.055 1.164,0.401 1.219,1.018 1.275,1.636 0.818,2.181 0.2,2.237 -0.417,2.293 -0.963,1.837 -1.018,1.219 -1.073,0.601 -0.617,0.055 0,0"
         style="fill:#ffffff;fill-opacity:1;fill-rule:nonzero;stroke:none;stroke-width:0.120944"
         id="path1067"
         inkscape:connector-curvature="0" />
    </g>
    <g
       id="g1069"
       transform="matrix(2.9168688,0,0,-2.9168688,46.188614,272.57416)"
       style="stroke-width:0.120944">
      <path
         d="m 0,0 c -0.054,0.116 -0.14,0.219 -0.256,0.293 -0.228,0.146 -3.338,2.046 -3.338,2.046 -0.378,0.232 -0.844,0.207 -1.19,-0.032 -0.581,-0.394 -1.778,-2.239 -2.58,-3.405 -0.687,-0.551 -3.172,-2.744 -3.915,-3.636 -0.109,-0.125 -0.123,-0.252 -0.077,-0.382 0.043,-0.117 0.146,-0.209 0.268,-0.234 0.114,-0.024 0.219,0.004 0.3,0.062 l 4.188,3.055 c 0.136,0.1 0.267,0.207 0.392,0.32 l 2.254,2.032 c 0.932,-0.376 2.251,-0.796 2.86,-0.983 0.574,-1.006 2.539,-4.167 2.696,-4.357 0.076,-0.094 0.196,-0.152 0.337,-0.135 0.126,0.015 0.239,0.099 0.289,0.216 0.047,0.107 0.04,0.217 -0.001,0.308"
         style="fill:#ffffff;fill-opacity:1;fill-rule:nonzero;stroke:none;stroke-width:0.120944"
         id="path1071"
         inkscape:connector-curvature="0" />
    </g>
    <g
       id="g1073"
       transform="matrix(2.9168688,0,0,-2.9168688,57.199814,255.20422)"
       style="stroke-width:0.120944">
      <path
         d="m 0,0 c -0.256,0.179 -0.603,0.282 -0.956,0.3 -0.473,0.034 -5.667,0 -5.667,0 0.103,-0.311 0.222,-0.893 0.224,-1.497 0.814,0.154 1.943,0.4 2.326,0.496 0.026,0.007 0.08,0.014 0.106,0.016 0.357,0.024 1.192,0.117 1.914,0.213 l 2.035,-1.073 C 0.148,-1.633 0.356,-1.543 0.401,-1.36 0.561,-0.713 0.59,-0.412 0,0"
         style="fill:#ffffff;fill-opacity:1;fill-rule:nonzero;stroke:none;stroke-width:0.120944"
         id="path1075"
         inkscape:connector-curvature="0" />
    </g>
    <g
       id="g1077"
       transform="matrix(2.9168688,0,0,-2.9168688,28.319902,255.48129)"
       style="stroke-width:0.120944">
      <path
         d="m 0,0 c 0.051,-0.102 0.124,-0.196 0.216,-0.274 0.372,-0.318 0.932,-0.273 1.249,0.1 C 1.668,0.064 1.723,0.38 1.638,0.659 1.486,1.211 0.711,2.658 0.347,3.265 0.316,3.322 0.291,3.363 0.284,3.449 0.252,4.106 0.1,5.559 -0.004,6.262 0.111,6.213 0.24,6.197 0.372,6.225 0.712,6.296 0.929,6.631 0.857,6.971 0.785,7.31 0.452,7.528 0.112,7.456 -0.176,7.396 -0.374,7.148 -0.386,6.868 -0.468,6.866 -0.548,6.833 -0.61,6.77 -0.664,6.714 -0.693,6.642 -0.698,6.569 -0.71,6.364 -0.786,3.617 -0.75,3.172 -0.706,2.629 -0.297,0.563 0,0"
         style="fill:#ffffff;fill-opacity:1;fill-rule:nonzero;stroke:none;stroke-width:0.120944"
         id="path1079"
         inkscape:connector-curvature="0" />
    </g>
  </g>
</svg>
