<?xml version="1.0" encoding="UTF-8" standalone="no"?>
<!-- Created with Inkscape (http://www.inkscape.org/) -->

<svg
   xmlns:dc="http://purl.org/dc/elements/1.1/"
   xmlns:cc="http://creativecommons.org/ns#"
   xmlns:rdf="http://www.w3.org/1999/02/22-rdf-syntax-ns#"
   xmlns:svg="http://www.w3.org/2000/svg"
   xmlns="http://www.w3.org/2000/svg"
   xmlns:sodipodi="http://sodipodi.sourceforge.net/DTD/sodipodi-0.dtd"
   xmlns:inkscape="http://www.inkscape.org/namespaces/inkscape"
   width="250"
   height="250"
   viewBox="0 0 66.145832 66.145835"
   version="1.1"
   id="svg1422"
   inkscape:version="0.92.4 (5da689c313, 2019-01-14)"
   sodipodi:docname="surfing.svg">
  <defs
     id="defs1416" />
  <sodipodi:namedview
     id="base"
     pagecolor="#ffffff"
     bordercolor="#666666"
     borderopacity="1.0"
     inkscape:pageopacity="0.0"
     inkscape:pageshadow="2"
     inkscape:zoom="1.0980868"
     inkscape:cx="217.20882"
     inkscape:cy="90.062091"
     inkscape:document-units="mm"
     inkscape:current-layer="layer1"
     showgrid="false"
     units="px"
     inkscape:pagecheckerboard="true"
     inkscape:window-width="1366"
     inkscape:window-height="705"
     inkscape:window-x="-8"
     inkscape:window-y="-8"
     inkscape:window-maximized="1"
     showguides="false" />
  <metadata
     id="metadata1419">
    <rdf:RDF>
      <cc:Work
         rdf:about="">
        <dc:format>image/svg+xml</dc:format>
        <dc:type
           rdf:resource="http://purl.org/dc/dcmitype/StillImage" />
        <dc:title></dc:title>
      </cc:Work>
    </rdf:RDF>
  </metadata>
  <g
     inkscape:label="Layer 1"
     inkscape:groupmode="layer"
     id="layer1"
     transform="translate(0,-230.85415)">
    <g
       id="g1561"
       transform="matrix(2.9168688,0,0,-2.9168688,66.145834,263.92852)"
       style="fill:#2c4c98;fill-opacity:1;stroke-width:0.120944">
      <path
         d="m 0,0 c 0,-6.262 -5.077,-11.338 -11.339,-11.338 -6.262,0 -11.338,5.076 -11.338,11.338 0,6.263 5.076,11.339 11.338,11.339 C -5.077,11.339 0,6.263 0,0"
         style="fill:#2c4c98;fill-opacity:1;fill-rule:nonzero;stroke:none;stroke-width:0.120944"
         id="path1563"
         inkscape:connector-curvature="0" />
    </g>
    <g
       id="g1761"
       transform="matrix(2.9168688,0,0,-2.9168688,33.821114,255.2421)"
       style="stroke-width:0.120944">
      <path
         d="M 0,0 C 0.215,-0.217 0.522,-0.338 0.848,-0.301 1.414,-0.237 1.819,0.274 1.755,0.838 1.732,1.043 1.65,1.227 1.527,1.375 1.313,1.636 0.976,1.786 0.616,1.746 0.051,1.681 -0.354,1.171 -0.29,0.606 -0.263,0.368 -0.157,0.158 0,0"
         style="fill:#ffffff;fill-opacity:1;fill-rule:nonzero;stroke:none;stroke-width:0.120944"
         id="path1763"
         inkscape:connector-curvature="0" />
    </g>
    <g
       id="g1765"
       transform="matrix(2.9168688,0,0,-2.9168688,43.047164,255.60086)"
       style="stroke-width:0.120944">
      <path
         d="m 0,0 c 0.224,0.023 0.415,0.131 0.544,0.299 0.039,0.05 0.08,0.109 0.132,0.191 0.375,0.589 1.206,2.025 1.268,2.165 0.2,0.388 0.992,2.575 1.04,2.84 C 3.019,5.648 2.924,5.801 2.771,5.836 2.646,5.865 2.523,5.806 2.462,5.701 2.272,5.376 1.312,3.606 1.094,3.177 0.852,2.948 -0.522,1.517 -0.592,1.441 -0.66,1.364 -0.683,1.338 -0.752,1.239 -0.844,1.108 -0.898,0.911 -0.879,0.721 -0.836,0.279 -0.442,-0.043 0,0"
         style="fill:#ffffff;fill-opacity:1;fill-rule:nonzero;stroke:none;stroke-width:0.120944"
         id="path1767"
         inkscape:connector-curvature="0" />
    </g>
    <g
       id="g1769"
       transform="matrix(2.9168688,0,0,-2.9168688,26.569774,268.7734)"
       style="stroke-width:0.120944">
      <path
         d="M 0,0 C -0.097,0.064 -1.143,0.731 -1.515,0.954 -0.84,1.203 0,1.523 0.632,1.77 0.941,2.302 1.253,2.837 1.517,3.282 1.37,3.367 1.231,3.368 1.08,3.32 1.024,3.303 0.957,3.275 0.86,3.227 0.232,2.923 -1.59,1.962 -2.437,1.481 c -0.494,0.263 -0.92,0.48 -1.351,0.679 -0.846,0.392 -1.471,0.646 -1.716,0.729 -0.101,0.034 -0.175,0.043 -0.236,0.043 -0.299,0 -0.535,-0.241 -0.535,-0.541 0,-0.077 0.024,-0.16 0.058,-0.238 0.086,-0.19 0.378,-0.649 0.794,-1.145 L -6.035,0.019 c -0.046,-0.074 0.028,-0.164 0.109,-0.132 l 1.139,0.436 c 0.959,-0.935 1.954,-1.754 3.993,-3.019 3.773,-2.341 6.59,-2.77 7.524,-2.822 0.1,-0.006 0.147,0.089 0.087,0.173 -0.602,0.84 -2.018,2.048 -4.936,4.071 0.226,0.182 0.492,0.4 0.772,0.631 0,0 0.14,-0.184 0.208,-0.266 C 2.929,-0.99 3.024,-1.071 3.125,-1.129 3.609,-1.407 4.349,-1.263 4.59,-0.561 4.821,0.14 5.11,1.345 5.185,1.711 5.26,2.077 4.998,2.451 4.62,2.518 4.419,2.553 4.233,2.503 4.074,2.383 3.915,2.263 3.235,1.535 3.235,1.535 3.109,1.676 2.98,1.82 2.85,1.963 2.51,1.567 2.12,1.115 1.753,0.691 1.849,0.543 1.945,0.395 2.037,0.255 1.684,-0.128 1.355,-0.487 1.118,-0.75 0.991,-0.664 0.508,-0.337 0.448,-0.297 0.516,-0.218 3.005,2.664 3.005,2.664 2.777,3.165 2.559,3.733 2.493,4.179 2.472,4.165 2.43,4.125 2.387,4.066 2.353,4.018 2.234,3.821 2.182,3.735 2.121,3.635 0.166,0.289 0,0"
         style="fill:#ffffff;fill-opacity:1;fill-rule:nonzero;stroke:none;stroke-width:0.120944"
         id="path1771"
         inkscape:connector-curvature="0" />
    </g>
    <g
       id="g1773"
       transform="matrix(2.9168688,0,0,-2.9168688,54.743794,286.81721)"
       style="stroke-width:0.120944">
      <path
         d="m 0,0 c -0.271,-0.276 -0.646,-0.448 -1.064,-0.448 -0.415,0 -0.79,0.172 -1.06,0.448 -0.268,-0.276 -0.645,-0.448 -1.061,-0.448 -0.416,0 -0.792,0.172 -1.061,0.448 -0.27,-0.276 -0.646,-0.448 -1.061,-0.448 -0.417,0 -0.792,0.172 -1.062,0.448 -0.269,-0.276 -0.644,-0.448 -1.061,-0.448 -0.416,0 -0.791,0.172 -1.062,0.448 -0.268,-0.276 -0.643,-0.448 -1.06,-0.448 -0.416,0 -0.792,0.172 -1.061,0.448 -0.271,-0.276 -0.646,-0.448 -1.061,-0.448 -0.418,0 -0.792,0.172 -1.061,0.448 -0.27,-0.276 -0.645,-0.448 -1.062,-0.448 -0.416,0 -0.791,0.172 -1.062,0.448 -0.125,-0.13 -0.277,-0.235 -0.443,-0.312 0.367,-0.354 0.758,-0.685 1.171,-0.987 h 13.402 c 0.413,0.302 0.804,0.633 1.172,0.987 C 0.276,-0.235 0.126,-0.13 0,0"
         style="fill:#ffffff;fill-opacity:1;fill-rule:nonzero;stroke:none;stroke-width:0.120944"
         id="path1775"
         inkscape:connector-curvature="0" />
    </g>
  </g>
</svg>
