<?xml version="1.0" encoding="UTF-8" standalone="no"?>
<!-- Created with Inkscape (http://www.inkscape.org/) -->

<svg
   xmlns:dc="http://purl.org/dc/elements/1.1/"
   xmlns:cc="http://creativecommons.org/ns#"
   xmlns:rdf="http://www.w3.org/1999/02/22-rdf-syntax-ns#"
   xmlns:svg="http://www.w3.org/2000/svg"
   xmlns="http://www.w3.org/2000/svg"
   xmlns:sodipodi="http://sodipodi.sourceforge.net/DTD/sodipodi-0.dtd"
   xmlns:inkscape="http://www.inkscape.org/namespaces/inkscape"
   width="250"
   height="250"
   viewBox="0 0 66.145832 66.145835"
   version="1.1"
   id="svg1422"
   inkscape:version="0.92.4 (5da689c313, 2019-01-14)"
   sodipodi:docname="marathon.svg">
  <defs
     id="defs1416" />
  <sodipodi:namedview
     id="base"
     pagecolor="#ffffff"
     bordercolor="#666666"
     borderopacity="1.0"
     inkscape:pageopacity="0.0"
     inkscape:pageshadow="2"
     inkscape:zoom="0.98118755"
     inkscape:cx="156.48368"
     inkscape:cy="108.15883"
     inkscape:document-units="mm"
     inkscape:current-layer="layer1"
     showgrid="false"
     units="px"
     inkscape:pagecheckerboard="true"
     inkscape:window-width="1366"
     inkscape:window-height="705"
     inkscape:window-x="-8"
     inkscape:window-y="-8"
     inkscape:window-maximized="1"
     showguides="false" />
  <metadata
     id="metadata1419">
    <rdf:RDF>
      <cc:Work
         rdf:about="">
        <dc:format>image/svg+xml</dc:format>
        <dc:type
           rdf:resource="http://purl.org/dc/dcmitype/StillImage" />
        <dc:title></dc:title>
      </cc:Work>
    </rdf:RDF>
  </metadata>
  <g
     inkscape:label="Layer 1"
     inkscape:groupmode="layer"
     id="layer1"
     transform="translate(0,-230.85415)">
    <g
       id="g973"
       transform="matrix(2.9169974,0,0,-2.9169974,66.145833,263.92707)"
       style="fill:#2e755c;fill-opacity:1;stroke-width:0.12093867">
      <path
         d="m 0,0 c 0,-6.262 -5.076,-11.338 -11.338,-11.338 -6.262,0 -11.338,5.076 -11.338,11.338 0,6.262 5.076,11.338 11.338,11.338 C -5.076,11.338 0,6.262 0,0"
         style="fill:#2e755c;fill-opacity:1;fill-rule:nonzero;stroke:none;stroke-width:0.12093867"
         id="path975"
         inkscape:connector-curvature="0" />
    </g>
    <g
       id="g977"
       transform="matrix(2.9169974,0,0,-2.9169974,49.994413,268.71098)"
       style="stroke-width:0.12093867">
      <path
         d="m 0,0 c 0.003,-0.043 0.004,-0.086 0.004,-0.129 0,-0.554 -0.218,-1.059 -0.572,-1.432 0.193,-0.054 0.397,-0.082 0.608,-0.082 0.511,0 0.982,0.168 1.363,0.45 0.381,-0.282 0.852,-0.45 1.363,-0.45 0.604,0 1.154,0.235 1.562,0.617 C 2.933,-0.568 1.487,-0.223 0,0"
         style="fill:#ffffff;fill-opacity:1;fill-rule:nonzero;stroke:none;stroke-width:0.12093867"
         id="path979"
         inkscape:connector-curvature="0" />
    </g>
    <g
       id="g981"
       transform="matrix(2.9169974,0,0,-2.9169974,15.827636,265.81439)"
       style="stroke-width:0.12093867">
      <path
         d="M 0,0 C 0.251,0.053 2.861,0.948 4.104,1.427 4.305,1.022 4.566,0.522 4.817,0.054 1.682,-0.197 -1.3,-0.989 -4.036,-2.23 c 0.37,-0.256 0.819,-0.406 1.303,-0.406 0.51,0 0.981,0.167 1.362,0.45 0.381,-0.283 0.853,-0.45 1.363,-0.45 0.511,0 0.982,0.167 1.363,0.45 0.381,-0.283 0.853,-0.45 1.363,-0.45 0.51,0 0.982,0.167 1.363,0.45 0.381,-0.283 0.852,-0.45 1.363,-0.45 0.93,0 1.705,0.569 2.089,1.351 0.027,0.053 0.051,0.108 0.07,0.167 0.094,0.295 0.072,0.6 -0.077,0.852 C 7.117,0.483 5.29,2.799 4.841,3.023 4.798,3.047 4.751,3.068 4.702,3.084 4.551,3.132 4.397,3.129 4.257,3.085 3.962,2.994 -0.181,0.956 -0.328,0.858 -0.418,0.8 -0.49,0.71 -0.523,0.598 -0.597,0.35 -0.456,0.088 -0.207,0.014 -0.138,-0.007 -0.068,-0.01 0,0"
         style="fill:#ffffff;fill-opacity:1;fill-rule:nonzero;stroke:none;stroke-width:0.12093867"
         id="path983"
         inkscape:connector-curvature="0" />
    </g>
    <g
       id="g985"
       transform="matrix(2.9169974,0,0,-2.9169974,49.376003,256.40127)"
       style="stroke-width:0.12093867">
      <path
         d="M 0,0 C 0.511,0 0.983,0.167 1.364,0.449 1.68,0.215 2.058,0.062 2.469,0.016 L 0.466,3.567 C 0.348,3.786 0.216,3.894 0,3.894 -0.216,3.894 -0.348,3.786 -0.467,3.567 L -2.47,0.016 c 0.411,0.046 0.79,0.199 1.106,0.433 C -0.983,0.167 -0.51,0 0,0"
         style="fill:#ffffff;fill-opacity:1;fill-rule:nonzero;stroke:none;stroke-width:0.12093867"
         id="path987"
         inkscape:connector-curvature="0" />
    </g>
    <g
       id="g989"
       transform="matrix(2.9169974,0,0,-2.9169974,43.938733,264.67092)"
       style="stroke-width:0.12093867">
      <path
         d="m 0,0 c -0.834,0 -1.513,-0.68 -1.513,-1.514 0,-0.835 0.679,-1.514 1.513,-1.514 0.835,0 1.514,0.679 1.514,1.514 C 1.514,-0.68 0.835,0 0,0"
         style="fill:#ffffff;fill-opacity:1;fill-rule:nonzero;stroke:none;stroke-width:0.12093867"
         id="path991"
         inkscape:connector-curvature="0" />
    </g>
  </g>
</svg>
