<?xml version="1.0" encoding="UTF-8" standalone="no"?>
<!-- Created with Inkscape (http://www.inkscape.org/) -->

<svg
   xmlns:dc="http://purl.org/dc/elements/1.1/"
   xmlns:cc="http://creativecommons.org/ns#"
   xmlns:rdf="http://www.w3.org/1999/02/22-rdf-syntax-ns#"
   xmlns:svg="http://www.w3.org/2000/svg"
   xmlns="http://www.w3.org/2000/svg"
   xmlns:sodipodi="http://sodipodi.sourceforge.net/DTD/sodipodi-0.dtd"
   xmlns:inkscape="http://www.inkscape.org/namespaces/inkscape"
   width="250"
   height="250"
   viewBox="0 0 66.145832 66.145835"
   version="1.1"
   id="svg1422"
   inkscape:version="0.92.4 (5da689c313, 2019-01-14)"
   sodipodi:docname="swimming.svg">
  <defs
     id="defs1416" />
  <sodipodi:namedview
     id="base"
     pagecolor="#ffffff"
     bordercolor="#666666"
     borderopacity="1.0"
     inkscape:pageopacity="0.0"
     inkscape:pageshadow="2"
     inkscape:zoom="2.7752175"
     inkscape:cx="184.31265"
     inkscape:cy="103.82658"
     inkscape:document-units="mm"
     inkscape:current-layer="layer1"
     showgrid="false"
     units="px"
     inkscape:pagecheckerboard="true"
     inkscape:window-width="1366"
     inkscape:window-height="705"
     inkscape:window-x="-8"
     inkscape:window-y="-8"
     inkscape:window-maximized="1"
     showguides="false" />
  <metadata
     id="metadata1419">
    <rdf:RDF>
      <cc:Work
         rdf:about="">
        <dc:format>image/svg+xml</dc:format>
        <dc:type
           rdf:resource="http://purl.org/dc/dcmitype/StillImage" />
        <dc:title></dc:title>
      </cc:Work>
    </rdf:RDF>
  </metadata>
  <g
     inkscape:label="Layer 1"
     inkscape:groupmode="layer"
     id="layer1"
     transform="translate(0,-230.85415)">
    <g
       id="g969"
       transform="matrix(2.9168688,0,0,-2.9168688,66.145834,263.92852)"
       style="fill:#2c4c98;fill-opacity:1;stroke-width:0.120944">
      <path
         d="m 0,0 c 0,-6.262 -5.077,-11.338 -11.339,-11.338 -6.262,0 -11.338,5.076 -11.338,11.338 0,6.263 5.076,11.339 11.338,11.339 C -5.077,11.339 0,6.263 0,0"
         style="fill:#2c4c98;fill-opacity:1;fill-rule:nonzero;stroke:none;stroke-width:0.120944"
         id="path971"
         inkscape:connector-curvature="0" />
    </g>
    <g
       id="g1037"
       transform="matrix(2.9168688,0,0,-2.9168688,49.995136,264.67812)"
       style="stroke-width:0.120944">
      <path
         d="m 0,0 c 0.002,-0.042 0.004,-0.085 0.004,-0.129 0,-0.554 -0.218,-1.059 -0.573,-1.432 0.194,-0.053 0.398,-0.081 0.608,-0.081 0.511,0 0.983,0.167 1.363,0.449 0.381,-0.282 0.852,-0.449 1.364,-0.449 0.604,0 1.152,0.234 1.562,0.617 C 2.933,-0.568 1.486,-0.223 0,0"
         style="fill:#ffffff;fill-opacity:1;fill-rule:nonzero;stroke:none;stroke-width:0.120944"
         id="path1039"
         inkscape:connector-curvature="0" />
    </g>
    <g
       id="g1041"
       transform="matrix(2.9168688,0,0,-2.9168688,15.826933,261.78165)"
       style="stroke-width:0.120944">
      <path
         d="M 0,0 C 0.251,0.053 2.862,0.948 4.105,1.428 4.306,1.023 4.567,0.523 4.818,0.054 1.683,-0.196 -1.3,-0.988 -4.035,-2.229 c 0.37,-0.256 0.818,-0.407 1.302,-0.407 0.511,0 0.982,0.168 1.363,0.45 0.381,-0.282 0.853,-0.45 1.363,-0.45 0.51,0 0.982,0.168 1.362,0.45 0.382,-0.282 0.853,-0.45 1.364,-0.45 0.51,0 0.982,0.168 1.363,0.45 0.381,-0.282 0.852,-0.45 1.362,-0.45 0.931,0 1.706,0.569 2.09,1.352 0.027,0.052 0.051,0.108 0.069,0.166 0.095,0.295 0.072,0.601 -0.076,0.853 C 7.118,0.484 5.291,2.8 4.842,3.024 4.799,3.048 4.751,3.068 4.703,3.084 4.551,3.132 4.398,3.129 4.257,3.085 3.963,2.994 -0.181,0.956 -0.327,0.859 -0.417,0.8 -0.489,0.711 -0.522,0.599 -0.597,0.35 -0.455,0.088 -0.206,0.014 -0.137,-0.007 -0.067,-0.01 0,0"
         style="fill:#ffffff;fill-opacity:1;fill-rule:nonzero;stroke:none;stroke-width:0.120944"
         id="path1043"
         inkscape:connector-curvature="0" />
    </g>
    <g
       id="g1045"
       transform="matrix(2.9168688,0,0,-2.9168688,43.939713,260.63823)"
       style="stroke-width:0.120944">
      <path
         d="m 0,0 c -0.835,0 -1.514,-0.679 -1.514,-1.514 0,-0.835 0.679,-1.513 1.514,-1.513 0.834,0 1.513,0.678 1.513,1.513 C 1.513,-0.679 0.834,0 0,0"
         style="fill:#ffffff;fill-opacity:1;fill-rule:nonzero;stroke:none;stroke-width:0.120944"
         id="path1047"
         inkscape:connector-curvature="0" />
    </g>
  </g>
</svg>
