<?xml version="1.0" encoding="UTF-8" standalone="no"?>
<!-- Created with Inkscape (http://www.inkscape.org/) -->

<svg
   xmlns:dc="http://purl.org/dc/elements/1.1/"
   xmlns:cc="http://creativecommons.org/ns#"
   xmlns:rdf="http://www.w3.org/1999/02/22-rdf-syntax-ns#"
   xmlns:svg="http://www.w3.org/2000/svg"
   xmlns="http://www.w3.org/2000/svg"
   xmlns:sodipodi="http://sodipodi.sourceforge.net/DTD/sodipodi-0.dtd"
   xmlns:inkscape="http://www.inkscape.org/namespaces/inkscape"
   width="250"
   height="250"
   viewBox="0 0 66.145832 66.145835"
   version="1.1"
   id="svg1422"
   inkscape:version="0.92.4 (5da689c313, 2019-01-14)"
   sodipodi:docname="tab ten.svg">
  <defs
     id="defs1416" />
  <sodipodi:namedview
     id="base"
     pagecolor="#ffffff"
     bordercolor="#666666"
     borderopacity="1.0"
     inkscape:pageopacity="0.0"
     inkscape:pageshadow="2"
     inkscape:zoom="0.69380437"
     inkscape:cx="197.15784"
     inkscape:cy="183.12385"
     inkscape:document-units="mm"
     inkscape:current-layer="layer1"
     showgrid="false"
     units="px"
     inkscape:pagecheckerboard="true"
     inkscape:window-width="1366"
     inkscape:window-height="705"
     inkscape:window-x="-8"
     inkscape:window-y="-8"
     inkscape:window-maximized="1" />
  <metadata
     id="metadata1419">
    <rdf:RDF>
      <cc:Work
         rdf:about="">
        <dc:format>image/svg+xml</dc:format>
        <dc:type
           rdf:resource="http://purl.org/dc/dcmitype/StillImage" />
        <dc:title></dc:title>
      </cc:Work>
    </rdf:RDF>
  </metadata>
  <g
     inkscape:label="Layer 1"
     inkscape:groupmode="layer"
     id="layer1"
     transform="translate(0,-230.85415)">
    <g
       id="g1537"
       transform="matrix(2.9169974,0,0,-2.9168688,66.145833,263.92852)"
       style="fill:#842435;fill-opacity:1;stroke-width:0.12094133">
      <path
         d="m 0,0 c 0,-6.262 -5.076,-11.338 -11.338,-11.338 -6.262,0 -11.338,5.076 -11.338,11.338 0,6.263 5.076,11.339 11.338,11.339 C -5.076,11.339 0,6.263 0,0"
         style="fill:#842435;fill-opacity:1;fill-rule:nonzero;stroke:none;stroke-width:0.12094133"
         id="path1539"
         inkscape:connector-curvature="0" />
    </g>
    <g
       id="g1541"
       transform="matrix(2.9168688,0,0,-2.9168688,56.560957,278.17445)"
       style="stroke-width:0.120944">
      <path
         d="m 0,0 h -18.288 c 0.11,-0.231 0.229,-0.459 0.354,-0.68 H 0"
         style="fill:#ffffff;fill-opacity:1;fill-rule:nonzero;stroke:none;stroke-width:0.120944"
         id="path1543"
         inkscape:connector-curvature="0" />
    </g>
    <g
       id="g1545"
       transform="matrix(2.9168688,0,0,-2.9168688,29.655777,267.7846)"
       style="stroke-width:0.120944">
      <path
         d="m 0,0 c 0.035,-0.004 0.07,-0.008 0.106,-0.008 0.067,0 0.134,0.011 0.196,0.026 0.553,0.121 2.636,0.68 3.364,0.897 C 3.214,1.632 2.956,2.3 2.985,2.828 2.148,2.499 0.55,1.801 -0.046,1.514 -0.912,1.572 -3.017,1.629 -4.329,1.626 -4.508,1.621 -4.621,1.554 -4.704,1.445 L -4.789,1.453 C -4.832,2.116 -5.337,2.62 -6.147,2.697 -7.05,2.784 -7.685,2.276 -7.759,1.5 -7.833,0.724 -7.306,0.105 -6.403,0.019 -5.599,-0.058 -5.009,0.336 -4.837,0.97 L -4.744,0.961 C -4.681,0.843 -4.568,0.756 -4.433,0.728 -4.197,0.677 -0.457,0.04 0,0"
         style="fill:#ffffff;fill-opacity:1;fill-rule:nonzero;stroke:none;stroke-width:0.120944"
         id="path1547"
         inkscape:connector-curvature="0" />
    </g>
    <g
       id="g1549"
       transform="matrix(2.9168688,0,0,-2.9168688,38.800177,248.71701)"
       style="stroke-width:0.120944">
      <path
         d="m 0,0 c -0.846,0 -1.53,-0.686 -1.53,-1.531 0,-0.845 0.684,-1.531 1.53,-1.531 0.846,0 1.53,0.686 1.53,1.531 C 1.53,-0.686 0.846,0 0,0"
         style="fill:#ffffff;fill-opacity:1;fill-rule:nonzero;stroke:none;stroke-width:0.120944"
         id="path1551"
         inkscape:connector-curvature="0" />
    </g>
    <g
       id="g1553"
       transform="matrix(2.9168688,0,0,-2.9168688,50.266397,273.77878)"
       style="stroke-width:0.120944">
      <path
         d="m 0,0 c -0.023,-0.051 -0.044,-0.117 -0.048,-0.186 -0.016,-0.279 0.195,-0.519 0.474,-0.537 0.178,-0.01 0.334,0.075 0.45,0.204 0.12,0.135 2.407,3.517 2.786,4.167 C 3.736,3.767 3.781,3.891 3.79,4.034 3.812,4.388 3.592,4.706 3.285,4.825 2.625,5.103 -0.287,6.191 -0.516,6.269 -0.623,6.307 -0.737,6.332 -0.856,6.34 -1.521,6.381 -2.093,5.875 -2.134,5.21 -2.172,4.594 -1.74,4.057 -1.148,3.949 -0.26,3.768 0.782,3.591 1.713,3.453 1.13,2.388 0.532,1.158 0,0"
         style="fill:#ffffff;fill-opacity:1;fill-rule:nonzero;stroke:none;stroke-width:0.120944"
         id="path1555"
         inkscape:connector-curvature="0" />
    </g>
    <g
       id="g1557"
       transform="matrix(2.9168688,0,0,-2.9168688,8.3217769,256.55758)"
       style="stroke-width:0.120944">
      <path
         d="M 0,0 C 0.28,0 0.507,0.226 0.507,0.506 0.507,0.785 0.28,1.012 0,1.012 -0.28,1.012 -0.506,0.785 -0.506,0.506 -0.506,0.226 -0.28,0 0,0"
         style="fill:#ffffff;fill-opacity:1;fill-rule:nonzero;stroke:none;stroke-width:0.120944"
         id="path1559"
         inkscape:connector-curvature="0" />
    </g>
  </g>
</svg>
