<?xml version="1.0" encoding="UTF-8" standalone="no"?>
<!-- Created with Inkscape (http://www.inkscape.org/) -->

<svg
   xmlns:dc="http://purl.org/dc/elements/1.1/"
   xmlns:cc="http://creativecommons.org/ns#"
   xmlns:rdf="http://www.w3.org/1999/02/22-rdf-syntax-ns#"
   xmlns:svg="http://www.w3.org/2000/svg"
   xmlns="http://www.w3.org/2000/svg"
   xmlns:sodipodi="http://sodipodi.sourceforge.net/DTD/sodipodi-0.dtd"
   xmlns:inkscape="http://www.inkscape.org/namespaces/inkscape"
   width="250"
   height="250"
   viewBox="0 0 66.145832 66.145835"
   version="1.1"
   id="svg1422"
   inkscape:version="0.92.4 (5da689c313, 2019-01-14)"
   sodipodi:docname="taek.svg">
  <defs
     id="defs1416" />
  <sodipodi:namedview
     id="base"
     pagecolor="#ffffff"
     bordercolor="#666666"
     borderopacity="1.0"
     inkscape:pageopacity="0.0"
     inkscape:pageshadow="2"
     inkscape:zoom="0.8689731"
     inkscape:cx="219.88899"
     inkscape:cy="-28.817818"
     inkscape:document-units="mm"
     inkscape:current-layer="layer1"
     showgrid="false"
     units="px"
     inkscape:pagecheckerboard="true"
     inkscape:window-width="1366"
     inkscape:window-height="705"
     inkscape:window-x="-8"
     inkscape:window-y="-8"
     inkscape:window-maximized="1"
     showguides="false" />
  <metadata
     id="metadata1419">
    <rdf:RDF>
      <cc:Work
         rdf:about="">
        <dc:format>image/svg+xml</dc:format>
        <dc:type
           rdf:resource="http://purl.org/dc/dcmitype/StillImage" />
        <dc:title></dc:title>
      </cc:Work>
    </rdf:RDF>
  </metadata>
  <g
     inkscape:label="Layer 1"
     inkscape:groupmode="layer"
     id="layer1"
     transform="translate(0,-230.85415)">
    <g
       id="g1625"
       transform="matrix(2.9168688,0,0,-2.9168688,66.145834,263.92852)"
       style="fill:#842435;fill-opacity:1;stroke-width:0.120944">
      <path
         d="m 0,0 c 0,-6.262 -5.077,-11.338 -11.338,-11.338 -6.263,0 -11.339,5.076 -11.339,11.338 0,6.263 5.076,11.339 11.339,11.339 C -5.077,11.339 0,6.263 0,0"
         style="fill:#842435;fill-opacity:1;fill-rule:nonzero;stroke:none;stroke-width:0.120944"
         id="path1627"
         inkscape:connector-curvature="0" />
    </g>
    <g
       id="g1629"
       transform="matrix(2.9168688,0,0,-2.9168688,55.650944,243.49286)"
       style="stroke-width:0.120944">
      <path
         d="m 0,0 c -0.08,-0.005 -0.14,-0.024 -0.223,-0.079 -1.66,-1.153 -5.538,-4.013 -7.356,-5.46 l -1.497,-2.459 c -0.243,-1.912 -0.689,-6.405 -0.814,-8.537 -0.005,-0.11 0.008,-0.217 0.046,-0.288 0.11,-0.21 0.369,-0.29 0.579,-0.18 0.104,0.056 0.173,0.141 0.218,0.286 0.121,0.394 1.294,5.374 1.294,5.374 0.488,1.912 0.897,2.825 1.335,3.512 0.533,0.832 1.414,1.716 2.475,2.793 0,0 4.053,4.049 4.291,4.331 0.076,0.094 0.112,0.19 0.104,0.308 C 0.438,-0.164 0.235,0.014 0,0"
         style="fill:#ffffff;fill-opacity:1;fill-rule:nonzero;stroke:none;stroke-width:0.120944"
         id="path1631"
         inkscape:connector-curvature="0" />
    </g>
    <g
       id="g1633"
       transform="matrix(2.9168688,0,0,-2.9168688,17.332044,259.24395)"
       style="stroke-width:0.120944">
      <path
         d="m 0,0 c -0.012,0.018 -0.023,0.037 -0.034,0.055 -0.186,-0.306 -0.621,-1.166 -0.892,-1.728 -0.385,0.77 -0.95,1.821 -1.049,1.99 -0.01,0.017 -0.027,0.043 -0.04,0.057 C -2.079,0.44 -2.175,0.469 -2.27,0.448 -2.385,0.421 -2.463,0.332 -2.476,0.219 -2.479,0.188 -2.477,0.15 -2.468,0.109 c 0.058,-0.26 0.917,-2.743 1.12,-3.18 0.1,-0.223 0.329,-0.308 0.558,-0.255 0.095,0.023 0.154,0.054 0.241,0.132 0.022,0.019 0.052,0.048 0.103,0.106 0.294,0.335 1.24,1.576 1.635,2.077 C 1.132,-0.972 1.074,-0.933 1.017,-0.894 0.611,-0.612 0.207,-0.323 0,0"
         style="fill:#ffffff;fill-opacity:1;fill-rule:nonzero;stroke:none;stroke-width:0.120944"
         id="path1635"
         inkscape:connector-curvature="0" />
    </g>
    <g
       id="g1637"
       transform="matrix(2.9168688,0,0,-2.9168688,16.101117,257.43551)"
       style="stroke-width:0.120944">
      <path
         d="m 0,0 c 0.049,0.001 1.122,0.038 1.122,0.038 l 0.04,0.499 c 0,0 -0.092,0.007 -0.326,0.029 C 0.636,0.585 0.501,0.671 0.399,0.796 0.353,0.853 0.312,0.916 0.277,0.987 0.24,1.061 0.198,1.145 0.156,1.229 0.098,1.344 0.113,1.417 0.133,1.472 0.152,1.525 0.188,1.586 0.356,1.671 0.644,1.818 0.808,1.901 0.943,1.97 1.016,2.008 1.028,2.048 1.033,2.104 1.043,2.211 0.953,2.358 0.825,2.506 0.677,2.677 0.586,2.761 0.353,2.852 0.112,2.946 -0.06,2.885 -0.528,2.646 -1.036,2.388 -1.159,2.273 -1.222,1.968 -1.293,1.623 -1.256,1.327 -1.042,0.904 -0.627,0.079 -0.256,-0.007 0,0"
         style="fill:#ffffff;fill-opacity:1;fill-rule:nonzero;stroke:none;stroke-width:0.120944"
         id="path1639"
         inkscape:connector-curvature="0" />
    </g>
    <g
       id="g1641"
       transform="matrix(2.9168688,0,0,-2.9168688,32.260574,258.71023)"
       style="stroke-width:0.120944">
      <path
         d="m 0,0 c 0,0 -0.54,0.355 -0.588,0.386 -0.024,0.016 -0.173,0.109 -0.223,0.14 -0.399,0.245 -0.997,0.471 -0.997,0.471 l -1.467,-2.386 c 0,0 0.529,-0.445 0.891,-0.666 0.148,-0.09 0.184,-0.111 0.244,-0.146 0.024,-0.013 0.594,-0.335 0.594,-0.335"
         style="fill:#ffffff;fill-opacity:1;fill-rule:nonzero;stroke:none;stroke-width:0.120944"
         id="path1643"
         inkscape:connector-curvature="0" />
    </g>
    <g
       id="g1645"
       transform="matrix(2.9168688,0,0,-2.9168688,23.824994,255.29452)"
       style="stroke-width:0.120944">
      <path
         d="m 0,0 c 0.161,-0.058 0.328,-0.063 0.483,-0.029 0.074,0.018 0.146,0.044 0.214,0.08 0.06,0.031 0.267,0.16 0.538,0.336 C 1.892,0.814 2.928,1.511 3.199,1.719 3.804,1.99 5.937,3.135 6.16,3.289 6.202,3.318 6.228,3.344 6.248,3.375 6.309,3.469 6.312,3.594 6.246,3.694 6.187,3.782 6.088,3.828 5.99,3.82 5.97,3.819 5.95,3.814 5.917,3.805 5.531,3.687 0.69,1.986 0.059,1.674 -0.242,1.525 -0.316,1.443 -0.378,1.368 -0.441,1.292 -0.491,1.206 -0.525,1.109 -0.687,0.658 -0.451,0.161 0,0"
         style="fill:#ffffff;fill-opacity:1;fill-rule:nonzero;stroke:none;stroke-width:0.120944"
         id="path1647"
         inkscape:connector-curvature="0" />
    </g>
  </g>
</svg>
