<?xml version="1.0" encoding="UTF-8" standalone="no"?>
<!-- Created with Inkscape (http://www.inkscape.org/) -->

<svg
   xmlns:dc="http://purl.org/dc/elements/1.1/"
   xmlns:cc="http://creativecommons.org/ns#"
   xmlns:rdf="http://www.w3.org/1999/02/22-rdf-syntax-ns#"
   xmlns:svg="http://www.w3.org/2000/svg"
   xmlns="http://www.w3.org/2000/svg"
   xmlns:sodipodi="http://sodipodi.sourceforge.net/DTD/sodipodi-0.dtd"
   xmlns:inkscape="http://www.inkscape.org/namespaces/inkscape"
   width="250"
   height="250"
   viewBox="0 0 66.145832 66.145835"
   version="1.1"
   id="svg1422"
   inkscape:version="0.92.4 (5da689c313, 2019-01-14)"
   sodipodi:docname="tenn.svg">
  <defs
     id="defs1416" />
  <sodipodi:namedview
     id="base"
     pagecolor="#ffffff"
     bordercolor="#666666"
     borderopacity="1.0"
     inkscape:pageopacity="0.0"
     inkscape:pageshadow="2"
     inkscape:zoom="0.49059378"
     inkscape:cx="168.97201"
     inkscape:cy="274.4987"
     inkscape:document-units="mm"
     inkscape:current-layer="layer1"
     showgrid="false"
     units="px"
     inkscape:pagecheckerboard="true"
     inkscape:window-width="1366"
     inkscape:window-height="705"
     inkscape:window-x="-8"
     inkscape:window-y="-8"
     inkscape:window-maximized="1" />
  <metadata
     id="metadata1419">
    <rdf:RDF>
      <cc:Work
         rdf:about="">
        <dc:format>image/svg+xml</dc:format>
        <dc:type
           rdf:resource="http://purl.org/dc/dcmitype/StillImage" />
        <dc:title></dc:title>
      </cc:Work>
    </rdf:RDF>
  </metadata>
  <g
     inkscape:label="Layer 1"
     inkscape:groupmode="layer"
     id="layer1"
     transform="translate(0,-230.85415)">
    <g
       id="g1649"
       transform="matrix(2.9168688,0,0,-2.9168688,66.145834,263.92852)"
       style="fill:#2c4c98;fill-opacity:1;stroke-width:0.120944">
      <path
         d="m 0,0 c 0,-6.262 -5.077,-11.338 -11.339,-11.338 -6.262,0 -11.338,5.076 -11.338,11.338 0,6.263 5.076,11.339 11.338,11.339 C -5.077,11.339 0,6.263 0,0"
         style="fill:#2c4c98;fill-opacity:1;fill-rule:nonzero;stroke:none;stroke-width:0.120944"
         id="path1651"
         inkscape:connector-curvature="0" />
    </g>
    <g
       id="g1653"
       transform="matrix(2.9168688,0,0,-2.9168688,42.533784,245.17885)"
       style="stroke-width:0.120944">
      <path
         d="M 0,0 C -0.373,0.983 -0.009,1.662 0.454,1.838 0.915,2.015 1.639,1.753 2.017,0.771 2.321,-0.017 2.276,-0.543 2.115,-0.979 2.011,-1.26 1.841,-1.389 1.707,-1.441 1.574,-1.492 1.361,-1.508 1.096,-1.369 0.684,-1.152 0.301,-0.79 0,0 m 2.521,-4.312 c -0.778,-0.028 -2.41,-0.109 -2.966,-0.149 -0.849,0.808 -1.97,1.82 -2.193,1.984 -0.031,0.022 -0.059,0.04 -0.059,0.04 -0.14,0.087 -0.314,0.139 -0.477,0.137 -0.177,-0.002 -0.451,-0.047 -0.686,-0.305 -0.23,-0.252 -0.245,-0.575 -0.226,-0.722 0.03,-0.254 0.147,-0.421 0.241,-0.518 0.064,-0.067 0.146,-0.122 0.191,-0.151 0.434,-0.279 2.398,-1.387 2.664,-1.514 0.189,-0.091 0.363,-0.103 0.553,-0.08 0.494,0.057 3.024,0.573 3.383,0.688 0.093,0.029 0.16,0.079 0.2,0.154 0.041,0.078 0.045,0.171 10e-4,0.288 -0.1,0.266 -0.608,1.587 -0.654,1.71 -0.49,1.281 0.533,1.999 -0.076,3.592 C 1.879,2.25 0.902,2.412 0.319,2.19 -0.264,1.967 -0.883,1.194 -0.345,-0.214 0.036,-1.209 0.664,-1.525 1.201,-1.935 0.636,-2.261 -0.08,-2.68 -0.417,-2.881 c -0.361,0.102 -1.162,0.328 -1.753,0.48 0.414,-0.355 1.11,-0.998 1.608,-1.462 0.113,0 0.192,0.006 0.253,0.014 0.087,0.014 0.152,0.032 0.241,0.084 0.195,0.114 1.135,0.853 1.756,1.368 0.12,-0.15 0.225,-0.326 0.308,-0.544"
         style="fill:#ffffff;fill-opacity:1;fill-rule:nonzero;stroke:none;stroke-width:0.120944"
         id="path1655"
         inkscape:connector-curvature="0" />
    </g>
    <g
       id="g1657"
       transform="matrix(2.9168688,0,0,-2.9168688,35.297034,250.43797)"
       style="stroke-width:0.120944">
      <path
         d="M 0,0 C 0.628,0 1.136,0.508 1.136,1.136 1.136,1.764 0.628,2.274 0,2.274 -0.628,2.274 -1.137,1.764 -1.137,1.136 -1.137,0.508 -0.628,0 0,0"
         style="fill:#ffffff;fill-opacity:1;fill-rule:nonzero;stroke:none;stroke-width:0.120944"
         id="path1659"
         inkscape:connector-curvature="0" />
    </g>
    <g
       id="g1661"
       transform="matrix(2.9168688,0,0,-2.9168688,7.6247048,267.63585)"
       style="stroke-width:0.120944">
      <path
         d="m 0,0 c -0.337,0 -0.61,-0.274 -0.61,-0.611 0,-0.337 0.273,-0.61 0.61,-0.61 0.337,0 0.61,0.273 0.61,0.61 C 0.61,-0.274 0.337,0 0,0"
         style="fill:#ffffff;fill-opacity:1;fill-rule:nonzero;stroke:none;stroke-width:0.120944"
         id="path1663"
         inkscape:connector-curvature="0" />
    </g>
    <g
       id="g1665"
       transform="matrix(2.9168688,0,0,-2.9168688,48.997574,287.73598)"
       style="stroke-width:0.120944">
      <path
         d="M 0,0 C -0.124,0.159 -1.969,3.34 -2.476,4.302 -3.048,4.552 -4.195,5.092 -5.085,5.535 -5.386,4.552 -5.667,3.695 -5.845,3.251 -5.891,3.138 -5.968,2.955 -6.099,2.799 -6.228,2.646 -6.412,2.508 -6.496,2.443 c -0.136,-0.108 -3.24,-2.416 -3.537,-2.589 -0.052,-0.03 -0.111,-0.051 -0.176,-0.055 -0.222,-0.013 -0.415,0.156 -0.429,0.38 -0.006,0.112 0.024,0.2 0.111,0.304 0.135,0.16 2.51,2.457 3.255,3.137 0.096,0.991 0.416,3.054 0.529,3.568 0.058,0.258 0.115,0.405 0.2,0.532 0.289,0.434 0.855,0.604 1.367,0.383 0.039,-0.016 0.076,-0.036 0.112,-0.056 0.685,-0.368 2.868,-1.914 3.538,-2.471 0.073,-0.06 0.161,-0.151 0.21,-0.213 0.055,-0.07 0.105,-0.15 0.153,-0.252 C -1.084,4.939 0.68,0.743 0.785,0.383 0.808,0.303 0.812,0.235 0.799,0.165 0.754,-0.074 0.524,-0.232 0.285,-0.188 0.164,-0.165 0.084,-0.109 0,0"
         style="fill:#ffffff;fill-opacity:1;fill-rule:nonzero;stroke:none;stroke-width:0.120944"
         id="path1667"
         inkscape:connector-curvature="0" />
    </g>
  </g>
</svg>
