<?xml version="1.0" encoding="UTF-8" standalone="no"?>
<!-- Created with Inkscape (http://www.inkscape.org/) -->

<svg
   xmlns:dc="http://purl.org/dc/elements/1.1/"
   xmlns:cc="http://creativecommons.org/ns#"
   xmlns:rdf="http://www.w3.org/1999/02/22-rdf-syntax-ns#"
   xmlns:svg="http://www.w3.org/2000/svg"
   xmlns="http://www.w3.org/2000/svg"
   xmlns:sodipodi="http://sodipodi.sourceforge.net/DTD/sodipodi-0.dtd"
   xmlns:inkscape="http://www.inkscape.org/namespaces/inkscape"
   width="250"
   height="250"
   viewBox="0 0 66.145832 66.145835"
   version="1.1"
   id="svg1422"
   inkscape:version="0.92.4 (5da689c313, 2019-01-14)"
   sodipodi:docname="triathlon.svg">
  <defs
     id="defs1416" />
  <sodipodi:namedview
     id="base"
     pagecolor="#ffffff"
     bordercolor="#666666"
     borderopacity="1.0"
     inkscape:pageopacity="0.0"
     inkscape:pageshadow="2"
     inkscape:zoom="1.3753271"
     inkscape:cx="210.74547"
     inkscape:cy="90.319116"
     inkscape:document-units="mm"
     inkscape:current-layer="layer1"
     showgrid="false"
     units="px"
     inkscape:pagecheckerboard="true"
     inkscape:window-width="1366"
     inkscape:window-height="705"
     inkscape:window-x="-8"
     inkscape:window-y="-8"
     inkscape:window-maximized="1"
     showguides="false" />
  <metadata
     id="metadata1419">
    <rdf:RDF>
      <cc:Work
         rdf:about="">
        <dc:format>image/svg+xml</dc:format>
        <dc:type
           rdf:resource="http://purl.org/dc/dcmitype/StillImage" />
        <dc:title></dc:title>
      </cc:Work>
    </rdf:RDF>
  </metadata>
  <g
     inkscape:label="Layer 1"
     inkscape:groupmode="layer"
     id="layer1"
     transform="translate(0,-230.85415)">
    <g
       id="g1777"
       transform="matrix(2.9168688,0,0,-2.9169974,66.145834,263.92707)"
       style="fill:#2e755c;fill-opacity:1;stroke-width:0.12094134">
      <path
         d="m 0,0 c 0,-6.262 -5.077,-11.338 -11.338,-11.338 -6.263,0 -11.339,5.076 -11.339,11.338 0,6.262 5.076,11.338 11.339,11.338 C -5.077,11.338 0,6.262 0,0"
         style="fill:#2e755c;fill-opacity:1;fill-rule:nonzero;stroke:none;stroke-width:0.12094134"
         id="path1779"
         inkscape:connector-curvature="0" />
    </g>
    <g
       id="g1781"
       transform="matrix(2.9168688,0,0,-2.9169974,17.635384,268.02551)"
       style="stroke-width:0.12094134">
      <path
         d="M 0,0 C 0.283,-0.158 0.577,-0.319 0.877,-0.475 0.696,-0.761 0.488,-1.092 0.296,-1.4 0.191,-0.9 0.088,-0.417 0,0 M -1.736,0.972 C -1.687,0.814 0.536,-5.21 0.583,-5.32 0.62,-5.414 0.717,-5.487 0.829,-5.487 c 0.147,0 0.266,0.119 0.266,0.266 0,0.016 -0.002,0.032 -0.004,0.047 -0.005,0.036 -0.283,1.356 -0.587,2.797 0.594,0.744 1.415,1.771 1.432,1.794 0.064,0.082 0.103,0.186 0.102,0.299 -10e-4,0.143 -0.066,0.272 -0.166,0.358 -0.07,0.06 -2.051,1.689 -2.285,1.849 -0.139,0.101 -0.318,0.166 -0.507,0.166 -0.473,0 -0.856,-0.383 -0.856,-0.856 0,-0.091 0.014,-0.181 0.04,-0.261"
         style="fill:#ffffff;fill-opacity:1;fill-rule:nonzero;stroke:none;stroke-width:0.12094134"
         id="path1783"
         inkscape:connector-curvature="0" />
    </g>
    <g
       id="g1785"
       transform="matrix(2.9168688,0,0,-2.9169974,31.327174,286.43468)"
       style="stroke-width:0.12094134">
      <path
         d="m 0,0 c -1.212,0 -2.198,0.985 -2.198,2.197 0,0.82 0.451,1.536 1.119,1.914 L -0.194,2.112 C -0.159,2.032 -0.081,1.986 0,1.986 c 0.028,0 0.057,0.006 0.085,0.018 0.107,0.047 0.155,0.172 0.108,0.279 l -0.885,2 C -0.475,4.355 -0.242,4.395 0,4.395 1.212,4.395 2.197,3.409 2.197,2.197 2.197,0.985 1.212,0 0,0 m -0.664,6.327 c -0.122,0.106 -1.19,0.91 -1.628,1.23 -0.045,0.524 -0.173,1.786 -0.192,1.941 -0.006,0.051 -0.019,0.107 -0.039,0.16 -0.129,0.346 -0.513,0.521 -0.858,0.393 C -3.711,9.928 -3.884,9.565 -3.788,9.238 -3.726,8.99 -3.201,7.422 -3.12,7.188 -3.081,7.071 -2.994,6.978 -2.886,6.929 L -1.607,6.324 V 5.348 c 0,-0.029 0.007,-0.059 0.019,-0.085 L -1.252,4.5 C -2.068,4.056 -2.621,3.192 -2.621,2.197 c 0,-1.447 1.173,-2.621 2.621,-2.621 1.447,0 2.62,1.174 2.62,2.621 0,1.447 -1.173,2.621 -2.62,2.621 -0.304,0 -0.594,-0.052 -0.864,-0.146 l -0.32,0.721 v 0.576 h 0.842 c 0.246,0 0.334,-0.095 0.334,-0.22 0,-0.125 -0.08,-0.231 -0.334,-0.231 h -0.102 c -0.112,0 -0.201,-0.076 -0.201,-0.187 0,-0.111 0.089,-0.193 0.201,-0.193 h 0.152 c 0.523,0 0.685,0.325 0.685,0.573 0,0.316 -0.234,0.616 -0.735,0.616"
         style="fill:#ffffff;fill-opacity:1;fill-rule:nonzero;stroke:none;stroke-width:0.12094134"
         id="path1787"
         inkscape:connector-curvature="0" />
    </g>
    <g
       id="g1789"
       transform="matrix(2.9168688,0,0,-2.9169974,27.672324,259.09363)"
       style="stroke-width:0.12094134">
      <path
         d="M 0,0 C 0.463,0 0.837,0.374 0.837,0.836 0.837,1.299 0.463,1.673 0,1.673 -0.462,1.673 -0.836,1.299 -0.836,0.836 -0.836,0.374 -0.462,0 0,0"
         style="fill:#ffffff;fill-opacity:1;fill-rule:nonzero;stroke:none;stroke-width:0.12094134"
         id="path1791"
         inkscape:connector-curvature="0" />
    </g>
    <g
       id="g1793"
       transform="matrix(2.9168688,0,0,-2.9169974,22.395714,243.74436)"
       style="stroke-width:0.12094134">
      <path
         d="M 0,0 C 0.221,0.052 1.687,0.561 2.427,0.847 2.547,0.606 2.702,0.308 2.852,0.029 0.983,-0.12 -0.793,-0.592 -2.423,-1.332 c 0.221,-0.152 0.488,-0.241 0.776,-0.241 0.304,0 0.585,0.099 0.812,0.268 0.227,-0.169 0.508,-0.268 0.812,-0.268 0.304,0 0.585,0.099 0.812,0.268 0.227,-0.169 0.508,-0.268 0.812,-0.268 0.304,0 0.585,0.099 0.812,0.268 0.226,-0.169 0.507,-0.268 0.812,-0.268 0.554,0 1.016,0.338 1.244,0.805 0.017,0.031 0.031,0.064 0.042,0.099 0.057,0.175 0.043,0.357 -0.046,0.508 C 4.222,0.285 3.133,1.664 2.866,1.798 2.84,1.812 2.812,1.824 2.783,1.834 2.693,1.863 2.601,1.861 2.518,1.835 2.342,1.78 -0.126,0.567 -0.213,0.508 -0.268,0.473 -0.31,0.42 -0.33,0.353 -0.374,0.205 -0.29,0.049 -0.141,0.005 -0.101,-0.008 -0.051,-0.01 0,0"
         style="fill:#ffffff;fill-opacity:1;fill-rule:nonzero;stroke:none;stroke-width:0.12094134"
         id="path1795"
         inkscape:connector-curvature="0" />
    </g>
    <g
       id="g1797"
       transform="matrix(2.9168688,0,0,-2.9169974,42.700034,245.48003)"
       style="stroke-width:0.12094134">
      <path
         d="m 0,0 c 0.002,-0.025 0.004,-0.051 0.004,-0.077 0,-0.33 -0.131,-0.63 -0.342,-0.853 0.115,-0.031 0.236,-0.048 0.36,-0.048 0.304,0 0.585,0.099 0.812,0.268 0.228,-0.169 0.508,-0.268 0.812,-0.268 0.36,0 0.688,0.139 0.932,0.367 C 1.746,-0.338 0.885,-0.133 0,0"
         style="fill:#ffffff;fill-opacity:1;fill-rule:nonzero;stroke:none;stroke-width:0.12094134"
         id="path1799"
         inkscape:connector-curvature="0" />
    </g>
    <g
       id="g1801"
       transform="matrix(2.9168688,0,0,-2.9169974,39.088964,243.07352)"
       style="stroke-width:0.12094134">
      <path
         d="m 0,0 c -0.498,0 -0.902,-0.404 -0.902,-0.901 0,-0.498 0.404,-0.903 0.902,-0.903 0.498,0 0.902,0.405 0.902,0.903 C 0.902,-0.404 0.498,0 0,0"
         style="fill:#ffffff;fill-opacity:1;fill-rule:nonzero;stroke:none;stroke-width:0.12094134"
         id="path1803"
         inkscape:connector-curvature="0" />
    </g>
    <g
       id="g1805"
       transform="matrix(2.9168688,0,0,-2.9169974,54.787544,267.38957)"
       style="stroke-width:0.12094134">
      <path
         d="m 0,0 c 0.066,-0.156 0.228,-0.258 0.406,-0.242 0.11,0.011 0.208,0.067 0.272,0.145 L 2.231,1.785 C 2.294,1.862 2.309,1.984 2.25,2.079 2.177,2.198 2.022,2.236 1.902,2.162 1.887,2.153 1.872,2.142 1.86,2.13 1.431,1.726 1.018,1.328 0.623,0.95 0.54,1.366 0.454,1.754 0.365,2.095 0.294,1.552 0.114,0.889 -0.098,0.23"
         style="fill:#ffffff;fill-opacity:1;fill-rule:nonzero;stroke:none;stroke-width:0.12094134"
         id="path1807"
         inkscape:connector-curvature="0" />
    </g>
    <g
       id="g1809"
       transform="matrix(2.9168688,0,0,-2.9169974,51.526484,258.65605)"
       style="stroke-width:0.12094134">
      <path
         d="m 0,0 c -0.533,-0.29 -1.159,-0.638 -1.718,-0.942 -0.068,-0.044 -0.12,-0.104 -0.154,-0.186 -0.016,-0.038 -0.025,-0.075 -0.029,-0.114 l -0.236,-2.426 c -0.012,-0.12 0.057,-0.236 0.175,-0.28 0.139,-0.051 0.293,0.02 0.344,0.16 0.005,0.012 0.008,0.024 0.012,0.037 0.176,0.808 0.326,1.534 0.458,2.142 0.574,0.167 1.134,0.353 1.629,0.523 0.262,0.102 0.422,0.378 0.369,0.664 C 0.789,-0.099 0.478,0.113 0.155,0.052 0.1,0.042 0.045,0.023 0,0"
         style="fill:#ffffff;fill-opacity:1;fill-rule:nonzero;stroke:none;stroke-width:0.12094134"
         id="path1811"
         inkscape:connector-curvature="0" />
    </g>
    <g
       id="g1813"
       transform="matrix(2.9168688,0,0,-2.9169974,58.961584,272.67224)"
       style="stroke-width:0.12094134">
      <path
         d="M 0,0 C -0.104,0.062 -2.2,1.224 -2.385,1.304 -2.482,1.348 -2.584,1.374 -2.695,1.376 -2.977,1.38 -3.231,1.22 -3.351,0.995 l -3.154,-5.74 c -0.018,-0.034 -0.03,-0.07 -0.032,-0.11 -0.009,-0.144 0.101,-0.268 0.245,-0.277 0.09,-0.005 0.173,0.036 0.224,0.104 l 3.549,4.697 c 0.438,-0.154 0.93,-0.319 1.371,-0.457 -0.621,-0.929 -1.494,-2.331 -1.58,-2.476 -0.027,-0.045 -0.045,-0.089 -0.048,-0.142 -0.01,-0.157 0.11,-0.292 0.267,-0.302 0.089,-0.005 0.171,0.032 0.227,0.091 0.04,0.038 2.391,2.735 2.426,2.775 0.069,0.079 0.117,0.178 0.133,0.29 C 0.308,-0.322 0.197,-0.113 0,0"
         style="fill:#ffffff;fill-opacity:1;fill-rule:nonzero;stroke:none;stroke-width:0.12094134"
         id="path1815"
         inkscape:connector-curvature="0" />
    </g>
    <g
       id="g1817"
       transform="matrix(2.9168688,0,0,-2.9169974,55.753024,258.69979)"
       style="stroke-width:0.12094134">
      <path
         d="M 0,0 C 0.455,-0.028 0.847,0.318 0.874,0.774 0.903,1.228 0.557,1.62 0.102,1.648 -0.353,1.676 -0.745,1.33 -0.773,0.874 -0.801,0.42 -0.455,0.028 0,0"
         style="fill:#ffffff;fill-opacity:1;fill-rule:nonzero;stroke:none;stroke-width:0.12094134"
         id="path1819"
         inkscape:connector-curvature="0" />
    </g>
    <g
       id="g1821"
       transform="matrix(2.9168688,0,0,-2.9169974,16.363644,280.02597)"
       style="stroke-width:0.12094134">
      <path
         d="m 0,0 c 0,1.448 -1.174,2.621 -2.621,2.621 -0.934,0 -1.752,-0.489 -2.216,-1.223 0.066,-0.17 0.136,-0.337 0.21,-0.502 0.344,0.766 1.113,1.302 2.006,1.302 1.212,0 2.198,-0.986 2.198,-2.198 0,-1.197 -0.964,-2.174 -2.156,-2.196 0.124,-0.133 0.25,-0.263 0.38,-0.39 C -0.952,-2.384 0,-1.304 0,0"
         style="fill:#ffffff;fill-opacity:1;fill-rule:nonzero;stroke:none;stroke-width:0.12094134"
         id="path1823"
         inkscape:connector-curvature="0" />
    </g>
  </g>
</svg>
