<?xml version="1.0" encoding="UTF-8" standalone="no"?>
<!-- Created with Inkscape (http://www.inkscape.org/) -->

<svg
   xmlns:dc="http://purl.org/dc/elements/1.1/"
   xmlns:cc="http://creativecommons.org/ns#"
   xmlns:rdf="http://www.w3.org/1999/02/22-rdf-syntax-ns#"
   xmlns:svg="http://www.w3.org/2000/svg"
   xmlns="http://www.w3.org/2000/svg"
   xmlns:sodipodi="http://sodipodi.sourceforge.net/DTD/sodipodi-0.dtd"
   xmlns:inkscape="http://www.inkscape.org/namespaces/inkscape"
   width="250"
   height="250"
   viewBox="0 0 66.145832 66.145835"
   version="1.1"
   id="svg1422"
   inkscape:version="0.92.4 (5da689c313, 2019-01-14)"
   sodipodi:docname="beach vol.svg">
  <defs
     id="defs1416" />
  <sodipodi:namedview
     id="base"
     pagecolor="#ffffff"
     bordercolor="#666666"
     borderopacity="1.0"
     inkscape:pageopacity="0.0"
     inkscape:pageshadow="2"
     inkscape:zoom="0.61445677"
     inkscape:cx="419.02507"
     inkscape:cy="171.54028"
     inkscape:document-units="mm"
     inkscape:current-layer="layer1"
     showgrid="false"
     units="px"
     inkscape:pagecheckerboard="true"
     inkscape:window-width="1366"
     inkscape:window-height="705"
     inkscape:window-x="-8"
     inkscape:window-y="-8"
     inkscape:window-maximized="1"
     showguides="false" />
  <metadata
     id="metadata1419">
    <rdf:RDF>
      <cc:Work
         rdf:about="">
        <dc:format>image/svg+xml</dc:format>
        <dc:type
           rdf:resource="http://purl.org/dc/dcmitype/StillImage" />
        <dc:title></dc:title>
      </cc:Work>
    </rdf:RDF>
  </metadata>
  <g
     inkscape:label="Layer 1"
     inkscape:groupmode="layer"
     id="layer1"
     transform="translate(0,-230.85415)">
    <g
       id="g1865"
       transform="matrix(2.9169974,0,0,-2.9168688,66.145833,263.92561)"
       style="fill:#2c4c98;fill-opacity:1;stroke-width:0.12094133">
      <path
         d="m 0,0 c 0,-6.263 -5.076,-11.339 -11.338,-11.339 -6.262,0 -11.338,5.076 -11.338,11.339 0,6.262 5.076,11.338 11.338,11.338 C -5.076,11.338 0,6.262 0,0"
         style="fill:#2c4c98;fill-opacity:1;fill-rule:nonzero;stroke:none;stroke-width:0.12094133"
         id="path1867"
         inkscape:connector-curvature="0" />
    </g>
    <g
       id="g1869"
       transform="matrix(2.9168688,0,0,-2.9168688,19.478837,261.59801)"
       style="stroke-width:0.120944">
      <path
         d="m 0,0 c -1.536,-0.233 -5.079,-0.775 -5.216,-0.796 -0.169,-0.026 -0.298,-0.177 -0.298,-0.353 0,-0.197 0.166,-0.369 0.376,-0.357 0.091,0.006 5.355,0.31 7.602,0.439 C 1.728,-0.755 0.604,-0.265 0,0"
         style="fill:#ffffff;fill-opacity:1;fill-rule:nonzero;stroke:none;stroke-width:0.120944"
         id="path1871"
         inkscape:connector-curvature="0" />
    </g>
    <g
       id="g1873"
       transform="matrix(2.9168688,0,0,-2.9168688,28.576517,276.08025)"
       style="stroke-width:0.120944">
      <path
         d="m 0,0 c -0.166,0 -0.301,-0.136 -0.301,-0.302 0,-0.166 0.135,-0.301 0.301,-0.301 0.167,0 0.302,0.135 0.302,0.301 C 0.302,-0.136 0.167,0 0,0"
         style="fill:#ffffff;fill-opacity:1;fill-rule:nonzero;stroke:none;stroke-width:0.120944"
         id="path1875"
         inkscape:connector-curvature="0" />
    </g>
    <g
       id="g1877"
       transform="matrix(2.9168688,0,0,-2.9168688,33.077277,276.08025)"
       style="stroke-width:0.120944">
      <path
         d="m 0,0 c -0.167,0 -0.302,-0.136 -0.302,-0.302 0,-0.166 0.135,-0.301 0.302,-0.301 0.166,0 0.301,0.135 0.301,0.301 C 0.301,-0.136 0.166,0 0,0"
         style="fill:#ffffff;fill-opacity:1;fill-rule:nonzero;stroke:none;stroke-width:0.120944"
         id="path1879"
         inkscape:connector-curvature="0" />
    </g>
    <g
       id="g1881"
       transform="matrix(2.9168688,0,0,-2.9168688,37.575067,276.08025)"
       style="stroke-width:0.120944">
      <path
         d="m 0,0 c -0.167,0 -0.302,-0.136 -0.302,-0.302 0,-0.166 0.135,-0.301 0.302,-0.301 0.166,0 0.301,0.135 0.301,0.301 C 0.301,-0.136 0.166,0 0,0"
         style="fill:#ffffff;fill-opacity:1;fill-rule:nonzero;stroke:none;stroke-width:0.120944"
         id="path1883"
         inkscape:connector-curvature="0" />
    </g>
    <g
       id="g1885"
       transform="matrix(2.9168688,0,0,-2.9168688,42.072847,276.08025)"
       style="stroke-width:0.120944">
      <path
         d="m 0,0 c -0.167,0 -0.302,-0.136 -0.302,-0.302 0,-0.166 0.135,-0.301 0.302,-0.301 0.166,0 0.301,0.135 0.301,0.301 C 0.301,-0.136 0.166,0 0,0"
         style="fill:#ffffff;fill-opacity:1;fill-rule:nonzero;stroke:none;stroke-width:0.120944"
         id="path1887"
         inkscape:connector-curvature="0" />
    </g>
    <g
       id="g1889"
       transform="matrix(2.9168688,0,0,-2.9168688,46.570717,276.08025)"
       style="stroke-width:0.120944">
      <path
         d="m 0,0 c -0.167,0 -0.302,-0.136 -0.302,-0.302 0,-0.166 0.135,-0.301 0.302,-0.301 0.166,0 0.301,0.135 0.301,0.301 C 0.301,-0.136 0.166,0 0,0"
         style="fill:#ffffff;fill-opacity:1;fill-rule:nonzero;stroke:none;stroke-width:0.120944"
         id="path1891"
         inkscape:connector-curvature="0" />
    </g>
    <g
       id="g1893"
       transform="matrix(2.9168688,0,0,-2.9168688,51.068497,276.08025)"
       style="stroke-width:0.120944">
      <path
         d="m 0,0 c -0.167,0 -0.302,-0.136 -0.302,-0.302 0,-0.166 0.135,-0.301 0.302,-0.301 0.166,0 0.301,0.135 0.301,0.301 C 0.301,-0.136 0.166,0 0,0"
         style="fill:#ffffff;fill-opacity:1;fill-rule:nonzero;stroke:none;stroke-width:0.120944"
         id="path1895"
         inkscape:connector-curvature="0" />
    </g>
    <g
       id="g1897"
       transform="matrix(2.9168688,0,0,-2.9168688,55.566287,276.08025)"
       style="stroke-width:0.120944">
      <path
         d="m 0,0 c -0.166,0 -0.302,-0.136 -0.302,-0.302 0,-0.166 0.136,-0.301 0.302,-0.301 0.166,0 0.302,0.135 0.302,0.301 C 0.302,-0.136 0.166,0 0,0"
         style="fill:#ffffff;fill-opacity:1;fill-rule:nonzero;stroke:none;stroke-width:0.120944"
         id="path1899"
         inkscape:connector-curvature="0" />
    </g>
    <g
       id="g1901"
       transform="matrix(2.9168688,0,0,-2.9168688,24.078737,276.08025)"
       style="stroke-width:0.120944">
      <path
         d="m 0,0 c -0.166,0 -0.301,-0.136 -0.301,-0.302 0,-0.166 0.135,-0.301 0.301,-0.301 0.167,0 0.302,0.135 0.302,0.301 C 0.302,-0.136 0.167,0 0,0"
         style="fill:#ffffff;fill-opacity:1;fill-rule:nonzero;stroke:none;stroke-width:0.120944"
         id="path1903"
         inkscape:connector-curvature="0" />
    </g>
    <g
       id="g1905"
       transform="matrix(2.9168688,0,0,-2.9168688,19.580947,276.08025)"
       style="stroke-width:0.120944">
      <path
         d="m 0,0 c -0.166,0 -0.301,-0.136 -0.301,-0.302 0,-0.166 0.135,-0.301 0.301,-0.301 0.167,0 0.302,0.135 0.302,0.301 C 0.302,-0.136 0.167,0 0,0"
         style="fill:#ffffff;fill-opacity:1;fill-rule:nonzero;stroke:none;stroke-width:0.120944"
         id="path1907"
         inkscape:connector-curvature="0" />
    </g>
    <g
       id="g1909"
       transform="matrix(2.9168688,0,0,-2.9168688,15.083087,276.08025)"
       style="stroke-width:0.120944">
      <path
         d="m 0,0 c -0.166,0 -0.302,-0.136 -0.302,-0.302 0,-0.166 0.136,-0.301 0.302,-0.301 0.166,0 0.302,0.135 0.302,0.301 C 0.302,-0.136 0.166,0 0,0"
         style="fill:#ffffff;fill-opacity:1;fill-rule:nonzero;stroke:none;stroke-width:0.120944"
         id="path1911"
         inkscape:connector-curvature="0" />
    </g>
    <g
       id="g1913"
       transform="matrix(2.9168688,0,0,-2.9168688,10.585297,276.08025)"
       style="stroke-width:0.120944">
      <path
         d="m 0,0 c -0.166,0 -0.302,-0.136 -0.302,-0.302 0,-0.166 0.136,-0.301 0.302,-0.301 0.166,0 0.302,0.135 0.302,0.301 C 0.302,-0.136 0.166,0 0,0"
         style="fill:#ffffff;fill-opacity:1;fill-rule:nonzero;stroke:none;stroke-width:0.120944"
         id="path1915"
         inkscape:connector-curvature="0" />
    </g>
    <g
       id="g1917"
       transform="matrix(2.9168688,0,0,-2.9168688,30.825407,279.2217)"
       style="stroke-width:0.120944">
      <path
         d="m 0,0 c -0.166,0 -0.301,-0.135 -0.301,-0.301 0,-0.167 0.135,-0.301 0.301,-0.301 0.167,0 0.302,0.134 0.302,0.301 C 0.302,-0.135 0.167,0 0,0"
         style="fill:#ffffff;fill-opacity:1;fill-rule:nonzero;stroke:none;stroke-width:0.120944"
         id="path1919"
         inkscape:connector-curvature="0" />
    </g>
    <g
       id="g1921"
       transform="matrix(2.9168688,0,0,-2.9168688,35.323277,279.2217)"
       style="stroke-width:0.120944">
      <path
         d="m 0,0 c -0.166,0 -0.301,-0.135 -0.301,-0.301 0,-0.167 0.135,-0.301 0.301,-0.301 0.167,0 0.302,0.134 0.302,0.301 C 0.302,-0.135 0.167,0 0,0"
         style="fill:#ffffff;fill-opacity:1;fill-rule:nonzero;stroke:none;stroke-width:0.120944"
         id="path1923"
         inkscape:connector-curvature="0" />
    </g>
    <g
       id="g1925"
       transform="matrix(2.9168688,0,0,-2.9168688,39.823957,279.2217)"
       style="stroke-width:0.120944">
      <path
         d="m 0,0 c -0.167,0 -0.302,-0.135 -0.302,-0.301 0,-0.167 0.135,-0.301 0.302,-0.301 0.166,0 0.301,0.134 0.301,0.301 C 0.301,-0.135 0.166,0 0,0"
         style="fill:#ffffff;fill-opacity:1;fill-rule:nonzero;stroke:none;stroke-width:0.120944"
         id="path1927"
         inkscape:connector-curvature="0" />
    </g>
    <g
       id="g1929"
       transform="matrix(2.9168688,0,0,-2.9168688,44.321827,279.2217)"
       style="stroke-width:0.120944">
      <path
         d="m 0,0 c -0.167,0 -0.302,-0.135 -0.302,-0.301 0,-0.167 0.135,-0.301 0.302,-0.301 0.166,0 0.301,0.134 0.301,0.301 C 0.301,-0.135 0.166,0 0,0"
         style="fill:#ffffff;fill-opacity:1;fill-rule:nonzero;stroke:none;stroke-width:0.120944"
         id="path1931"
         inkscape:connector-curvature="0" />
    </g>
    <g
       id="g1933"
       transform="matrix(2.9168688,0,0,-2.9168688,48.819607,279.2217)"
       style="stroke-width:0.120944">
      <path
         d="m 0,0 c -0.167,0 -0.302,-0.135 -0.302,-0.301 0,-0.167 0.135,-0.301 0.302,-0.301 0.166,0 0.301,0.134 0.301,0.301 C 0.301,-0.135 0.166,0 0,0"
         style="fill:#ffffff;fill-opacity:1;fill-rule:nonzero;stroke:none;stroke-width:0.120944"
         id="path1935"
         inkscape:connector-curvature="0" />
    </g>
    <g
       id="g1937"
       transform="matrix(2.9168688,0,0,-2.9168688,53.317387,279.2217)"
       style="stroke-width:0.120944">
      <path
         d="m 0,0 c -0.166,0 -0.302,-0.135 -0.302,-0.301 0,-0.167 0.136,-0.301 0.302,-0.301 0.166,0 0.302,0.134 0.302,0.301 C 0.302,-0.135 0.166,0 0,0"
         style="fill:#ffffff;fill-opacity:1;fill-rule:nonzero;stroke:none;stroke-width:0.120944"
         id="path1939"
         inkscape:connector-curvature="0" />
    </g>
    <g
       id="g1941"
       transform="matrix(2.9168688,0,0,-2.9168688,26.327627,279.2217)"
       style="stroke-width:0.120944">
      <path
         d="m 0,0 c -0.166,0 -0.301,-0.135 -0.301,-0.301 0,-0.167 0.135,-0.301 0.301,-0.301 0.167,0 0.302,0.134 0.302,0.301 C 0.302,-0.135 0.167,0 0,0"
         style="fill:#ffffff;fill-opacity:1;fill-rule:nonzero;stroke:none;stroke-width:0.120944"
         id="path1943"
         inkscape:connector-curvature="0" />
    </g>
    <g
       id="g1945"
       transform="matrix(2.9168688,0,0,-2.9168688,21.829847,279.2217)"
       style="stroke-width:0.120944">
      <path
         d="m 0,0 c -0.166,0 -0.301,-0.135 -0.301,-0.301 0,-0.167 0.135,-0.301 0.301,-0.301 0.167,0 0.302,0.134 0.302,0.301 C 0.302,-0.135 0.167,0 0,0"
         style="fill:#ffffff;fill-opacity:1;fill-rule:nonzero;stroke:none;stroke-width:0.120944"
         id="path1947"
         inkscape:connector-curvature="0" />
    </g>
    <g
       id="g1949"
       transform="matrix(2.9168688,0,0,-2.9168688,17.331977,279.2217)"
       style="stroke-width:0.120944">
      <path
         d="m 0,0 c -0.166,0 -0.301,-0.135 -0.301,-0.301 0,-0.167 0.135,-0.301 0.301,-0.301 0.167,0 0.302,0.134 0.302,0.301 C 0.302,-0.135 0.167,0 0,0"
         style="fill:#ffffff;fill-opacity:1;fill-rule:nonzero;stroke:none;stroke-width:0.120944"
         id="path1951"
         inkscape:connector-curvature="0" />
    </g>
    <g
       id="g1953"
       transform="matrix(2.9168688,0,0,-2.9168688,12.834197,279.2217)"
       style="stroke-width:0.120944">
      <path
         d="m 0,0 c -0.166,0 -0.302,-0.135 -0.302,-0.301 0,-0.167 0.136,-0.301 0.302,-0.301 0.166,0 0.302,0.134 0.302,0.301 C 0.302,-0.135 0.166,0 0,0"
         style="fill:#ffffff;fill-opacity:1;fill-rule:nonzero;stroke:none;stroke-width:0.120944"
         id="path1955"
         inkscape:connector-curvature="0" />
    </g>
    <g
       id="g1957"
       transform="matrix(2.9168688,0,0,-2.9168688,60.457887,260.57414)"
       style="stroke-width:0.120944">
      <path
         d="m 0,0 c -0.593,0.079 -1.14,-0.339 -1.219,-0.932 -0.079,-0.595 0.338,-1.14 0.932,-1.219 0.594,-0.08 1.14,0.338 1.219,0.932 C 1.011,-0.625 0.595,-0.079 0,0"
         style="fill:#ffffff;fill-opacity:1;fill-rule:nonzero;stroke:none;stroke-width:0.120944"
         id="path1959"
         inkscape:connector-curvature="0" />
    </g>
    <g
       id="g1961"
       transform="matrix(2.9168688,0,0,-2.9168688,42.918777,259.52407)"
       style="stroke-width:0.120944">
      <path
         d="m 0,0 c -0.104,0.262 -0.328,0.468 -0.614,0.538 -0.474,0.116 -0.953,-0.174 -1.069,-0.648 -0.052,-0.209 -0.024,-0.42 0.064,-0.6 0.488,-0.888 1.072,-1.913 1.629,-2.84 0.087,-0.139 0.224,-0.236 0.392,-0.257 1.455,-0.185 3.097,-0.336 3.842,-0.41 0.01,-0.001 0.016,-0.001 0.03,-0.001 0.161,-0.008 0.306,0.148 0.3,0.32 -0.003,0.1 -0.054,0.187 -0.13,0.241 C 4.438,-3.653 4.429,-3.646 4.427,-3.645 3.668,-3.155 2.466,-2.36 1.653,-1.857 1.245,-1.246 0.86,-0.715 0.43,-0.185 0.725,-0.996 0.963,-1.784 1.173,-2.531 1.19,-2.542 1.209,-2.553 1.229,-2.561 1.704,-2.767 2.426,-3.042 3.093,-3.306 2.381,-3.143 1.57,-2.966 0.901,-2.828 0.635,-1.867 0.349,-0.925 0,0"
         style="fill:#ffffff;fill-opacity:1;fill-rule:nonzero;stroke:none;stroke-width:0.120944"
         id="path1963"
         inkscape:connector-curvature="0" />
    </g>
    <g
       id="g1965"
       transform="matrix(2.9168688,0,0,-2.9168688,47.413667,260.99128)"
       style="stroke-width:0.120944">
      <path
         d="M 0,0 C 0.593,-0.088 1.145,0.322 1.232,0.914 1.32,1.507 0.91,2.059 0.317,2.147 -0.275,2.234 -0.827,1.825 -0.915,1.232 -1.003,0.639 -0.593,0.088 0,0"
         style="fill:#ffffff;fill-opacity:1;fill-rule:nonzero;stroke:none;stroke-width:0.120944"
         id="path1967"
         inkscape:connector-curvature="0" />
    </g>
    <g
       id="g1969"
       transform="matrix(2.9168688,0,0,-2.9168688,10.182797,246.67531)"
       style="stroke-width:0.120944">
      <path
         d="m 0,0 c -0.107,0.09 -0.258,0.12 -0.395,0.062 -0.192,-0.083 -0.281,-0.306 -0.198,-0.497 0.014,-0.033 0.033,-0.063 0.054,-0.09 0.396,-0.515 2.949,-3.617 3.218,-3.916 0.077,-0.085 0.161,-0.154 0.287,-0.206 0.315,-0.139 2.446,-1.073 3.24,-1.4 0.058,-0.024 0.117,-0.043 0.18,-0.057 0.558,-0.119 1.106,0.236 1.226,0.794 0.114,0.535 -0.209,1.06 -0.728,1.208 -0.493,0.14 -2.207,0.518 -3.33,0.728 C 2.739,-2.513 1.198,-1.079 0,0"
         style="fill:#ffffff;fill-opacity:1;fill-rule:nonzero;stroke:none;stroke-width:0.120944"
         id="path1971"
         inkscape:connector-curvature="0" />
    </g>
  </g>
</svg>
