<?xml version="1.0" encoding="UTF-8" standalone="no"?>
<!-- Created with Inkscape (http://www.inkscape.org/) -->

<svg
   xmlns:dc="http://purl.org/dc/elements/1.1/"
   xmlns:cc="http://creativecommons.org/ns#"
   xmlns:rdf="http://www.w3.org/1999/02/22-rdf-syntax-ns#"
   xmlns:svg="http://www.w3.org/2000/svg"
   xmlns="http://www.w3.org/2000/svg"
   xmlns:sodipodi="http://sodipodi.sourceforge.net/DTD/sodipodi-0.dtd"
   xmlns:inkscape="http://www.inkscape.org/namespaces/inkscape"
   width="250"
   height="250"
   viewBox="0 0 66.145832 66.145835"
   version="1.1"
   id="svg1422"
   inkscape:version="0.92.4 (5da689c313, 2019-01-14)"
   sodipodi:docname="volle.svg">
  <defs
     id="defs1416" />
  <sodipodi:namedview
     id="base"
     pagecolor="#ffffff"
     bordercolor="#666666"
     borderopacity="1.0"
     inkscape:pageopacity="0.0"
     inkscape:pageshadow="2"
     inkscape:zoom="0.61445677"
     inkscape:cx="450.03786"
     inkscape:cy="-65.020225"
     inkscape:document-units="mm"
     inkscape:current-layer="layer1"
     showgrid="false"
     units="px"
     inkscape:pagecheckerboard="true"
     inkscape:window-width="1366"
     inkscape:window-height="705"
     inkscape:window-x="-8"
     inkscape:window-y="-8"
     inkscape:window-maximized="1"
     showguides="false" />
  <metadata
     id="metadata1419">
    <rdf:RDF>
      <cc:Work
         rdf:about="">
        <dc:format>image/svg+xml</dc:format>
        <dc:type
           rdf:resource="http://purl.org/dc/dcmitype/StillImage" />
        <dc:title></dc:title>
      </cc:Work>
    </rdf:RDF>
  </metadata>
  <g
     inkscape:label="Layer 1"
     inkscape:groupmode="layer"
     id="layer1"
     transform="translate(0,-230.85415)">
    <g
       id="g1669"
       transform="matrix(2.9169974,0,0,-2.9168688,66.145833,263.92852)"
       style="fill:#842435;fill-opacity:1;stroke-width:0.12094133">
      <path
         d="m 0,0 c 0,-6.262 -5.076,-11.338 -11.338,-11.338 -6.262,0 -11.338,5.076 -11.338,11.338 0,6.263 5.076,11.339 11.338,11.339 C -5.076,11.339 0,6.263 0,0"
         style="fill:#842435;fill-opacity:1;fill-rule:nonzero;stroke:none;stroke-width:0.12094133"
         id="path1671"
         inkscape:connector-curvature="0" />
    </g>
    <g
       id="g1705"
       transform="matrix(2.9168688,0,0,-2.9168688,28.153597,281.21677)"
       style="stroke-width:0.120944">
      <path
         d="M 0,0 C 0.183,0.168 0.773,0.759 1.371,1.365 1.362,0.847 1.356,0.358 1.357,-0.016 -0.161,-0.534 -3.67,-1.794 -3.806,-1.856 -3.92,-1.91 -3.998,-1.99 -4.041,-2.107 c -0.083,-0.227 0.034,-0.478 0.261,-0.56 0.068,-0.025 0.142,-0.032 0.204,-0.023 0.016,0.002 0.031,0.005 0.052,0.009 0.654,0.131 5.357,1.211 5.9,1.367 0.226,0.061 0.441,0.262 0.518,0.519 0.003,0.012 0.007,0.023 0.009,0.035 C 2.991,-0.446 3.577,2.962 3.66,3.598 3.665,3.634 3.669,3.663 3.67,3.696 3.713,4.308 3.25,4.838 2.638,4.881 2.29,4.905 1.966,4.765 1.746,4.526 1.086,3.771 -0.123,2.234 -0.727,1.44 -2.043,1.93 -4.849,2.866 -5.093,2.941 -5.278,3.007 -5.489,2.927 -5.582,2.747 -5.681,2.556 -5.613,2.327 -5.419,2.214 -5.046,2.013 -0.924,-0.049 -0.762,-0.115 -0.488,-0.226 -0.205,-0.174 0,0"
         style="fill:#ffffff;fill-opacity:1;fill-rule:nonzero;stroke:none;stroke-width:0.120944"
         id="path1707"
         inkscape:connector-curvature="0" />
    </g>
    <g
       id="g1709"
       transform="matrix(2.9168688,0,0,-2.9168688,31.467197,254.4691)"
       style="stroke-width:0.120944">
      <path
         d="M 0,0 C 0.635,-0.067 1.203,0.393 1.271,1.029 1.337,1.663 0.876,2.232 0.242,2.298 -0.393,2.365 -0.961,1.905 -1.029,1.27 -1.095,0.635 -0.634,0.066 0,0"
         style="fill:#ffffff;fill-opacity:1;fill-rule:nonzero;stroke:none;stroke-width:0.120944"
         id="path1711"
         inkscape:connector-curvature="0" />
    </g>
    <g
       id="g1713"
       transform="matrix(2.9168688,0,0,-2.9168688,44.581447,243.7992)"
       style="stroke-width:0.120944">
      <path
         d="M 0,0 C 0.634,-0.067 1.203,0.393 1.27,1.028 1.337,1.663 0.876,2.232 0.242,2.298 -0.393,2.365 -0.962,1.904 -1.029,1.27 -1.095,0.635 -0.634,0.066 0,0"
         style="fill:#ffffff;fill-opacity:1;fill-rule:nonzero;stroke:none;stroke-width:0.120944"
         id="path1715"
         inkscape:connector-curvature="0" />
    </g>
    <g
       id="g1717"
       transform="matrix(2.9168688,0,0,-2.9168688,51.080237,245.71554)"
       style="stroke-width:0.120944">
      <path
         d="M 0,0 C 0.093,0.105 0.112,0.264 0.036,0.391 -0.058,0.547 -0.26,0.596 -0.413,0.501 -0.422,0.496 -0.429,0.492 -0.436,0.486 -0.851,0.18 -2.328,-0.905 -3.101,-1.524 c -0.326,-0.169 -1.541,-0.9 -2.265,-1.363 0.045,-0.029 0.088,-0.057 0.129,-0.087 0.398,-0.288 0.716,-0.723 0.948,-1.234 0.572,0.528 1.729,1.68 1.93,1.896 0,0 0.012,0.011 0.015,0.014 0.259,0.246 1.927,1.882 2.32,2.274 C -0.015,-0.016 -0.004,-0.005 0,0"
         style="fill:#ffffff;fill-opacity:1;fill-rule:nonzero;stroke:none;stroke-width:0.120944"
         id="path1719"
         inkscape:connector-curvature="0" />
    </g>
    <g
       id="g1721"
       transform="matrix(2.9168688,0,0,-2.9168688,31.974707,261.77587)"
       style="stroke-width:0.120944">
      <path
         d="M 0,0 C 0.571,0.091 0.942,0.628 0.844,1.179 0.746,1.731 0.22,2.099 -0.332,2.002 -0.391,1.991 -0.447,1.976 -0.502,1.956 -0.839,1.838 -1.681,1.51 -2.416,1.216 c 0.311,1.047 0.66,2.289 0.779,2.73 0.042,0.145 0.004,0.294 -0.115,0.387 C -1.906,4.453 -2.13,4.424 -2.254,4.268 -2.277,4.24 -2.296,4.213 -2.31,4.179 c 0,0 -1.155,-2.585 -1.635,-3.793 -0.013,-0.034 -0.023,-0.07 -0.03,-0.107 -0.06,-0.329 0.158,-0.646 0.488,-0.706 0.062,-0.011 0.124,-0.013 0.184,-0.006 C -2.981,-0.402 -0.277,-0.041 0,0"
         style="fill:#ffffff;fill-opacity:1;fill-rule:nonzero;stroke:none;stroke-width:0.120944"
         id="path1723"
         inkscape:connector-curvature="0" />
    </g>
  </g>
</svg>
