<?xml version="1.0" encoding="UTF-8" standalone="no"?>
<!-- Created with Inkscape (http://www.inkscape.org/) -->

<svg
   xmlns:dc="http://purl.org/dc/elements/1.1/"
   xmlns:cc="http://creativecommons.org/ns#"
   xmlns:rdf="http://www.w3.org/1999/02/22-rdf-syntax-ns#"
   xmlns:svg="http://www.w3.org/2000/svg"
   xmlns="http://www.w3.org/2000/svg"
   xmlns:sodipodi="http://sodipodi.sourceforge.net/DTD/sodipodi-0.dtd"
   xmlns:inkscape="http://www.inkscape.org/namespaces/inkscape"
   width="250"
   height="250"
   viewBox="0 0 66.145832 66.145835"
   version="1.1"
   id="svg1422"
   inkscape:version="0.92.4 (5da689c313, 2019-01-14)"
   sodipodi:docname="water polo.svg">
  <defs
     id="defs1416" />
  <sodipodi:namedview
     id="base"
     pagecolor="#ffffff"
     bordercolor="#666666"
     borderopacity="1.0"
     inkscape:pageopacity="0.0"
     inkscape:pageshadow="2"
     inkscape:zoom="1.3876087"
     inkscape:cx="145.30513"
     inkscape:cy="131.6652"
     inkscape:document-units="mm"
     inkscape:current-layer="layer1"
     showgrid="false"
     units="px"
     inkscape:pagecheckerboard="true"
     inkscape:window-width="1366"
     inkscape:window-height="705"
     inkscape:window-x="-8"
     inkscape:window-y="-8"
     inkscape:window-maximized="1"
     showguides="false" />
  <metadata
     id="metadata1419">
    <rdf:RDF>
      <cc:Work
         rdf:about="">
        <dc:format>image/svg+xml</dc:format>
        <dc:type
           rdf:resource="http://purl.org/dc/dcmitype/StillImage" />
        <dc:title></dc:title>
      </cc:Work>
    </rdf:RDF>
  </metadata>
  <g
     inkscape:label="Layer 1"
     inkscape:groupmode="layer"
     id="layer1"
     transform="translate(0,-230.85415)">
    <g
       id="g953"
       transform="matrix(2.9168688,0,0,-2.9168688,66.145834,263.92852)"
       style="fill:#2c4c98;fill-opacity:1;stroke-width:0.120944">
      <path
         d="m 0,0 c 0,-6.262 -5.077,-11.338 -11.338,-11.338 -6.263,0 -11.339,5.076 -11.339,11.338 0,6.263 5.076,11.339 11.339,11.339 C -5.077,11.339 0,6.263 0,0"
         style="fill:#2c4c98;fill-opacity:1;fill-rule:nonzero;stroke:none;stroke-width:0.120944"
         id="path955"
         inkscape:connector-curvature="0" />
    </g>
    <g
       id="g957"
       transform="matrix(2.9168688,0,0,-2.9168688,35.454543,266.54196)"
       style="stroke-width:0.120944">
      <path
         d="m 0,0 c -0.194,-0.913 -1.091,-1.495 -2.003,-1.301 -0.912,0.193 -1.495,1.09 -1.301,2.003 0.194,0.912 1.09,1.494 2.003,1.301 C -0.389,1.809 0.194,0.912 0,0"
         style="fill:#ffffff;fill-opacity:1;fill-rule:nonzero;stroke:none;stroke-width:0.120944"
         id="path959"
         inkscape:connector-curvature="0" />
    </g>
    <g
       id="g961"
       transform="matrix(2.9168688,0,0,-2.9168688,34.007783,281.34798)"
       style="stroke-width:0.120944">
      <path
         d="m 0,0 c -0.054,0 -0.106,0.004 -0.158,0.006 -0.831,0.032 -1.705,0.47 -1.705,1.42 0,1.04 0.962,1.329 1.532,1.232 C 0.5,2.548 4.427,1.321 6.697,0.49 6.299,0.183 5.787,0 5.237,0 4.753,0 4.306,0.144 3.934,0.388 3.556,0.143 3.106,0 2.623,0 2.139,0 1.689,0.143 1.311,0.388 0.934,0.143 0.483,0 0,0"
         style="fill:#ffffff;fill-opacity:1;fill-rule:nonzero;stroke:none;stroke-width:0.120944"
         id="path963"
         inkscape:connector-curvature="0" />
    </g>
    <g
       id="g965"
       transform="matrix(2.9168688,0,0,-2.9168688,19.242602,265.41904)"
       style="stroke-width:0.120944">
      <path
         d="M 0,0 C -0.107,0.873 -0.343,2.407 -0.536,3.451 -0.524,3.448 -0.511,3.444 -0.498,3.441 0.32,3.267 1.125,3.79 1.299,4.608 1.473,5.427 0.951,6.231 0.133,6.405 -0.687,6.579 -1.491,6.057 -1.665,5.239 -1.736,4.907 -1.69,4.578 -1.558,4.291 l 0.116,-4.47 c 0.009,-0.322 0.141,-0.654 0.309,-0.882 l 2.585,-2.935 c 0.023,0.889 0.315,1.762 0.775,2.333 C 1.458,-1.038 0.714,-0.455 0,0"
         style="fill:#ffffff;fill-opacity:1;fill-rule:nonzero;stroke:none;stroke-width:0.120944"
         id="path967"
         inkscape:connector-curvature="0" />
    </g>
  </g>
</svg>
