<?xml version="1.0" encoding="UTF-8" standalone="no"?>
<!-- Created with Inkscape (http://www.inkscape.org/) -->

<svg
   xmlns:dc="http://purl.org/dc/elements/1.1/"
   xmlns:cc="http://creativecommons.org/ns#"
   xmlns:rdf="http://www.w3.org/1999/02/22-rdf-syntax-ns#"
   xmlns:svg="http://www.w3.org/2000/svg"
   xmlns="http://www.w3.org/2000/svg"
   xmlns:sodipodi="http://sodipodi.sourceforge.net/DTD/sodipodi-0.dtd"
   xmlns:inkscape="http://www.inkscape.org/namespaces/inkscape"
   width="250"
   height="250"
   viewBox="0 0 66.145832 66.145835"
   version="1.1"
   id="svg1422"
   inkscape:version="0.92.4 (5da689c313, 2019-01-14)"
   sodipodi:docname="wrestl.svg">
  <defs
     id="defs1416" />
  <sodipodi:namedview
     id="base"
     pagecolor="#ffffff"
     bordercolor="#666666"
     borderopacity="1.0"
     inkscape:pageopacity="0.0"
     inkscape:pageshadow="2"
     inkscape:zoom="0.8689731"
     inkscape:cx="219.88899"
     inkscape:cy="-28.817818"
     inkscape:document-units="mm"
     inkscape:current-layer="layer1"
     showgrid="false"
     units="px"
     inkscape:pagecheckerboard="true"
     inkscape:window-width="1366"
     inkscape:window-height="705"
     inkscape:window-x="-8"
     inkscape:window-y="-8"
     inkscape:window-maximized="1"
     showguides="false" />
  <metadata
     id="metadata1419">
    <rdf:RDF>
      <cc:Work
         rdf:about="">
        <dc:format>image/svg+xml</dc:format>
        <dc:type
           rdf:resource="http://purl.org/dc/dcmitype/StillImage" />
        <dc:title></dc:title>
      </cc:Work>
    </rdf:RDF>
  </metadata>
  <g
     inkscape:label="Layer 1"
     inkscape:groupmode="layer"
     id="layer1"
     transform="translate(0,-230.85415)">
    <g
       id="g1601"
       transform="matrix(2.9168688,0,0,-2.9168688,66.142917,263.92852)"
       style="fill:#842435;fill-opacity:1;stroke-width:0.120944">
      <path
         d="m 0,0 c 0,-6.262 -5.076,-11.338 -11.338,-11.338 -6.262,0 -11.338,5.076 -11.338,11.338 0,6.263 5.076,11.339 11.338,11.339 C -5.076,11.339 0,6.263 0,0"
         style="fill:#842435;fill-opacity:1;fill-rule:nonzero;stroke:none;stroke-width:0.120944"
         id="path1603"
         inkscape:connector-curvature="0" />
    </g>
    <g
       id="g1605"
       transform="matrix(2.9168688,0,0,-2.9168688,36.971317,252.0598)"
       style="stroke-width:0.120944">
      <path
         d="M 0,0 C 0.403,-0.317 0.988,-0.248 1.305,0.155 1.623,0.559 1.553,1.143 1.15,1.461 0.746,1.779 0.162,1.709 -0.156,1.306 -0.473,0.903 -0.404,0.318 0,0"
         style="fill:#ffffff;fill-opacity:1;fill-rule:nonzero;stroke:none;stroke-width:0.120944"
         id="path1607"
         inkscape:connector-curvature="0" />
    </g>
    <g
       id="g1609"
       transform="matrix(2.9168688,0,0,-2.9168688,33.511857,257.47346)"
       style="stroke-width:0.120944">
      <path
         d="M 0,0 C 0.45,0.249 0.611,0.815 0.363,1.264 0.114,1.713 -0.452,1.875 -0.901,1.627 -1.35,1.378 -1.512,0.812 -1.264,0.363 -1.015,-0.086 -0.449,-0.249 0,0"
         style="fill:#ffffff;fill-opacity:1;fill-rule:nonzero;stroke:none;stroke-width:0.120944"
         id="path1611"
         inkscape:connector-curvature="0" />
    </g>
    <g
       id="g1613"
       transform="matrix(2.9168688,0,0,-2.9168688,18.545427,274.95717)"
       style="stroke-width:0.120944">
      <path
         d="m 0,0 c -0.01,-0.073 0.011,-0.171 0.059,-0.236 0.104,-0.141 0.302,-0.172 0.444,-0.067 0.053,0.039 0.091,0.092 0.111,0.15 L 1.828,3.34 C 1.9,3.562 1.927,3.867 1.803,4.084 1.641,4.366 0.3,6.509 0.3,6.509 0.051,6.912 -0.477,7.039 -0.883,6.792 -0.956,6.748 -1.062,6.668 -1.157,6.524 -1.766,5.653 -4.979,0.308 -5.058,0.067 c -0.038,-0.097 -0.026,-0.212 0.04,-0.303 0.104,-0.141 0.303,-0.172 0.444,-0.067 0.022,0.015 0.052,0.043 0.101,0.098 0.065,0.076 4.07,4.942 4.07,4.942 C 0.004,4.3 0.396,3.899 0.771,3.548 0.486,2.516 0.072,0.612 0,0"
         style="fill:#ffffff;fill-opacity:1;fill-rule:nonzero;stroke:none;stroke-width:0.120944"
         id="path1615"
         inkscape:connector-curvature="0" />
    </g>
    <g
       id="g1617"
       transform="matrix(2.9168688,0,0,-2.9168688,42.434587,262.47007)"
       style="stroke-width:0.120944">
      <path
         d="m 0,0 c -0.147,-0.166 -0.26,-0.498 -0.273,-0.793 l -0.164,-3.521 c -0.004,-0.102 0.04,-0.205 0.129,-0.27 0.141,-0.104 0.339,-0.074 0.444,0.067 0.031,0.041 0.046,0.088 0.056,0.136 0.255,1.305 0.488,2.556 0.604,3.529 0.251,0.186 0.773,0.601 1.247,0.996 l 0.572,-1.683 c 0.032,-0.094 0.091,-0.18 0.172,-0.246 l 3.454,-2.799 c 0.142,-0.104 0.34,-0.074 0.444,0.067 0.094,0.128 0.075,0.301 -0.032,0.412 C 5.548,-2.912 4.478,-1.777 3.674,-1.109 3.663,-0.471 3.562,0.894 3.388,1.549 3.33,1.778 3.189,1.944 3.003,2.058 2.691,2.248 2.281,2.23 2.008,1.991 1.623,1.651 0.198,0.229 0,0"
         style="fill:#ffffff;fill-opacity:1;fill-rule:nonzero;stroke:none;stroke-width:0.120944"
         id="path1619"
         inkscape:connector-curvature="0" />
    </g>
    <g
       id="g1621"
       transform="matrix(2.9168688,0,0,-2.9168688,42.977067,250.61301)"
       style="stroke-width:0.120944">
      <path
         d="m 0,0 c -0.499,-0.666 -0.98,-1.327 -1.404,-2.011 -0.532,-0.544 -1.104,-1.24 -1.697,-2.007 -0.717,0.134 -1.415,0.247 -2.075,0.315 0.133,0.773 0.223,1.563 0.207,2.214 -0.008,0.231 -0.129,0.454 -0.341,0.585 -0.336,0.207 -0.776,0.101 -0.983,-0.235 -0.069,-0.112 -0.102,-0.234 -0.105,-0.356 -0.012,-0.708 0.123,-1.692 0.288,-2.64 0.021,-0.13 0.083,-0.248 0.2,-0.321 0.071,-0.043 0.148,-0.063 0.226,-0.063 0,0 2.527,0.004 2.625,0.004 0.112,0 0.141,0.003 0.219,0.058 l 3.906,3.518 c 0.107,0.096 0.186,0.226 0.22,0.378 C 1.37,-0.175 1.125,0.205 0.739,0.289 0.448,0.353 0.181,0.227 0,0"
         style="fill:#ffffff;fill-opacity:1;fill-rule:nonzero;stroke:none;stroke-width:0.120944"
         id="path1623"
         inkscape:connector-curvature="0" />
    </g>
  </g>
</svg>
